<svg width="2560" height="1440" xmlns="http://www.w3.org/2000/svg" xmlns:xlink="http://www.w3.org/1999/xlink" overflow="hidden"><defs><clipPath id="clip0"><path d="M0 0 2560 0 2560 1440 0 1440Z" fill-rule="evenodd" clip-rule="evenodd"/></clipPath></defs><g clip-path="url(#clip0)"><rect x="0" y="0" width="2560" height="1440" fill="#FFFFFF"/><path d="M510.587-179.201C509.382-178.825 508.233-178.323 507.117-177.713 507.117-177.713 507.117-177.713 507.102-177.708 506.975-177.643 506.878-177.537 506.754-177.464 505.826-176.93 504.948-176.344 504.118-175.654 503.859-175.438 503.651-175.162 503.4-174.923 502.754-174.325 502.088-173.737 501.525-173.03 501.385-172.851 501.289-172.635 501.151-172.448 500.563-171.665 499.997-170.864 499.538-169.978L418.51-15.5228 352.846-49.9769C343.636-54.799 332.254-51.2493 327.419-42.0467 322.598-32.8488 326.144-21.4798 335.341-16.6453L417.547 26.4592C422.178 28.9003 427.377 29.1875 431.995 27.7136 436.646 26.2966 440.729 23.1062 443.168 18.4687L485.74-62.6818 568.805-88.5883C578.714-91.6787 584.254-102.233 581.162-112.147 578.068-122.069 567.51-127.602 557.601-124.512L510.452-109.807 529.231-145.597 612.281-171.499C622.19-174.589 627.73-185.143 624.638-195.058 621.544-204.98 610.986-210.513 601.077-207.423L510.617-179.21C510.602-179.205 510.602-179.205 510.587-179.201Z" fill="#5E72E4" fill-rule="evenodd"/><path d="M130.133-60.5443C128.928-60.1684 127.779-59.6663 126.663-59.0565 126.663-59.0565 126.663-59.0565 126.648-59.0519 126.521-58.987 126.424-58.8806 126.299-58.8081 125.372-58.274 124.494-57.6875 123.664-56.998 123.405-56.782 123.197-56.5061 122.945-56.267 122.299-55.6686 121.634-55.0809 121.071-54.3732 120.931-54.1944 120.835-53.9786 120.697-53.7921 120.109-53.0089 119.542-52.2073 119.084-51.3211L38.056 103.134-27.6085 68.6795C-36.818 63.8574-48.1999 67.4071-53.0354 76.6097-57.856 85.8076-54.3102 97.1767-45.1132 102.011L37.0931 145.116C41.7236 147.557 46.923 147.844 51.5406 146.37 56.1922 144.953 60.2744 141.763 62.7135 137.125L105.285 55.9746 188.351 30.0681C198.26 26.9777 203.8 16.4236 200.708 6.50931 197.613-3.41266 187.056-8.94607 177.147-5.85567L129.997 8.84926 148.776-26.9406 231.827-52.8424C241.735-55.9328 247.276-66.487 244.184-76.4013 241.089-86.3232 230.531-91.8567 220.623-88.7663L130.163-60.5536C130.148-60.5489 130.148-60.5489 130.133-60.5443Z" fill="#5E72E4" fill-rule="evenodd"/><path d="M453.28 100.663C452.074 101.039 450.925 101.541 449.809 102.151 449.809 102.151 449.809 102.151 449.794 102.156 449.668 102.221 449.57 102.327 449.446 102.4 448.519 102.934 447.64 103.52 446.811 104.21 446.551 104.426 446.344 104.702 446.092 104.941 445.446 105.539 444.78 106.127 444.217 106.835 444.077 107.013 443.981 107.229 443.843 107.416 443.255 108.199 442.689 109 442.23 109.887L361.202 264.341 295.538 229.887C286.328 225.065 274.947 228.615 270.111 237.817 265.29 247.015 268.836 258.384 278.033 263.219L360.24 306.323C364.87 308.764 370.069 309.052 374.687 307.578 379.339 306.161 383.421 302.97 385.86 298.333L428.432 217.182 511.497 191.276C521.406 188.185 526.946 177.631 523.854 167.717 520.76 157.795 510.202 152.262 500.293 155.352L453.144 170.057 471.923 134.267 554.973 108.365C564.882 105.275 570.422 94.7207 567.33 84.8065 564.236 74.8845 553.678 69.3511 543.769 72.4415L453.309 100.654C453.294 100.659 453.294 100.659 453.28 100.663Z" fill="#5E72E4" fill-rule="evenodd"/><path d="M72.8251 219.32C71.6199 219.696 70.4705 220.198 69.3546 220.808 69.3546 220.808 69.3546 220.808 69.3398 220.812 69.2131 220.877 69.1156 220.984 68.9913 221.056 68.0641 221.59 67.1859 222.177 66.3561 222.866 66.0969 223.082 65.8891 223.358 65.6372 223.597 64.9912 224.196 64.3256 224.783 63.7627 225.491 63.6226 225.67 63.5266 225.886 63.3889 226.072 62.8005 226.855 62.2343 227.657 61.776 228.543L-19.2521 382.998-84.9165 348.544C-94.1261 343.722-105.508 347.271-110.343 356.474-115.164 365.672-111.618 377.041-102.421 381.875L-20.2149 424.98C-15.5845 427.421-10.385 427.708-5.76749 426.234-1.11588 424.817 2.96631 421.627 5.40543 416.989L47.9773 335.839 131.043 309.932C140.951 306.842 146.492 296.288 143.4 286.374 140.305 276.452 129.748 270.918 119.839 274.009L72.6895 288.714 91.4682 252.924 174.519 227.022C184.427 223.931 189.968 213.377 186.876 203.463 183.781 193.541 173.223 188.008 163.315 191.098L72.8548 219.311C72.84 219.315 72.84 219.315 72.8251 219.32Z" fill="#5E72E4" fill-rule="evenodd"/><path d="M828.582-16.3863C827.377-16.0104 826.228-15.5083 825.112-14.8985 825.112-14.8985 825.112-14.8985 825.097-14.8939 824.97-14.829 824.873-14.7226 824.748-14.6501 823.821-14.1159 822.943-13.5295 822.113-12.84 821.854-12.624 821.646-12.3481 821.394-12.109 820.748-11.5106 820.083-10.9229 819.52-10.2152 819.38-10.0364 819.284-9.82064 819.146-9.6341 818.558-8.85093 817.991-8.04931 817.533-7.16313L736.505 147.292 670.841 112.838C661.631 108.015 650.249 111.565 645.414 120.768 640.593 129.966 644.139 141.335 653.336 146.169L735.542 189.274C740.173 191.715 745.372 192.002 749.99 190.528 754.641 189.111 758.723 185.921 761.162 181.283L803.734 100.133 886.8 74.2262C896.708 71.1358 902.249 60.5816 899.157 50.6673 896.062 40.7453 885.505 35.2119 875.596 38.3023L828.446 53.0073 847.225 17.2174 930.276-8.68443C940.184-11.7748 945.725-22.329 942.633-32.2433 939.538-42.1652 928.98-47.6987 919.072-44.6083L828.612-16.3956C828.597-16.3909 828.597-16.3909 828.582-16.3863Z" fill="#5E72E4" fill-rule="evenodd"/><path d="M1203.88-133.436C1202.68-133.06 1201.53-132.558 1200.41-131.948 1200.41-131.948 1200.41-131.948 1200.4-131.944 1200.27-131.879 1200.18-131.772 1200.05-131.7 1199.12-131.166 1198.25-130.579 1197.42-129.89 1197.16-129.674 1196.95-129.398 1196.7-129.159 1196.05-128.56 1195.39-127.973 1194.82-127.265 1194.68-127.086 1194.59-126.87 1194.45-126.684 1193.86-125.901 1193.29-125.099 1192.84-124.213L1111.81 30.2419 1046.14-4.21226C1036.93-9.0344 1025.55-5.48462 1020.72 3.71792 1015.9 12.9158 1019.44 24.2849 1028.64 29.1194L1110.84 72.2239C1115.48 74.665 1120.67 74.9522 1125.29 73.4783 1129.94 72.0613 1134.03 68.8709 1136.47 64.2334L1179.04-16.9171 1262.1-42.8236C1272.01-45.914 1277.55-56.4682 1274.46-66.3824 1271.37-76.3044 1260.81-81.8378 1250.9-78.7474L1203.75-64.0425 1222.53-99.8323 1305.58-125.734C1315.49-128.825 1321.03-139.379 1317.94-149.293 1314.84-159.215 1304.28-164.748 1294.37-161.658L1203.91-133.445C1203.9-133.441 1203.9-133.441 1203.88-133.436Z" fill="#5E72E4" fill-rule="evenodd"/><path d="M659.521 298.332C658.316 298.708 657.166 299.21 656.05 299.82 656.05 299.82 656.05 299.82 656.035 299.824 655.909 299.889 655.811 299.996 655.687 300.068 654.76 300.602 653.881 301.189 653.052 301.878 652.793 302.094 652.585 302.37 652.333 302.609 651.687 303.208 651.021 303.795 650.458 304.503 650.318 304.682 650.222 304.898 650.084 305.084 649.496 305.867 648.93 306.669 648.472 307.555L567.444 462.01 501.779 427.556C492.57 422.734 481.188 426.283 476.352 435.486 471.532 444.684 475.077 456.053 484.274 460.887L566.481 503.992C571.111 506.433 576.311 506.72 580.928 505.246 585.58 503.829 589.662 500.639 592.101 496.001L634.673 414.851 717.738 388.944C727.647 385.854 733.188 375.3 730.095 365.385 727.001 355.464 716.443 349.93 706.534 353.021L659.385 367.725 678.164 331.936 761.214 306.034C771.123 302.943 776.664 292.389 773.571 282.475 770.477 272.553 759.919 267.02 750.01 270.11L659.55 298.323C659.536 298.327 659.536 298.327 659.521 298.332Z" fill="#5E72E4" fill-rule="evenodd"/><path d="M279.066 416.988C277.861 417.364 276.712 417.866 275.596 418.476 275.596 418.476 275.596 418.476 275.581 418.481 275.454 418.546 275.357 418.652 275.233 418.725 274.305 419.259 273.427 419.845 272.597 420.535 272.338 420.751 272.13 421.027 271.879 421.266 271.233 421.864 270.567 422.452 270.004 423.159 269.864 423.338 269.768 423.554 269.63 423.74 269.042 424.524 268.476 425.325 268.017 426.211L186.989 580.666 121.325 546.212C112.115 541.39 100.733 544.94 95.8979 554.142 91.0773 563.34 94.6231 574.709 103.82 579.544L186.026 622.648C190.657 625.089 195.856 625.377 200.474 623.903 205.126 622.486 209.208 619.295 211.647 614.658L254.219 533.507 337.284 507.601C347.193 504.51 352.733 493.956 349.641 484.042 346.547 474.12 335.989 468.587 326.08 471.677L278.931 486.382 297.71 450.592 380.76 424.69C390.669 421.6 396.209 411.046 393.117 401.131 390.023 391.209 379.465 385.676 369.556 388.766L279.096 416.979C279.081 416.984 279.081 416.984 279.066 416.988Z" fill="#5E72E4" fill-rule="evenodd"/><path d="M-96.4041 534.09C-97.6093 534.466-98.7587 534.968-99.8746 535.578-99.8746 535.578-99.8746 535.578-99.8895 535.583-100.016 535.648-100.114 535.754-100.238 535.827-101.165 536.361-102.043 536.947-102.873 537.637-103.132 537.853-103.34 538.129-103.592 538.368-104.238 538.966-104.904 539.554-105.467 540.261-105.607 540.44-105.703 540.656-105.84 540.843-106.429 541.626-106.995 542.427-107.453 543.314L-188.481 697.768-254.146 663.314C-263.355 658.492-274.737 662.042-279.573 671.244-284.393 680.442-280.847 691.811-271.65 696.646L-189.444 739.75C-184.814 742.191-179.614 742.479-174.997 741.005-170.345 739.588-166.263 736.397-163.824 731.76L-121.252 650.609-38.1866 624.703C-28.2777 621.612-22.7373 611.058-25.8294 601.144-28.9239 591.222-39.4817 585.689-49.3906 588.779L-96.5397 603.484-77.761 567.694 5.28934 541.792C15.1982 538.702 20.7386 528.148 17.6466 518.233 14.5521 508.311 3.99426 502.778-5.91464 505.868L-96.3744 534.081C-96.3893 534.086-96.3893 534.086-96.4041 534.09Z" fill="#5E72E4" fill-rule="evenodd"/><path d="M1034.82 181.282C1033.62 181.658 1032.47 182.16 1031.35 182.77 1031.35 182.77 1031.35 182.77 1031.34 182.775 1031.21 182.839 1031.11 182.946 1030.99 183.018 1030.06 183.552 1029.18 184.139 1028.35 184.828 1028.1 185.044 1027.89 185.32 1027.64 185.559 1026.99 186.158 1026.32 186.746 1025.76 187.453 1025.62 187.632 1025.53 187.848 1025.39 188.034 1024.8 188.818 1024.23 189.619 1023.77 190.505L942.746 344.96 877.082 310.506C867.872 305.684 856.491 309.234 851.655 318.436 846.834 327.634 850.38 339.003 859.577 343.838L941.784 386.942C946.414 389.383 951.614 389.67 956.231 388.196 960.883 386.779 964.965 383.589 967.404 378.952L1009.98 297.801 1093.04 271.895C1102.95 268.804 1108.49 258.25 1105.4 248.336 1102.3 238.414 1091.75 232.88 1081.84 235.971L1034.69 250.676 1053.47 214.886 1136.52 188.984C1146.43 185.894 1151.97 175.339 1148.87 165.425 1145.78 155.503 1135.22 149.97 1125.31 153.06L1034.85 181.273C1034.84 181.278 1034.84 181.278 1034.82 181.282Z" fill="#5E72E4" fill-rule="evenodd"/><path d="M1410.13 64.2324C1408.92 64.6083 1407.77 65.1103 1406.66 65.7202 1406.66 65.7202 1406.66 65.7202 1406.64 65.7248 1406.51 65.7897 1406.42 65.8961 1406.29 65.9686 1405.37 66.5027 1404.49 67.0892 1403.66 67.7787 1403.4 67.9947 1403.19 68.2706 1402.94 68.5097 1402.29 69.1081 1401.63 69.6958 1401.06 70.4035 1400.92 70.5823 1400.83 70.798 1400.69 70.9846 1400.1 71.7678 1399.54 72.5694 1399.08 73.4556L1318.05 227.91 1252.38 193.456C1243.18 188.634 1231.79 192.184 1226.96 201.386 1222.14 210.584 1225.68 221.953 1234.88 226.788L1317.09 269.892C1321.72 272.333 1326.92 272.621 1331.53 271.147 1336.19 269.73 1340.27 266.539 1342.71 261.902L1385.28 180.751 1468.34 154.845C1478.25 151.754 1483.79 141.2 1480.7 131.286 1477.61 121.364 1467.05 115.831 1457.14 118.921L1409.99 133.626 1428.77 97.8361 1511.82 71.9342C1521.73 68.8438 1527.27 58.2897 1524.18 48.3754 1521.08 38.4535 1510.52 32.92 1500.62 36.0104L1410.16 64.2231C1410.14 64.2278 1410.14 64.2278 1410.13 64.2324Z" fill="#5E72E4" fill-rule="evenodd"/><path d="M1785.43-52.8175C1784.22-52.4416 1783.07-51.9395 1781.96-51.3297 1781.96-51.3297 1781.96-51.3297 1781.94-51.3251 1781.82-51.2602 1781.72-51.1538 1781.6-51.0812 1780.67-50.5471 1779.79-49.9607 1778.96-49.2712 1778.7-49.0552 1778.49-48.7792 1778.24-48.5402 1777.6-47.9418 1776.93-47.3541 1776.37-46.6464 1776.23-46.4676 1776.13-46.2518 1775.99-46.0653 1775.4-45.2821 1774.84-44.4805 1774.38-43.5943L1693.35 110.861 1627.69 76.4063C1618.48 71.5842 1607.1 75.134 1602.26 84.3365 1597.44 93.5344 1600.99 104.903 1610.18 109.738L1692.39 152.843C1697.02 155.284 1702.22 155.571 1706.84 154.097 1711.49 152.68 1715.57 149.49 1718.01 144.852L1760.58 63.7015 1843.65 37.795C1853.56 34.7046 1859.1 24.1504 1856 14.2361 1852.91 4.31416 1842.35-1.21925 1832.44 1.87115L1785.29 16.5761 1804.07-19.2138 1887.12-45.1156C1897.03-48.206 1902.57-58.7602 1899.48-68.6744 1896.39-78.5964 1885.83-84.1298 1875.92-81.0394L1785.46-52.8267C1785.44-52.8221 1785.44-52.8221 1785.43-52.8175Z" fill="#5E72E4" fill-rule="evenodd"/><path d="M2160.73-169.867C2159.53-169.491 2158.38-168.989 2157.26-168.379 2157.26-168.379 2157.26-168.379 2157.25-168.375 2157.12-168.31 2157.02-168.203 2156.9-168.131 2155.97-167.597 2155.09-167.01 2154.26-166.321 2154-166.105 2153.8-165.829 2153.54-165.59 2152.9-164.991 2152.23-164.404 2151.67-163.696 2151.53-163.517 2151.43-163.301 2151.3-163.115 2150.71-162.332 2150.14-161.53 2149.68-160.644L2068.65-6.18922 2002.99-40.6434C1993.78-45.4655 1982.4-41.9157 1977.56-32.7132 1972.74-23.5153 1976.29-12.1462 1985.49-7.31175L2067.69 35.7927C2072.32 38.2338 2077.52 38.521 2082.14 37.0471 2086.79 35.6302 2090.87 32.4397 2093.31 27.8022L2135.88-53.3483 2218.95-79.2547C2228.86-82.3451 2234.4-92.8993 2231.31-102.814 2228.21-112.736 2217.65-118.269 2207.75-115.179L2160.6-100.474 2179.38-136.263 2262.43-162.165C2272.33-165.256 2277.87-175.81 2274.78-185.724 2271.69-195.646 2261.13-201.179 2251.22-198.089L2160.76-169.876C2160.75-169.872 2160.75-169.872 2160.73-169.867Z" fill="#5E72E4" fill-rule="evenodd"/><path d="M602.213 578.196C601.008 578.572 599.858 579.074 598.742 579.684 598.742 579.684 598.742 579.684 598.727 579.689 598.601 579.754 598.503 579.86 598.379 579.933 597.452 580.467 596.574 581.053 595.744 581.743 595.485 581.959 595.277 582.235 595.025 582.474 594.379 583.072 593.713 583.66 593.15 584.367 593.01 584.546 592.914 584.762 592.777 584.948 592.188 585.732 591.622 586.533 591.164 587.419L510.136 741.874 444.471 707.42C435.262 702.598 423.88 706.148 419.044 715.35 414.224 724.548 417.769 735.917 426.967 740.752L509.173 783.856C513.803 786.297 519.003 786.585 523.62 785.111 528.272 783.694 532.354 780.503 534.793 775.866L577.365 694.715 660.43 668.809C670.339 665.718 675.88 655.164 672.788 645.25 669.693 635.328 659.135 629.795 649.226 632.885L602.077 647.59 620.856 611.8 703.906 585.898C713.815 582.808 719.356 572.254 716.263 562.339 713.169 552.417 702.611 546.884 692.702 549.974L602.243 578.187C602.228 578.192 602.228 578.192 602.213 578.196Z" fill="#5E72E4" fill-rule="evenodd"/><path d="M221.758 696.853C220.553 697.229 219.404 697.731 218.288 698.341 218.288 698.341 218.288 698.341 218.273 698.345 218.146 698.41 218.049 698.516 217.925 698.589 216.997 699.123 216.119 699.71 215.289 700.399 215.03 700.615 214.822 700.891 214.571 701.13 213.925 701.728 213.259 702.316 212.696 703.024 212.556 703.203 212.46 703.418 212.322 703.605 211.734 704.388 211.168 705.19 210.709 706.076L129.681 860.531 64.0168 826.077C54.8073 821.254 43.4254 824.804 38.5899 834.007 33.7693 843.205 37.3151 854.574 46.5121 859.408L128.718 902.513C133.349 904.954 138.548 905.241 143.166 903.767 147.817 902.35 151.9 899.16 154.339 894.522L196.911 813.372 279.976 787.465C289.885 784.375 295.425 773.821 292.333 763.906 289.239 753.984 278.681 748.451 268.772 751.541L221.623 766.246 240.401 730.456 323.452 704.555C333.361 701.464 338.901 690.91 335.809 680.996 332.715 671.074 322.157 665.54 312.248 668.631L221.788 696.843C221.773 696.848 221.773 696.848 221.758 696.853Z" fill="#5E72E4" fill-rule="evenodd"/><path d="M977.516 461.147C976.31 461.522 975.161 462.024 974.045 462.634 974.045 462.634 974.045 462.634 974.03 462.639 973.904 462.704 973.806 462.81 973.682 462.883 972.755 463.417 971.876 464.003 971.047 464.693 970.787 464.909 970.58 465.185 970.328 465.424 969.682 466.022 969.016 466.61 968.453 467.318 968.313 467.496 968.217 467.712 968.079 467.899 967.491 468.682 966.925 469.483 966.466 470.37L885.438 624.824 819.774 590.37C810.564 585.548 799.183 589.098 794.347 598.3 789.526 607.498 793.072 618.867 802.269 623.702L884.476 666.807C889.106 669.248 894.306 669.535 898.923 668.061 903.575 666.644 907.657 663.453 910.096 658.816L952.668 577.665 1035.73 551.759C1045.64 548.669 1051.18 538.114 1048.09 528.2 1045 518.278 1034.44 512.745 1024.53 515.835L977.38 530.54 996.159 494.75 1079.21 468.848C1089.12 465.758 1094.66 455.204 1091.57 445.29 1088.47 435.368 1077.91 429.834 1068.01 432.925L977.545 461.137C977.53 461.142 977.53 461.142 977.516 461.147Z" fill="#5E72E4" fill-rule="evenodd"/><path d="M1352.82 344.097C1351.61 344.473 1350.46 344.975 1349.35 345.585 1349.35 345.585 1349.35 345.585 1349.33 345.589 1349.21 345.654 1349.11 345.76 1348.98 345.833 1348.06 346.367 1347.18 346.954 1346.35 347.643 1346.09 347.859 1345.88 348.135 1345.63 348.374 1344.98 348.972 1344.32 349.56 1343.76 350.268 1343.62 350.447 1343.52 350.662 1343.38 350.849 1342.79 351.632 1342.23 352.434 1341.77 353.32L1260.74 507.775 1195.08 473.321C1185.87 468.498 1174.49 472.048 1169.65 481.251 1164.83 490.449 1168.37 501.818 1177.57 506.652L1259.78 549.757C1264.41 552.198 1269.61 552.485 1274.23 551.011 1278.88 549.594 1282.96 546.404 1285.4 541.766L1327.97 460.616 1411.04 434.709C1420.94 431.619 1426.48 421.065 1423.39 411.15 1420.3 401.228 1409.74 395.695 1399.83 398.785L1352.68 413.49 1371.46 377.7 1454.51 351.799C1464.42 348.708 1469.96 338.154 1466.87 328.24 1463.77 318.318 1453.22 312.784 1443.31 315.875L1352.85 344.087C1352.83 344.092 1352.83 344.092 1352.82 344.097Z" fill="#5E72E4" fill-rule="evenodd"/><path d="M1728.12 227.047C1726.92 227.423 1725.77 227.925 1724.65 228.535 1724.65 228.535 1724.65 228.535 1724.64 228.539 1724.51 228.604 1724.41 228.711 1724.29 228.783 1723.36 229.317 1722.48 229.904 1721.65 230.593 1721.39 230.809 1721.19 231.085 1720.93 231.324 1720.29 231.923 1719.62 232.51 1719.06 233.218 1718.92 233.397 1718.82 233.613 1718.69 233.799 1718.1 234.582 1717.53 235.384 1717.07 236.27L1636.04 390.725 1570.38 356.271C1561.17 351.449 1549.79 354.998 1544.95 364.201 1540.13 373.399 1543.68 384.768 1552.88 389.602L1635.08 432.707C1639.71 435.148 1644.91 435.435 1649.53 433.961 1654.18 432.544 1658.26 429.354 1660.7 424.716L1703.27 343.566 1786.34 317.659C1796.25 314.569 1801.79 304.015 1798.7 294.101 1795.6 284.179 1785.04 278.645 1775.13 281.736L1727.99 296.441 1746.76 260.651 1829.81 234.749C1839.72 231.658 1845.26 221.104 1842.17 211.19 1839.08 201.268 1828.52 195.735 1818.61 198.825L1728.15 227.038C1728.14 227.042 1728.14 227.042 1728.12 227.047Z" fill="#5E72E4" fill-rule="evenodd"/><path d="M2103.42 109.997C2102.22 110.373 2101.07 110.875 2099.95 111.485 2099.95 111.485 2099.95 111.485 2099.94 111.49 2099.81 111.555 2099.71 111.661 2099.59 111.733 2098.66 112.268 2097.78 112.854 2096.95 113.544 2096.7 113.759 2096.49 114.035 2096.24 114.275 2095.59 114.873 2094.92 115.461 2094.36 116.168 2094.22 116.347 2094.13 116.563 2093.99 116.749 2093.4 117.533 2092.83 118.334 2092.37 119.22L2011.35 273.675 1945.68 239.221C1936.47 234.399 1925.09 237.949 1920.26 247.151 1915.43 256.349 1918.98 267.718 1928.18 272.553L2010.38 315.657C2015.01 318.098 2020.21 318.385 2024.83 316.912 2029.48 315.495 2033.57 312.304 2036 307.667L2078.58 226.516 2161.64 200.61C2171.55 197.519 2177.09 186.965 2174 177.051 2170.9 167.129 2160.35 161.595 2150.44 164.686L2103.29 179.391 2122.07 143.601 2205.12 117.699C2215.03 114.609 2220.57 104.055 2217.47 94.1403 2214.38 84.2183 2203.82 78.6849 2193.91 81.7753L2103.45 109.988C2103.44 109.993 2103.44 109.993 2103.42 109.997Z" fill="#5E72E4" fill-rule="evenodd"/><path d="M2478.73-7.05253C2477.52-6.67667 2476.37-6.17459 2475.26-5.56475 2475.26-5.56475 2475.26-5.56475 2475.24-5.56012 2475.11-5.49526 2475.02-5.38886 2474.89-5.31631 2473.97-4.78219 2473.09-4.19577 2472.26-3.50623 2472-3.29026 2471.79-3.01431 2471.54-2.77525 2470.89-2.17682 2470.23-1.58914 2469.66-0.881474 2469.52-0.702633 2469.43-0.486881 2469.29-0.300343 2468.7 0.482826 2468.14 1.28445 2467.68 2.17063L2386.65 156.625 2320.98 122.171C2311.78 117.349 2300.39 120.899 2295.56 130.101 2290.74 139.299 2294.28 150.668 2303.48 155.503L2385.69 198.607C2390.32 201.049 2395.52 201.336 2400.13 199.862 2404.79 198.445 2408.87 195.254 2411.31 190.617L2453.88 109.466 2536.94 83.5599C2546.85 80.4695 2552.39 69.9153 2549.3 60.0011 2546.21 50.0791 2535.65 44.5457 2525.74 47.6361L2478.59 62.341 2497.37 26.5512 2580.42 0.649326C2590.33-2.44107 2595.87-12.9952 2592.78-22.9095 2589.68-32.8315 2579.13-38.3649 2569.22-35.2745L2478.76-7.06181C2478.74-7.05717 2478.74-7.05717 2478.73-7.05253Z" fill="#5E72E4" fill-rule="evenodd"/><path d="M808.454 775.865C807.249 776.241 806.1 776.743 804.984 777.352 804.984 777.352 804.984 777.352 804.969 777.357 804.842 777.422 804.745 777.528 804.62 777.601 803.693 778.135 802.815 778.721 801.985 779.411 801.726 779.627 801.518 779.903 801.266 780.142 800.62 780.74 799.955 781.328 799.392 782.036 799.252 782.215 799.156 782.43 799.018 782.617 798.43 783.4 797.863 784.202 797.405 785.088L716.377 939.543 650.713 905.089C641.503 900.266 630.121 903.816 625.286 913.019 620.465 922.217 624.011 933.586 633.208 938.42L715.414 981.525C720.045 983.966 725.244 984.253 729.862 982.779 734.513 981.362 738.595 978.172 741.035 973.534L783.606 892.384 866.672 866.477C876.581 863.387 882.121 852.833 879.029 842.918 875.934 832.996 865.377 827.463 855.468 830.553L808.319 845.258 827.097 809.468 910.148 783.567C920.057 780.476 925.597 769.922 922.505 760.008 919.41 750.086 908.853 744.552 898.944 747.643L808.484 775.855C808.469 775.86 808.469 775.86 808.454 775.865Z" fill="#5E72E4" fill-rule="evenodd"/><path d="M428 894.521C426.795 894.897 425.645 895.399 424.529 896.009 424.529 896.009 424.529 896.009 424.514 896.014 424.388 896.078 424.29 896.185 424.166 896.257 423.239 896.792 422.361 897.378 421.531 898.067 421.272 898.283 421.064 898.559 420.812 898.798 420.166 899.397 419.5 899.985 418.937 900.692 418.797 900.871 418.701 901.087 418.564 901.273 417.975 902.057 417.409 902.858 416.951 903.744L335.923 1058.2 270.258 1023.74C261.049 1018.92 249.667 1022.47 244.831 1031.68 240.011 1040.87 243.556 1052.24 252.754 1057.08L334.96 1100.18C339.59 1102.62 344.79 1102.91 349.407 1101.44 354.059 1100.02 358.141 1096.83 360.58 1092.19L403.152 1011.04 486.217 985.134C496.126 982.043 501.667 971.489 498.575 961.575 495.48 951.653 484.922 946.119 475.013 949.21L427.864 963.915 446.643 928.125 529.693 902.223C539.602 899.133 545.143 888.578 542.05 878.664 538.956 868.742 528.398 863.209 518.489 866.299L428.03 894.512C428.015 894.516 428.015 894.516 428 894.521Z" fill="#5E72E4" fill-rule="evenodd"/><path d="M52.5293 1011.62C51.3242 1012 50.1747 1012.5 49.0589 1013.11 49.0589 1013.11 49.0589 1013.11 49.044 1013.12 48.9173 1013.18 48.8199 1013.29 48.6956 1013.36 47.7684 1013.89 46.8901 1014.48 46.0603 1015.17 45.8012 1015.39 45.5934 1015.66 45.3414 1015.9 44.6955 1016.5 44.0298 1017.09 43.4669 1017.79 43.3268 1017.97 43.2308 1018.19 43.0931 1018.38 42.5048 1019.16 41.9385 1019.96 41.4802 1020.85L-39.5478 1175.3-105.212 1140.85C-114.422 1136.02-125.804 1139.57-130.639 1148.78-135.46 1157.98-131.914 1169.34-122.717 1174.18L-40.5107 1217.28C-35.8802 1219.72-30.6807 1220.01-26.0632 1218.54-21.4116 1217.12-17.3294 1213.93-14.8903 1209.29L27.6816 1128.14 110.747 1102.24C120.656 1099.15 126.196 1088.59 123.104 1078.68 120.01 1068.75 109.452 1063.22 99.5429 1066.31L52.3937 1081.02 71.1724 1045.23 154.223 1019.33C164.132 1016.23 169.672 1005.68 166.58 995.766 163.486 985.844 152.928 980.311 143.019 983.401L52.5591 1011.61C52.5442 1011.62 52.5442 1011.62 52.5293 1011.62Z" fill="#5E72E4" fill-rule="evenodd"/><path d="M1183.76 658.815C1182.55 659.191 1181.4 659.693 1180.29 660.303 1180.29 660.303 1180.29 660.303 1180.27 660.307 1180.14 660.372 1180.05 660.479 1179.92 660.551 1179 661.085 1178.12 661.672 1177.29 662.361 1177.03 662.577 1176.82 662.853 1176.57 663.092 1175.92 663.691 1175.26 664.278 1174.69 664.986 1174.55 665.165 1174.46 665.381 1174.32 665.567 1173.73 666.35 1173.17 667.152 1172.71 668.038L1091.68 822.493 1026.02 788.039C1016.81 783.217 1005.42 786.766 1000.59 795.969 995.768 805.167 999.314 816.536 1008.51 821.37L1090.72 864.475C1095.35 866.916 1100.55 867.203 1105.16 865.729 1109.82 864.312 1113.9 861.122 1116.34 856.484L1158.91 775.334 1241.97 749.427C1251.88 746.337 1257.42 735.783 1254.33 725.869 1251.24 715.947 1240.68 710.413 1230.77 713.504L1183.62 728.208 1202.4 692.419 1285.45 666.517C1295.36 663.426 1300.9 652.872 1297.81 642.958 1294.71 633.036 1284.16 627.503 1274.25 630.593L1183.79 658.806C1183.77 658.81 1183.77 658.81 1183.76 658.815Z" fill="#5E72E4" fill-rule="evenodd"/><path d="M1559.06 541.765C1557.85 542.141 1556.71 542.643 1555.59 543.253 1555.59 543.253 1555.59 543.253 1555.57 543.258 1555.45 543.323 1555.35 543.429 1555.23 543.501 1554.3 544.036 1553.42 544.622 1552.59 545.312 1552.33 545.527 1552.12 545.803 1551.87 546.042 1551.23 546.641 1550.56 547.229 1550 547.936 1549.86 548.115 1549.76 548.331 1549.62 548.517 1549.04 549.301 1548.47 550.102 1548.01 550.988L1466.98 705.443 1401.32 670.989C1392.11 666.167 1380.73 669.717 1375.89 678.919 1371.07 688.117 1374.62 699.486 1383.81 704.321L1466.02 747.425C1470.65 749.866 1475.85 750.154 1480.47 748.68 1485.12 747.263 1489.2 744.072 1491.64 739.435L1534.21 658.284 1617.28 632.378C1627.19 629.287 1632.73 618.733 1629.63 608.819 1626.54 598.897 1615.98 593.363 1606.07 596.454L1558.92 611.159 1577.7 575.369 1660.75 549.467C1670.66 546.377 1676.2 535.823 1673.11 525.908 1670.02 515.986 1659.46 510.453 1649.55 513.543L1559.09 541.756C1559.07 541.761 1559.07 541.761 1559.06 541.765Z" fill="#5E72E4" fill-rule="evenodd"/><path d="M1934.36 424.715C1933.16 425.091 1932.01 425.593 1930.89 426.203 1930.89 426.203 1930.89 426.203 1930.88 426.208 1930.75 426.273 1930.65 426.379 1930.53 426.452 1929.6 426.986 1928.72 427.572 1927.89 428.262 1927.63 428.478 1927.43 428.754 1927.17 428.993 1926.53 429.591 1925.86 430.179 1925.3 430.887 1925.16 431.065 1925.06 431.281 1924.93 431.468 1924.34 432.251 1923.77 433.052 1923.31 433.939L1842.29 588.393 1776.62 553.939C1767.41 549.117 1756.03 552.667 1751.19 561.869 1746.37 571.067 1749.92 582.436 1759.12 587.271L1841.32 630.375C1845.95 632.816 1851.15 633.104 1855.77 631.63 1860.42 630.213 1864.5 627.022 1866.94 622.385L1909.51 541.234 1992.58 515.328C2002.49 512.237 2008.03 501.683 2004.94 491.769 2001.84 481.847 1991.29 476.314 1981.38 479.404L1934.23 494.109 1953.01 458.319 2036.06 432.417C2045.96 429.327 2051.51 418.773 2048.41 408.858 2045.32 398.936 2034.76 393.403 2024.85 396.493L1934.39 424.706C1934.38 424.711 1934.38 424.711 1934.36 424.715Z" fill="#5E72E4" fill-rule="evenodd"/><path d="M2309.67 307.666C2308.46 308.042 2307.31 308.544 2306.19 309.153 2306.19 309.153 2306.19 309.153 2306.18 309.158 2306.05 309.223 2305.96 309.329 2305.83 309.402 2304.9 309.936 2304.03 310.522 2303.2 311.212 2302.94 311.428 2302.73 311.704 2302.48 311.943 2301.83 312.541 2301.17 313.129 2300.6 313.837 2300.46 314.016 2300.37 314.231 2300.23 314.418 2299.64 315.201 2299.07 316.003 2298.62 316.889L2217.59 471.344 2151.92 436.889C2142.71 432.067 2131.33 435.617 2126.5 444.82 2121.68 454.018 2125.22 465.387 2134.42 470.221L2216.63 513.326C2221.26 515.767 2226.46 516.054 2231.07 514.58 2235.72 513.163 2239.81 509.973 2242.25 505.335L2284.82 424.185 2367.88 398.278C2377.79 395.188 2383.33 384.634 2380.24 374.719 2377.15 364.797 2366.59 359.264 2356.68 362.354L2309.53 377.059 2328.31 341.269 2411.36 315.368C2421.27 312.277 2426.81 301.723 2423.72 291.809 2420.62 281.887 2410.06 276.353 2400.15 279.444L2309.7 307.656C2309.68 307.661 2309.68 307.661 2309.67 307.666Z" fill="#5E72E4" fill-rule="evenodd"/><path d="M2684.97 190.616C2683.76 190.992 2682.61 191.494 2681.5 192.104 2681.5 192.104 2681.5 192.104 2681.48 192.108 2681.36 192.173 2681.26 192.28 2681.13 192.352 2680.21 192.886 2679.33 193.473 2678.5 194.162 2678.24 194.378 2678.03 194.654 2677.78 194.893 2677.13 195.492 2676.47 196.079 2675.91 196.787 2675.77 196.966 2675.67 197.182 2675.53 197.368 2674.94 198.151 2674.38 198.953 2673.92 199.839L2592.89 354.294 2527.23 319.84C2518.02 315.018 2506.64 318.567 2501.8 327.77 2496.98 336.968 2500.52 348.337 2509.72 353.171L2591.93 396.276C2596.56 398.717 2601.76 399.004 2606.38 397.53 2611.03 396.113 2615.11 392.923 2617.55 388.285L2660.12 307.135 2743.19 281.228C2753.09 278.138 2758.63 267.584 2755.54 257.67 2752.45 247.748 2741.89 242.214 2731.98 245.305L2684.83 260.009 2703.61 224.22 2786.66 198.318C2796.57 195.227 2802.11 184.673 2799.02 174.759 2795.92 164.837 2785.37 159.304 2775.46 162.394L2685 190.607C2684.98 190.611 2684.98 190.611 2684.97 190.616Z" fill="#5E72E4" fill-rule="evenodd"/><path d="M751.146 1055.73C749.941 1056.1 748.792 1056.61 747.676 1057.22 747.676 1057.22 747.676 1057.22 747.661 1057.22 747.534 1057.29 747.437 1057.39 747.313 1057.47 746.385 1058 745.507 1058.59 744.677 1059.28 744.418 1059.49 744.21 1059.77 743.958 1060.01 743.312 1060.6 742.647 1061.19 742.084 1061.9 741.944 1062.08 741.848 1062.29 741.71 1062.48 741.122 1063.26 740.555 1064.07 740.097 1064.95L659.069 1219.41 593.405 1184.95C584.195 1180.13 572.813 1183.68 567.978 1192.88 563.157 1202.08 566.703 1213.45 575.9 1218.28L658.106 1261.39C662.737 1263.83 667.936 1264.12 672.554 1262.64 677.205 1261.23 681.287 1258.04 683.727 1253.4L726.298 1172.25 809.364 1146.34C819.273 1143.25 824.813 1132.7 821.721 1122.78 818.627 1112.86 808.069 1107.33 798.16 1110.42L751.011 1125.12 769.789 1089.33 852.84 1063.43C862.749 1060.34 868.289 1049.79 865.197 1039.87 862.102 1029.95 851.545 1024.42 841.636 1027.51L751.176 1055.72C751.161 1055.72 751.161 1055.72 751.146 1055.73Z" fill="#5E72E4" fill-rule="evenodd"/><path d="M370.692 1174.39C369.487 1174.76 368.337 1175.26 367.221 1175.87 367.221 1175.87 367.221 1175.87 367.207 1175.88 367.08 1175.94 366.982 1176.05 366.858 1176.12 365.931 1176.66 365.053 1177.24 364.223 1177.93 363.964 1178.15 363.756 1178.42 363.504 1178.66 362.858 1179.26 362.192 1179.85 361.629 1180.56 361.489 1180.74 361.393 1180.95 361.256 1181.14 360.667 1181.92 360.101 1182.72 359.643 1183.61L278.615 1338.06 212.95 1303.61C203.741 1298.79 192.359 1302.34 187.523 1311.54 182.703 1320.74 186.249 1332.11 195.446 1336.94L277.652 1380.05C282.282 1382.49 287.482 1382.77 292.099 1381.3 296.751 1379.88 300.833 1376.69 303.272 1372.06L345.844 1290.9 428.909 1265C438.818 1261.91 444.359 1251.35 441.267 1241.44 438.172 1231.52 427.614 1225.98 417.705 1229.07L370.556 1243.78 389.335 1207.99 472.385 1182.09C482.294 1179 487.835 1168.44 484.743 1158.53 481.648 1148.61 471.09 1143.07 461.181 1146.16L370.722 1174.38C370.707 1174.38 370.707 1174.38 370.692 1174.39Z" fill="#5E72E4" fill-rule="evenodd"/><path d="M-4.77869 1291.49C-5.98384 1291.86-7.13329 1292.37-8.24913 1292.98-8.24913 1292.98-8.24913 1292.98-8.26401 1292.98-8.3907 1293.04-8.48813 1293.15-8.61243 1293.22-9.53966 1293.76-10.4179 1294.34-11.2477 1295.03-11.5068 1295.25-11.7146 1295.53-11.9666 1295.77-12.6125 1296.36-13.2782 1296.95-13.8411 1297.66-13.9812 1297.84-14.0772 1298.05-14.2149 1298.24-14.8033 1299.02-15.3695 1299.82-15.8278 1300.71L-96.8559 1455.17-162.52 1420.71C-171.73 1415.89-183.112 1419.44-187.947 1428.64-192.768 1437.84-189.222 1449.21-180.025 1454.04L-97.8187 1497.15C-93.1882 1499.59-87.9888 1499.88-83.3713 1498.4-78.7197 1496.98-74.6375 1493.79-72.1983 1489.16L-29.6264 1408.01 53.4388 1382.1C63.3477 1379.01 68.8881 1368.46 65.796 1358.54 62.7016 1348.62 52.1438 1343.09 42.2348 1346.18L-4.91432 1360.88 13.8644 1325.09 96.9147 1299.19C106.824 1296.1 112.364 1285.54 109.272 1275.63 106.178 1265.71 95.6197 1260.18 85.7108 1263.27L-4.74895 1291.48C-4.76382 1291.48-4.76382 1291.48-4.77869 1291.49Z" fill="#5E72E4" fill-rule="evenodd"/><path d="M1126.45 938.679C1125.24 939.055 1124.09 939.557 1122.98 940.167 1122.98 940.167 1122.98 940.167 1122.96 940.172 1122.84 940.237 1122.74 940.343 1122.62 940.416 1121.69 940.95 1120.81 941.536 1119.98 942.226 1119.72 942.442 1119.51 942.718 1119.26 942.957 1118.62 943.555 1117.95 944.143 1117.39 944.85 1117.25 945.029 1117.15 945.245 1117.01 945.432 1116.42 946.215 1115.86 947.016 1115.4 947.903L1034.37 1102.36 968.707 1067.9C959.498 1063.08 948.116 1066.63 943.28 1075.83 938.46 1085.03 942.006 1096.4 951.203 1101.23L1033.41 1144.34C1038.04 1146.78 1043.24 1147.07 1047.86 1145.59 1052.51 1144.18 1056.59 1140.99 1059.03 1136.35L1101.6 1055.2 1184.67 1029.29C1194.58 1026.2 1200.12 1015.65 1197.02 1005.73 1193.93 995.811 1183.37 990.278 1173.46 993.368L1126.31 1008.07 1145.09 972.283 1228.14 946.381C1238.05 943.291 1243.59 932.737 1240.5 922.822 1237.41 912.9 1226.85 907.367 1216.94 910.457L1126.48 938.67C1126.46 938.675 1126.46 938.675 1126.45 938.679Z" fill="#5E72E4" fill-rule="evenodd"/><path d="M1501.75 821.63C1500.55 822.005 1499.4 822.508 1498.28 823.117 1498.28 823.117 1498.28 823.117 1498.27 823.122 1498.14 823.187 1498.04 823.293 1497.92 823.366 1496.99 823.9 1496.11 824.486 1495.28 825.176 1495.02 825.392 1494.82 825.668 1494.56 825.907 1493.92 826.505 1493.25 827.093 1492.69 827.801 1492.55 827.98 1492.45 828.195 1492.32 828.382 1491.73 829.165 1491.16 829.967 1490.7 830.853L1409.67 985.308 1344.01 950.853C1334.8 946.031 1323.42 949.581 1318.58 958.784 1313.76 967.982 1317.31 979.351 1326.51 984.185L1408.71 1027.29C1413.34 1029.73 1418.54 1030.02 1423.16 1028.54 1427.81 1027.13 1431.89 1023.94 1434.33 1019.3L1476.9 938.149 1559.97 912.242C1569.88 909.152 1575.42 898.597 1572.33 888.683 1569.23 878.761 1558.67 873.228 1548.77 876.318L1501.62 891.023 1520.39 855.233 1603.45 829.331C1613.35 826.241 1618.89 815.687 1615.8 805.773 1612.71 795.851 1602.15 790.317 1592.24 793.408L1501.78 821.62C1501.77 821.625 1501.77 821.625 1501.75 821.63Z" fill="#5E72E4" fill-rule="evenodd"/><path d="M1877.05 704.58C1875.85 704.956 1874.7 705.458 1873.58 706.068 1873.58 706.068 1873.58 706.068 1873.57 706.072 1873.44 706.137 1873.35 706.243 1873.22 706.316 1872.29 706.85 1871.42 707.437 1870.59 708.126 1870.33 708.342 1870.12 708.618 1869.87 708.857 1869.22 709.456 1868.56 710.043 1867.99 710.751 1867.85 710.93 1867.76 711.145 1867.62 711.332 1867.03 712.115 1866.46 712.917 1866.01 713.803L1784.98 868.258 1719.31 833.804C1710.1 828.981 1698.72 832.531 1693.89 841.734 1689.07 850.932 1692.61 862.301 1701.81 867.135L1784.01 910.24C1788.65 912.681 1793.84 912.968 1798.46 911.494 1803.11 910.077 1807.2 906.887 1809.63 902.249L1852.21 821.099 1935.27 795.192C1945.18 792.102 1950.72 781.548 1947.63 771.633 1944.53 761.711 1933.98 756.178 1924.07 759.268L1876.92 773.973 1895.7 738.183 1978.75 712.282C1988.66 709.191 1994.2 698.637 1991.11 688.723 1988.01 678.801 1977.45 673.267 1967.54 676.358L1877.08 704.57C1877.07 704.575 1877.07 704.575 1877.05 704.58Z" fill="#5E72E4" fill-rule="evenodd"/><path d="M2252.36 587.53C2251.15 587.906 2250 588.408 2248.89 589.018 2248.89 589.018 2248.89 589.018 2248.87 589.023 2248.75 589.087 2248.65 589.194 2248.52 589.266 2247.6 589.8 2246.72 590.387 2245.89 591.076 2245.63 591.292 2245.42 591.568 2245.17 591.807 2244.52 592.406 2243.86 592.994 2243.29 593.701 2243.15 593.88 2243.06 594.096 2242.92 594.282 2242.33 595.065 2241.77 595.867 2241.31 596.753L2160.28 751.208 2094.62 716.754C2085.41 711.932 2074.02 715.482 2069.19 724.684 2064.37 733.882 2067.91 745.251 2077.11 750.086L2159.32 793.19C2163.95 795.631 2169.15 795.918 2173.76 794.444 2178.42 793.027 2182.5 789.837 2184.94 785.199L2227.51 704.049 2310.57 678.143C2320.48 675.052 2326.02 664.498 2322.93 654.584 2319.84 644.662 2309.28 639.128 2299.37 642.219L2252.22 656.924 2271 621.134 2354.05 595.232C2363.96 592.142 2369.5 581.587 2366.41 571.673 2363.31 561.751 2352.76 556.218 2342.85 559.308L2252.39 587.521C2252.37 587.525 2252.37 587.525 2252.36 587.53Z" fill="#5E72E4" fill-rule="evenodd"/><path d="M2627.66 470.48C2626.46 470.856 2625.31 471.358 2624.19 471.968 2624.19 471.968 2624.19 471.968 2624.17 471.973 2624.05 472.038 2623.95 472.144 2623.83 472.217 2622.9 472.751 2622.02 473.337 2621.19 474.027 2620.93 474.243 2620.72 474.519 2620.47 474.758 2619.83 475.356 2619.16 475.944 2618.6 476.651 2618.46 476.83 2618.36 477.046 2618.22 477.233 2617.64 478.016 2617.07 478.817 2616.61 479.704L2535.58 634.158 2469.92 599.704C2460.71 594.882 2449.33 598.432 2444.49 607.634 2439.67 616.832 2443.22 628.201 2452.41 633.036L2534.62 676.14C2539.25 678.581 2544.45 678.869 2549.07 677.395 2553.72 675.978 2557.8 672.787 2560.24 668.15L2602.81 586.999 2685.88 561.093C2695.79 558.002 2701.33 547.448 2698.23 537.534 2695.14 527.612 2684.58 522.079 2674.67 525.169L2627.52 539.874 2646.3 504.084 2729.35 478.182C2739.26 475.092 2744.8 464.538 2741.71 454.623 2738.62 444.701 2728.06 439.168 2718.15 442.258L2627.69 470.471C2627.68 470.476 2627.68 470.476 2627.66 470.48Z" fill="#5E72E4" fill-rule="evenodd"/><path d="M957.387 1253.4C956.182 1253.77 955.033 1254.28 953.917 1254.89 953.917 1254.89 953.917 1254.89 953.902 1254.89 953.775 1254.95 953.678 1255.06 953.554 1255.13 952.626 1255.67 951.748 1256.25 950.918 1256.94 950.659 1257.16 950.451 1257.44 950.199 1257.67 949.553 1258.27 948.888 1258.86 948.325 1259.57 948.185 1259.75 948.089 1259.96 947.951 1260.15 947.363 1260.93 946.796 1261.73 946.338 1262.62L865.31 1417.08 799.646 1382.62C790.436 1377.8 779.054 1381.35 774.219 1390.55 769.398 1399.75 772.944 1411.12 782.141 1415.95L864.347 1459.06C868.978 1461.5 874.177 1461.79 878.795 1460.31 883.446 1458.89 887.529 1455.7 889.968 1451.07L932.54 1369.92 1015.6 1344.01C1025.51 1340.92 1031.05 1330.37 1027.96 1320.45 1024.87 1310.53 1014.31 1305 1004.4 1308.09L957.252 1322.79 976.03 1287 1059.08 1261.1C1068.99 1258.01 1074.53 1247.45 1071.44 1237.54 1068.34 1227.62 1057.79 1222.09 1047.88 1225.18L957.417 1253.39C957.402 1253.39 957.402 1253.39 957.387 1253.4Z" fill="#5E72E4" fill-rule="evenodd"/><path d="M576.933 1372.05C575.728 1372.43 574.578 1372.93 573.462 1373.54 573.462 1373.54 573.462 1373.54 573.448 1373.55 573.321 1373.61 573.223 1373.72 573.099 1373.79 572.172 1374.32 571.294 1374.91 570.464 1375.6 570.205 1375.82 569.997 1376.09 569.745 1376.33 569.099 1376.93 568.433 1377.52 567.87 1378.23 567.73 1378.4 567.634 1378.62 567.497 1378.81 566.908 1379.59 566.342 1380.39 565.884 1381.28L484.856 1535.73 419.191 1501.28C409.982 1496.46 398.6 1500.01 393.764 1509.21 388.944 1518.41 392.49 1529.77 401.687 1534.61L483.893 1577.71C488.523 1580.16 493.723 1580.44 498.34 1578.97 502.992 1577.55 507.074 1574.36 509.513 1569.72L552.085 1488.57 635.15 1462.67C645.059 1459.58 650.6 1449.02 647.508 1439.11 644.413 1429.19 633.855 1423.65 623.946 1426.74L576.797 1441.45 595.576 1405.66 678.626 1379.76C688.535 1376.67 694.076 1366.11 690.984 1356.2 687.889 1346.28 677.331 1340.74 667.422 1343.83L576.963 1372.04C576.948 1372.05 576.948 1372.05 576.933 1372.05Z" fill="#5E72E4" fill-rule="evenodd"/><path d="M1332.69 1136.35C1331.48 1136.72 1330.34 1137.23 1329.22 1137.84 1329.22 1137.84 1329.22 1137.84 1329.2 1137.84 1329.08 1137.91 1328.98 1138.01 1328.86 1138.08 1327.93 1138.62 1327.05 1139.2 1326.22 1139.89 1325.96 1140.11 1325.75 1140.39 1325.5 1140.63 1324.86 1141.22 1324.19 1141.81 1323.63 1142.52 1323.49 1142.7 1323.39 1142.91 1323.25 1143.1 1322.67 1143.88 1322.1 1144.68 1321.64 1145.57L1240.61 1300.03 1174.95 1265.57C1165.74 1260.75 1154.36 1264.3 1149.52 1273.5 1144.7 1282.7 1148.25 1294.07 1157.44 1298.9L1239.65 1342.01C1244.28 1344.45 1249.48 1344.74 1254.1 1343.26 1258.75 1341.85 1262.83 1338.65 1265.27 1334.02L1307.84 1252.87 1390.91 1226.96C1400.82 1223.87 1406.36 1213.32 1403.26 1203.4 1400.17 1193.48 1389.61 1187.95 1379.7 1191.04L1332.55 1205.74 1351.33 1169.95 1434.38 1144.05C1444.29 1140.96 1449.83 1130.41 1446.74 1120.49 1443.65 1110.57 1433.09 1105.04 1423.18 1108.13L1332.72 1136.34C1332.7 1136.34 1332.7 1136.34 1332.69 1136.35Z" fill="#5E72E4" fill-rule="evenodd"/><path d="M1707.99 1019.3C1706.79 1019.67 1705.64 1020.18 1704.52 1020.79 1704.52 1020.79 1704.52 1020.79 1704.51 1020.79 1704.38 1020.86 1704.28 1020.96 1704.16 1021.03 1703.23 1021.57 1702.35 1022.15 1701.52 1022.84 1701.26 1023.06 1701.06 1023.34 1700.8 1023.58 1700.16 1024.17 1699.49 1024.76 1698.93 1025.47 1698.79 1025.65 1698.69 1025.86 1698.56 1026.05 1697.97 1026.83 1697.4 1027.64 1696.94 1028.52L1615.92 1182.98 1550.25 1148.52C1541.04 1143.7 1529.66 1147.25 1524.82 1156.45 1520 1165.65 1523.55 1177.02 1532.75 1181.85L1614.95 1224.96C1619.58 1227.4 1624.78 1227.69 1629.4 1226.21 1634.05 1224.8 1638.13 1221.6 1640.57 1216.97L1683.15 1135.82 1766.21 1109.91C1776.12 1106.82 1781.66 1096.27 1778.57 1086.35 1775.47 1076.43 1764.92 1070.9 1755.01 1073.99L1707.86 1088.69 1726.64 1052.9 1809.69 1027C1819.6 1023.91 1825.14 1013.36 1822.04 1003.44 1818.95 993.519 1808.39 987.986 1798.48 991.076L1708.02 1019.29C1708.01 1019.29 1708.01 1019.29 1707.99 1019.3Z" fill="#5E72E4" fill-rule="evenodd"/><path d="M2083.3 902.248C2082.09 902.624 2080.94 903.126 2079.83 903.736 2079.83 903.736 2079.83 903.736 2079.81 903.741 2079.68 903.805 2079.59 903.912 2079.46 903.984 2078.53 904.518 2077.66 905.105 2076.83 905.794 2076.57 906.01 2076.36 906.286 2076.11 906.525 2075.46 907.124 2074.8 907.712 2074.23 908.419 2074.09 908.598 2074 908.814 2073.86 909 2073.27 909.784 2072.7 910.585 2072.25 911.471L1991.22 1065.93 1925.55 1031.47C1916.34 1026.65 1904.96 1030.2 1900.13 1039.4 1895.31 1048.6 1898.85 1059.97 1908.05 1064.8L1990.26 1107.91C1994.89 1110.35 2000.09 1110.64 2004.7 1109.16 2009.35 1107.75 2013.44 1104.56 2015.88 1099.92L2058.45 1018.77 2141.51 992.861C2151.42 989.77 2156.96 979.216 2153.87 969.302 2150.78 959.38 2140.22 953.846 2130.31 956.937L2083.16 971.642 2101.94 935.852 2184.99 909.95C2194.9 906.86 2200.44 896.305 2197.35 886.391 2194.25 876.469 2183.69 870.936 2173.79 874.026L2083.33 902.239C2083.31 902.243 2083.31 902.243 2083.3 902.248Z" fill="#5E72E4" fill-rule="evenodd"/><path d="M2458.6 785.198C2457.39 785.574 2456.24 786.076 2455.13 786.686 2455.13 786.686 2455.13 786.686 2455.11 786.691 2454.99 786.756 2454.89 786.862 2454.76 786.935 2453.84 787.469 2452.96 788.055 2452.13 788.745 2451.87 788.961 2451.66 789.237 2451.41 789.476 2450.76 790.074 2450.1 790.662 2449.54 791.37 2449.4 791.548 2449.3 791.764 2449.16 791.951 2448.57 792.734 2448.01 793.535 2447.55 794.422L2366.52 948.876 2300.86 914.422C2291.65 909.6 2280.27 913.15 2275.43 922.352 2270.61 931.55 2274.16 942.919 2283.35 947.754L2365.56 990.858C2370.19 993.299 2375.39 993.587 2380.01 992.113 2384.66 990.696 2388.74 987.505 2391.18 982.868L2433.75 901.717 2516.82 875.811C2526.73 872.721 2532.27 862.166 2529.17 852.252 2526.08 842.33 2515.52 836.797 2505.61 839.887L2458.46 854.592 2477.24 818.802 2560.29 792.9C2570.2 789.81 2575.74 779.256 2572.65 769.342 2569.55 759.42 2559 753.886 2549.09 756.977L2458.63 785.189C2458.61 785.194 2458.61 785.194 2458.6 785.198Z" fill="#5E72E4" fill-rule="evenodd"/><path d="M1275.38 1416.21C1274.18 1416.59 1273.03 1417.09 1271.91 1417.7 1271.91 1417.7 1271.91 1417.7 1271.9 1417.7 1271.77 1417.77 1271.67 1417.88 1271.55 1417.95 1270.62 1418.48 1269.74 1419.07 1268.91 1419.76 1268.65 1419.97 1268.45 1420.25 1268.19 1420.49 1267.55 1421.09 1266.88 1421.68 1266.32 1422.38 1266.18 1422.56 1266.08 1422.78 1265.95 1422.96 1265.36 1423.75 1264.79 1424.55 1264.33 1425.44L1183.31 1579.89 1117.64 1545.44C1108.43 1540.61 1097.05 1544.16 1092.21 1553.37 1087.39 1562.56 1090.94 1573.93 1100.14 1578.77L1182.34 1621.87C1186.97 1624.31 1192.17 1624.6 1196.79 1623.13 1201.44 1621.71 1205.52 1618.52 1207.96 1613.88L1250.53 1532.73 1333.6 1506.82C1343.51 1503.73 1349.05 1493.18 1345.96 1483.27 1342.86 1473.34 1332.3 1467.81 1322.4 1470.9L1275.25 1485.61 1294.03 1449.82 1377.08 1423.91C1386.98 1420.82 1392.53 1410.27 1389.43 1400.36 1386.34 1390.43 1375.78 1384.9 1365.87 1387.99L1275.41 1416.2C1275.4 1416.21 1275.4 1416.21 1275.38 1416.21Z" fill="#5E72E4" fill-rule="evenodd"/><path d="M1650.69 1299.16C1649.48 1299.54 1648.33 1300.04 1647.21 1300.65 1647.21 1300.65 1647.21 1300.65 1647.2 1300.65 1647.07 1300.72 1646.98 1300.83 1646.85 1300.9 1645.92 1301.43 1645.05 1302.02 1644.22 1302.71 1643.96 1302.92 1643.75 1303.2 1643.5 1303.44 1642.85 1304.04 1642.19 1304.63 1641.62 1305.33 1641.48 1305.51 1641.39 1305.73 1641.25 1305.91 1640.66 1306.7 1640.09 1307.5 1639.64 1308.39L1558.61 1462.84 1492.94 1428.39C1483.73 1423.56 1472.35 1427.11 1467.52 1436.32 1462.7 1445.51 1466.24 1456.88 1475.44 1461.72L1557.65 1504.82C1562.28 1507.26 1567.47 1507.55 1572.09 1506.08 1576.74 1504.66 1580.83 1501.47 1583.27 1496.83L1625.84 1415.68 1708.9 1389.77C1718.81 1386.68 1724.35 1376.13 1721.26 1366.22 1718.17 1356.29 1707.61 1350.76 1697.7 1353.85L1650.55 1368.56 1669.33 1332.77 1752.38 1306.86C1762.29 1303.77 1767.83 1293.22 1764.74 1283.31 1761.64 1273.38 1751.08 1267.85 1741.17 1270.94L1650.71 1299.15C1650.7 1299.16 1650.7 1299.16 1650.69 1299.16Z" fill="#5E72E4" fill-rule="evenodd"/><path d="M2025.99 1182.11C2024.78 1182.49 2023.63 1182.99 2022.52 1183.6 2022.52 1183.6 2022.52 1183.6 2022.5 1183.61 2022.38 1183.67 2022.28 1183.78 2022.15 1183.85 2021.23 1184.38 2020.35 1184.97 2019.52 1185.66 2019.26 1185.88 2019.05 1186.15 2018.8 1186.39 2018.15 1186.99 2017.49 1187.58 2016.93 1188.28 2016.79 1188.46 2016.69 1188.68 2016.55 1188.86 2015.96 1189.65 2015.4 1190.45 2014.94 1191.34L1933.91 1345.79 1868.25 1311.34C1859.04 1306.51 1847.65 1310.06 1842.82 1319.27 1838 1328.46 1841.54 1339.83 1850.74 1344.67L1932.95 1387.77C1937.58 1390.21 1942.78 1390.5 1947.4 1389.03 1952.05 1387.61 1956.13 1384.42 1958.57 1379.78L2001.14 1298.63 2084.21 1272.73C2094.11 1269.63 2099.65 1259.08 2096.56 1249.17 2093.47 1239.24 2082.91 1233.71 2073 1236.8L2025.85 1251.51 2044.63 1215.72 2127.68 1189.81C2137.59 1186.72 2143.13 1176.17 2140.04 1166.26 2136.94 1156.33 2126.39 1150.8 2116.48 1153.89L2026.02 1182.1C2026 1182.11 2026 1182.11 2025.99 1182.11Z" fill="#5E72E4" fill-rule="evenodd"/><path d="M2401.29 1065.06C2400.09 1065.44 2398.94 1065.94 2397.82 1066.55 2397.82 1066.55 2397.82 1066.55 2397.81 1066.56 2397.68 1066.62 2397.58 1066.73 2397.46 1066.8 2396.53 1067.33 2395.65 1067.92 2394.82 1068.61 2394.56 1068.83 2394.35 1069.1 2394.1 1069.34 2393.46 1069.94 2392.79 1070.53 2392.23 1071.23 2392.09 1071.41 2391.99 1071.63 2391.85 1071.82 2391.27 1072.6 2390.7 1073.4 2390.24 1074.29L2309.21 1228.74 2243.55 1194.29C2234.34 1189.46 2222.96 1193.01 2218.12 1202.22 2213.3 1211.41 2216.85 1222.78 2226.04 1227.62L2308.25 1270.72C2312.88 1273.16 2318.08 1273.45 2322.7 1271.98 2327.35 1270.56 2331.43 1267.37 2333.87 1262.73L2376.44 1181.58 2459.51 1155.68C2469.42 1152.59 2474.96 1142.03 2471.87 1132.12 2468.77 1122.19 2458.21 1116.66 2448.3 1119.75L2401.16 1134.46 2419.93 1098.67 2502.98 1072.76C2512.89 1069.67 2518.43 1059.12 2515.34 1049.21 2512.25 1039.28 2501.69 1033.75 2491.78 1036.84L2401.32 1065.05C2401.31 1065.06 2401.31 1065.06 2401.29 1065.06Z" fill="#5E72E4" fill-rule="evenodd"/><path d="M2232.23 1379.78C2231.02 1380.16 2229.87 1380.66 2228.76 1381.27 2228.76 1381.27 2228.76 1381.27 2228.74 1381.27 2228.62 1381.34 2228.52 1381.44 2228.4 1381.52 2227.47 1382.05 2226.59 1382.64 2225.76 1383.33 2225.5 1383.54 2225.29 1383.82 2225.04 1384.06 2224.4 1384.66 2223.73 1385.24 2223.17 1385.95 2223.03 1386.13 2222.93 1386.35 2222.79 1386.53 2222.2 1387.32 2221.64 1388.12 2221.18 1389L2140.15 1543.46 2074.49 1509C2065.28 1504.18 2053.9 1507.73 2049.06 1516.93 2044.24 1526.13 2047.79 1537.5 2056.98 1542.34L2139.19 1585.44C2143.82 1587.88 2149.02 1588.17 2153.64 1586.7 2158.29 1585.28 2162.37 1582.09 2164.81 1577.45L2207.38 1496.3 2290.45 1470.39C2300.36 1467.3 2305.9 1456.75 2302.8 1446.83 2299.71 1436.91 2289.15 1431.38 2279.24 1434.47L2232.09 1449.17 2250.87 1413.38 2333.92 1387.48C2343.83 1384.39 2349.37 1373.84 2346.28 1363.92 2343.19 1354 2332.63 1348.47 2322.72 1351.56L2232.26 1379.77C2232.24 1379.78 2232.24 1379.78 2232.23 1379.78Z" fill="#5E72E4" fill-rule="evenodd"/><path d="M2607.53 1262.73C2606.33 1263.11 2605.18 1263.61 2604.06 1264.22 2604.06 1264.22 2604.06 1264.22 2604.05 1264.22 2603.92 1264.29 2603.82 1264.39 2603.7 1264.47 2602.77 1265 2601.89 1265.59 2601.06 1266.28 2600.8 1266.49 2600.6 1266.77 2600.34 1267.01 2599.7 1267.61 2599.03 1268.19 2598.47 1268.9 2598.33 1269.08 2598.23 1269.3 2598.1 1269.48 2597.51 1270.27 2596.94 1271.07 2596.48 1271.95L2515.45 1426.41 2449.79 1391.96C2440.58 1387.13 2429.2 1390.68 2424.36 1399.89 2419.54 1409.08 2423.09 1420.45 2432.29 1425.29L2514.49 1468.39C2519.12 1470.83 2524.32 1471.12 2528.94 1469.65 2533.59 1468.23 2537.67 1465.04 2540.11 1460.4L2582.68 1379.25 2665.75 1353.34C2675.66 1350.25 2681.2 1339.7 2678.11 1329.78 2675.01 1319.86 2664.45 1314.33 2654.55 1317.42L2607.4 1332.12 2626.17 1296.33 2709.23 1270.43C2719.13 1267.34 2724.67 1256.79 2721.58 1246.87 2718.49 1236.95 2707.93 1231.42 2698.02 1234.51L2607.56 1262.72C2607.55 1262.73 2607.55 1262.73 2607.53 1262.73Z" fill="#5E72E4" fill-rule="evenodd"/></g></svg>