<svg width="2560" height="1440" xmlns="http://www.w3.org/2000/svg" xmlns:xlink="http://www.w3.org/1999/xlink" overflow="hidden"><defs><clipPath id="clip0"><path d="M0 0 2560 0 2560 1440 0 1440Z" fill-rule="evenodd" clip-rule="evenodd"/></clipPath></defs><g clip-path="url(#clip0)"><rect x="0" y="0" width="2560" height="1440" fill="#5E72E4"/><path d="M675.332-117C674.069-117 672.821-116.863 671.574-116.613 671.574-116.613 671.574-116.613 671.558-116.613 671.418-116.589 671.293-116.517 671.153-116.484 670.108-116.251 669.094-115.953 668.096-115.542 667.784-115.413 667.504-115.211 667.192-115.058 666.396-114.68 665.586-114.317 664.837-113.809 664.65-113.68 664.494-113.503 664.307-113.366 663.511-112.794 662.732-112.198 662.03-111.489L538.615 11.7436 486.156-40.6595C478.795-47.9994 466.865-47.9994 459.505-40.6595 452.16-33.3195 452.16-21.4193 459.505-14.0712L525.189 51.5051C528.885 55.2113 533.766 57.0322 538.615 57 543.481 57.0322 548.331 55.2033 552.042 51.5051L616.884-13.2413 703.948-13.2413C714.334-13.2413 722.77-21.661 722.77-32.0384 722.77-42.424 714.334-50.8436 703.948-50.8436L654.529-50.8436 683.129-79.3978 770.177-79.3978C780.563-79.3978 789-87.8174 789-98.1949 789-108.58 780.563-117 770.177-117L675.363-117C675.348-117 675.348-117 675.332-117Z" fill="#FFFFFF" fill-rule="evenodd"/><path d="M276.332-117C275.069-117 273.821-116.863 272.574-116.613 272.574-116.613 272.574-116.613 272.558-116.613 272.418-116.589 272.293-116.517 272.153-116.484 271.108-116.251 270.094-115.953 269.096-115.542 268.784-115.413 268.504-115.211 268.192-115.058 267.396-114.68 266.586-114.317 265.837-113.809 265.65-113.68 265.494-113.503 265.307-113.366 264.511-112.794 263.732-112.198 263.03-111.489L139.615 11.7436 87.1558-40.6595C79.7952-47.9994 67.8654-47.9994 60.5048-40.6595 53.1599-33.3195 53.1599-21.4193 60.5048-14.0712L126.189 51.5051C129.885 55.2113 134.766 57.0322 139.615 57 144.481 57.0322 149.331 55.2033 153.042 51.5051L217.884-13.2413 304.948-13.2413C315.334-13.2413 323.77-21.661 323.77-32.0384 323.77-42.424 315.334-50.8436 304.948-50.8436L255.529-50.8436 284.129-79.3978 371.177-79.3978C381.563-79.3978 390-87.8174 390-98.1949 390-108.58 381.563-117 371.177-117L276.363-117C276.348-117 276.348-117 276.332-117Z" fill="#FFFFFF" fill-rule="evenodd"/><path d="M1068.33-117C1067.07-117 1065.82-116.863 1064.57-116.613 1064.57-116.613 1064.57-116.613 1064.56-116.613 1064.42-116.589 1064.29-116.517 1064.15-116.484 1063.11-116.251 1062.09-115.953 1061.1-115.542 1060.78-115.413 1060.5-115.211 1060.19-115.058 1059.4-114.68 1058.59-114.317 1057.84-113.809 1057.65-113.68 1057.49-113.503 1057.31-113.366 1056.51-112.794 1055.73-112.198 1055.03-111.489L931.615 11.7436 879.156-40.6595C871.795-47.9994 859.865-47.9994 852.505-40.6595 845.16-33.3195 845.16-21.4193 852.505-14.0712L918.189 51.5051C921.885 55.2113 926.766 57.0322 931.615 57 936.481 57.0322 941.331 55.2033 945.042 51.5051L1009.88-13.2413 1096.95-13.2413C1107.33-13.2413 1115.77-21.661 1115.77-32.0384 1115.77-42.424 1107.33-50.8436 1096.95-50.8436L1047.53-50.8436 1076.13-79.3978 1163.18-79.3978C1173.56-79.3978 1182-87.8174 1182-98.1949 1182-108.58 1173.56-117 1163.18-117L1068.36-117C1068.35-117 1068.35-117 1068.33-117Z" fill="#FFFFFF" fill-rule="evenodd"/><path d="M1461.33-117C1460.07-117 1458.82-116.863 1457.57-116.613 1457.57-116.613 1457.57-116.613 1457.56-116.613 1457.42-116.589 1457.29-116.517 1457.15-116.484 1456.11-116.251 1455.09-115.953 1454.1-115.542 1453.78-115.413 1453.5-115.211 1453.19-115.058 1452.4-114.68 1451.59-114.317 1450.84-113.809 1450.65-113.68 1450.49-113.503 1450.31-113.366 1449.51-112.794 1448.73-112.198 1448.03-111.489L1324.62 11.7436 1272.16-40.6595C1264.8-47.9994 1252.87-47.9994 1245.5-40.6595 1238.16-33.3195 1238.16-21.4193 1245.5-14.0712L1311.19 51.5051C1314.88 55.2113 1319.77 57.0322 1324.62 57 1329.48 57.0322 1334.33 55.2033 1338.04 51.5051L1402.88-13.2413 1489.95-13.2413C1500.33-13.2413 1508.77-21.661 1508.77-32.0384 1508.77-42.424 1500.33-50.8436 1489.95-50.8436L1440.53-50.8436 1469.13-79.3978 1556.18-79.3978C1566.56-79.3978 1575-87.8174 1575-98.1949 1575-108.58 1566.56-117 1556.18-117L1461.36-117C1461.35-117 1461.35-117 1461.33-117Z" fill="#FFFFFF" fill-rule="evenodd"/><path d="M1854.33-117C1853.07-117 1851.82-116.863 1850.57-116.613 1850.57-116.613 1850.57-116.613 1850.56-116.613 1850.42-116.589 1850.29-116.517 1850.15-116.484 1849.11-116.251 1848.09-115.953 1847.1-115.542 1846.78-115.413 1846.5-115.211 1846.19-115.058 1845.4-114.68 1844.59-114.317 1843.84-113.809 1843.65-113.68 1843.49-113.503 1843.31-113.366 1842.51-112.794 1841.73-112.198 1841.03-111.489L1717.62 11.7436 1665.16-40.6595C1657.8-47.9994 1645.87-47.9994 1638.5-40.6595 1631.16-33.3195 1631.16-21.4193 1638.5-14.0712L1704.19 51.5051C1707.88 55.2113 1712.77 57.0322 1717.62 57 1722.48 57.0322 1727.33 55.2033 1731.04 51.5051L1795.88-13.2413 1882.95-13.2413C1893.33-13.2413 1901.77-21.661 1901.77-32.0384 1901.77-42.424 1893.33-50.8436 1882.95-50.8436L1833.53-50.8436 1862.13-79.3978 1949.18-79.3978C1959.56-79.3978 1968-87.8174 1968-98.1949 1968-108.58 1959.56-117 1949.18-117L1854.36-117C1854.35-117 1854.35-117 1854.33-117Z" fill="#FFFFFF" fill-rule="evenodd"/><path d="M2247.67-117C2246.41-117 2245.17-116.863 2243.92-116.613 2243.92-116.613 2243.92-116.613 2243.91-116.613 2243.77-116.589 2243.64-116.517 2243.5-116.484 2242.46-116.251 2241.45-115.953 2240.46-115.542 2240.15-115.413 2239.87-115.211 2239.56-115.058 2238.76-114.68 2237.95-114.317 2237.21-113.809 2237.02-113.68 2236.87-113.503 2236.68-113.366 2235.89-112.794 2235.11-112.198 2234.41-111.489L2111.36 11.7436 2059.06-40.6595C2051.72-47.9994 2039.83-47.9994 2032.49-40.6595 2025.17-33.3195 2025.17-21.4193 2032.49-14.0712L2097.98 51.5051C2101.66 55.2113 2106.53 57.0322 2111.36 57 2116.21 57.0322 2121.05 55.2033 2124.75 51.5051L2189.4-13.2413 2276.2-13.2413C2286.56-13.2413 2294.97-21.661 2294.97-32.0384 2294.97-42.424 2286.56-50.8436 2276.2-50.8436L2226.93-50.8436 2255.45-79.3978 2342.23-79.3978C2352.59-79.3978 2361-87.8174 2361-98.1949 2361-108.58 2352.59-117 2342.23-117L2247.7-117C2247.69-117 2247.69-117 2247.67-117Z" fill="#FFFFFF" fill-rule="evenodd"/><path d="M2640.67-117C2639.41-117 2638.17-116.863 2636.92-116.613 2636.92-116.613 2636.92-116.613 2636.91-116.613 2636.77-116.589 2636.64-116.517 2636.5-116.484 2635.46-116.251 2634.45-115.953 2633.46-115.542 2633.15-115.413 2632.87-115.211 2632.56-115.058 2631.76-114.68 2630.95-114.317 2630.21-113.809 2630.02-113.68 2629.87-113.503 2629.68-113.366 2628.89-112.794 2628.11-112.198 2627.41-111.489L2504.36 11.7436 2452.06-40.6595C2444.72-47.9994 2432.83-47.9994 2425.49-40.6595 2418.17-33.3195 2418.17-21.4193 2425.49-14.0712L2490.98 51.5051C2494.66 55.2113 2499.53 57.0322 2504.36 57 2509.21 57.0322 2514.05 55.2033 2517.75 51.5051L2582.4-13.2413 2669.2-13.2413C2679.56-13.2413 2687.97-21.661 2687.97-32.0384 2687.97-42.424 2679.56-50.8436 2669.2-50.8436L2619.93-50.8436 2648.45-79.3978 2735.23-79.3978C2745.59-79.3978 2754-87.8174 2754-98.1949 2754-108.58 2745.59-117 2735.23-117L2640.7-117C2640.69-117 2640.69-117 2640.67-117Z" fill="#FFFFFF" fill-rule="evenodd"/><path d="M813.332 133C812.069 133 810.821 133.137 809.574 133.387 809.574 133.387 809.574 133.387 809.558 133.387 809.418 133.411 809.293 133.483 809.153 133.516 808.108 133.749 807.094 134.047 806.096 134.458 805.784 134.587 805.504 134.789 805.192 134.942 804.396 135.32 803.586 135.683 802.837 136.191 802.65 136.32 802.494 136.497 802.307 136.634 801.511 137.206 800.732 137.802 800.03 138.511L676.615 261.744 624.156 209.341C616.795 202.001 604.865 202.001 597.505 209.341 590.16 216.68 590.16 228.581 597.505 235.929L663.189 301.505C666.885 305.211 671.766 307.032 676.615 307 681.481 307.032 686.331 305.203 690.042 301.505L754.884 236.759 841.948 236.759C852.334 236.759 860.77 228.339 860.77 217.962 860.77 207.576 852.334 199.156 841.948 199.156L792.529 199.156 821.129 170.602 908.177 170.602C918.563 170.602 927 162.183 927 151.805 927 141.42 918.563 133 908.177 133L813.363 133C813.348 133 813.348 133 813.332 133Z" fill="#FFFFFF" fill-rule="evenodd"/><path d="M414.332 133C413.069 133 411.821 133.137 410.574 133.387 410.574 133.387 410.574 133.387 410.558 133.387 410.418 133.411 410.293 133.483 410.153 133.516 409.108 133.749 408.094 134.047 407.096 134.458 406.784 134.587 406.504 134.789 406.192 134.942 405.396 135.32 404.586 135.683 403.837 136.191 403.65 136.32 403.494 136.497 403.307 136.634 402.511 137.206 401.732 137.802 401.03 138.511L277.615 261.744 225.156 209.341C217.795 202.001 205.865 202.001 198.505 209.341 191.16 216.68 191.16 228.581 198.505 235.929L264.189 301.505C267.885 305.211 272.766 307.032 277.615 307 282.481 307.032 287.331 305.203 291.042 301.505L355.884 236.759 442.948 236.759C453.334 236.759 461.77 228.339 461.77 217.962 461.77 207.576 453.334 199.156 442.948 199.156L393.529 199.156 422.129 170.602 509.177 170.602C519.563 170.602 528 162.183 528 151.805 528 141.42 519.563 133 509.177 133L414.363 133C414.348 133 414.348 133 414.332 133Z" fill="#FFFFFF" fill-rule="evenodd"/><path d="M21.332 133C20.0689 133 18.8213 133.137 17.5738 133.387 17.5738 133.387 17.5738 133.387 17.5582 133.387 17.4178 133.411 17.2931 133.483 17.1527 133.516 16.1079 133.749 15.0943 134.047 14.0962 134.458 13.7843 134.587 13.5036 134.789 13.1917 134.942 12.3964 135.32 11.5855 135.683 10.837 136.191 10.6498 136.32 10.4939 136.497 10.3068 136.634 9.51144 137.206 8.73172 137.802 8.02997 138.511L-115.385 261.744-167.844 209.341C-175.205 202.001-187.135 202.001-194.495 209.341-201.84 216.68-201.84 228.581-194.495 235.929L-128.811 301.505C-125.115 305.211-120.234 307.032-115.385 307-110.519 307.032-105.669 305.203-101.958 301.505L-37.116 236.759 49.9479 236.759C60.3338 236.759 68.7704 228.339 68.7704 217.962 68.7704 207.576 60.3338 199.156 49.9479 199.156L0.529037 199.156 29.1293 170.602 116.177 170.602C126.563 170.602 135 162.183 135 151.805 135 141.42 126.563 133 116.177 133L21.3632 133C21.3476 133 21.3476 133 21.332 133Z" fill="#FFFFFF" fill-rule="evenodd"/><path d="M1206.33 133C1205.07 133 1203.82 133.137 1202.57 133.387 1202.57 133.387 1202.57 133.387 1202.56 133.387 1202.42 133.411 1202.29 133.483 1202.15 133.516 1201.11 133.749 1200.09 134.047 1199.1 134.458 1198.78 134.587 1198.5 134.789 1198.19 134.942 1197.4 135.32 1196.59 135.683 1195.84 136.191 1195.65 136.32 1195.49 136.497 1195.31 136.634 1194.51 137.206 1193.73 137.802 1193.03 138.511L1069.62 261.744 1017.16 209.341C1009.8 202.001 997.865 202.001 990.505 209.341 983.16 216.68 983.16 228.581 990.505 235.929L1056.19 301.505C1059.88 305.211 1064.77 307.032 1069.62 307 1074.48 307.032 1079.33 305.203 1083.04 301.505L1147.88 236.759 1234.95 236.759C1245.33 236.759 1253.77 228.339 1253.77 217.962 1253.77 207.576 1245.33 199.156 1234.95 199.156L1185.53 199.156 1214.13 170.602 1301.18 170.602C1311.56 170.602 1320 162.183 1320 151.805 1320 141.42 1311.56 133 1301.18 133L1206.36 133C1206.35 133 1206.35 133 1206.33 133Z" fill="#FFFFFF" fill-rule="evenodd"/><path d="M1599.33 133C1598.07 133 1596.82 133.137 1595.57 133.387 1595.57 133.387 1595.57 133.387 1595.56 133.387 1595.42 133.411 1595.29 133.483 1595.15 133.516 1594.11 133.749 1593.09 134.047 1592.1 134.458 1591.78 134.587 1591.5 134.789 1591.19 134.942 1590.4 135.32 1589.59 135.683 1588.84 136.191 1588.65 136.32 1588.49 136.497 1588.31 136.634 1587.51 137.206 1586.73 137.802 1586.03 138.511L1462.62 261.744 1410.16 209.341C1402.8 202.001 1390.87 202.001 1383.5 209.341 1376.16 216.68 1376.16 228.581 1383.5 235.929L1449.19 301.505C1452.88 305.211 1457.77 307.032 1462.62 307 1467.48 307.032 1472.33 305.203 1476.04 301.505L1540.88 236.759 1627.95 236.759C1638.33 236.759 1646.77 228.339 1646.77 217.962 1646.77 207.576 1638.33 199.156 1627.95 199.156L1578.53 199.156 1607.13 170.602 1694.18 170.602C1704.56 170.602 1713 162.183 1713 151.805 1713 141.42 1704.56 133 1694.18 133L1599.36 133C1599.35 133 1599.35 133 1599.33 133Z" fill="#FFFFFF" fill-rule="evenodd"/><path d="M1992.33 133C1991.07 133 1989.82 133.137 1988.57 133.387 1988.57 133.387 1988.57 133.387 1988.56 133.387 1988.42 133.411 1988.29 133.483 1988.15 133.516 1987.11 133.749 1986.09 134.047 1985.1 134.458 1984.78 134.587 1984.5 134.789 1984.19 134.942 1983.4 135.32 1982.59 135.683 1981.84 136.191 1981.65 136.32 1981.49 136.497 1981.31 136.634 1980.51 137.206 1979.73 137.802 1979.03 138.511L1855.62 261.744 1803.16 209.341C1795.8 202.001 1783.87 202.001 1776.5 209.341 1769.16 216.68 1769.16 228.581 1776.5 235.929L1842.19 301.505C1845.88 305.211 1850.77 307.032 1855.62 307 1860.48 307.032 1865.33 305.203 1869.04 301.505L1933.88 236.759 2020.95 236.759C2031.33 236.759 2039.77 228.339 2039.77 217.962 2039.77 207.576 2031.33 199.156 2020.95 199.156L1971.53 199.156 2000.13 170.602 2087.18 170.602C2097.56 170.602 2106 162.183 2106 151.805 2106 141.42 2097.56 133 2087.18 133L1992.36 133C1992.35 133 1992.35 133 1992.33 133Z" fill="#FFFFFF" fill-rule="evenodd"/><path d="M2385.67 133C2384.41 133 2383.17 133.137 2381.92 133.387 2381.92 133.387 2381.92 133.387 2381.91 133.387 2381.77 133.411 2381.64 133.483 2381.5 133.516 2380.46 133.749 2379.45 134.047 2378.46 134.458 2378.15 134.587 2377.87 134.789 2377.56 134.942 2376.76 135.32 2375.95 135.683 2375.21 136.191 2375.02 136.32 2374.87 136.497 2374.68 136.634 2373.89 137.206 2373.11 137.802 2372.41 138.511L2249.36 261.744 2197.06 209.341C2189.72 202.001 2177.83 202.001 2170.49 209.341 2163.17 216.68 2163.17 228.581 2170.49 235.929L2235.98 301.505C2239.66 305.211 2244.53 307.032 2249.36 307 2254.21 307.032 2259.05 305.203 2262.75 301.505L2327.4 236.759 2414.2 236.759C2424.56 236.759 2432.97 228.339 2432.97 217.962 2432.97 207.576 2424.56 199.156 2414.2 199.156L2364.93 199.156 2393.45 170.602 2480.23 170.602C2490.59 170.602 2499 162.183 2499 151.805 2499 141.42 2490.59 133 2480.23 133L2385.7 133C2385.69 133 2385.69 133 2385.67 133Z" fill="#FFFFFF" fill-rule="evenodd"/><path d="M2778.67 133C2777.41 133 2776.17 133.137 2774.92 133.387 2774.92 133.387 2774.92 133.387 2774.91 133.387 2774.77 133.411 2774.64 133.483 2774.5 133.516 2773.46 133.749 2772.45 134.047 2771.46 134.458 2771.15 134.587 2770.87 134.789 2770.56 134.942 2769.76 135.32 2768.95 135.683 2768.21 136.191 2768.02 136.32 2767.87 136.497 2767.68 136.634 2766.89 137.206 2766.11 137.802 2765.41 138.511L2642.36 261.744 2590.06 209.341C2582.72 202.001 2570.83 202.001 2563.49 209.341 2556.17 216.68 2556.17 228.581 2563.49 235.929L2628.98 301.505C2632.66 305.211 2637.53 307.032 2642.36 307 2647.21 307.032 2652.05 305.203 2655.75 301.505L2720.4 236.759 2807.2 236.759C2817.56 236.759 2825.97 228.339 2825.97 217.962 2825.97 207.576 2817.56 199.156 2807.2 199.156L2757.93 199.156 2786.45 170.602 2873.23 170.602C2883.59 170.602 2892 162.183 2892 151.805 2892 141.42 2883.59 133 2873.23 133L2778.7 133C2778.69 133 2778.69 133 2778.67 133Z" fill="#FFFFFF" fill-rule="evenodd"/><path d="M675.332 383C674.069 383 672.821 383.137 671.574 383.387 671.574 383.387 671.574 383.387 671.558 383.387 671.418 383.411 671.293 383.483 671.153 383.516 670.108 383.749 669.094 384.047 668.096 384.458 667.784 384.587 667.504 384.789 667.192 384.942 666.396 385.32 665.586 385.683 664.837 386.191 664.65 386.319 664.494 386.497 664.307 386.634 663.511 387.206 662.732 387.802 662.03 388.511L538.615 511.744 486.156 459.341C478.795 452.001 466.865 452.001 459.505 459.341 452.16 466.68 452.16 478.581 459.505 485.929L525.189 551.505C528.885 555.211 533.766 557.032 538.615 557 543.481 557.032 548.331 555.203 552.042 551.505L616.884 486.759 703.948 486.759C714.334 486.759 722.77 478.339 722.77 467.962 722.77 457.576 714.334 449.156 703.948 449.156L654.529 449.156 683.129 420.602 770.177 420.602C780.563 420.602 789 412.183 789 401.805 789 391.42 780.563 383 770.177 383L675.363 383C675.348 383 675.348 383 675.332 383Z" fill="#FFFFFF" fill-rule="evenodd"/><path d="M276.332 383C275.069 383 273.821 383.137 272.574 383.387 272.574 383.387 272.574 383.387 272.558 383.387 272.418 383.411 272.293 383.483 272.153 383.516 271.108 383.749 270.094 384.047 269.096 384.458 268.784 384.587 268.504 384.789 268.192 384.942 267.396 385.32 266.586 385.683 265.837 386.191 265.65 386.319 265.494 386.497 265.307 386.634 264.511 387.206 263.732 387.802 263.03 388.511L139.615 511.744 87.1558 459.341C79.7952 452.001 67.8654 452.001 60.5048 459.341 53.1599 466.68 53.1599 478.581 60.5048 485.929L126.189 551.505C129.885 555.211 134.766 557.032 139.615 557 144.481 557.032 149.331 555.203 153.042 551.505L217.884 486.759 304.948 486.759C315.334 486.759 323.77 478.339 323.77 467.962 323.77 457.576 315.334 449.156 304.948 449.156L255.529 449.156 284.129 420.602 371.177 420.602C381.563 420.602 390 412.183 390 401.805 390 391.42 381.563 383 371.177 383L276.363 383C276.348 383 276.348 383 276.332 383Z" fill="#FFFFFF" fill-rule="evenodd"/><path d="M1068.33 383C1067.07 383 1065.82 383.137 1064.57 383.387 1064.57 383.387 1064.57 383.387 1064.56 383.387 1064.42 383.411 1064.29 383.483 1064.15 383.516 1063.11 383.749 1062.09 384.047 1061.1 384.458 1060.78 384.587 1060.5 384.789 1060.19 384.942 1059.4 385.32 1058.59 385.683 1057.84 386.191 1057.65 386.319 1057.49 386.497 1057.31 386.634 1056.51 387.206 1055.73 387.802 1055.03 388.511L931.615 511.744 879.156 459.341C871.795 452.001 859.865 452.001 852.505 459.341 845.16 466.68 845.16 478.581 852.505 485.929L918.189 551.505C921.885 555.211 926.766 557.032 931.615 557 936.481 557.032 941.331 555.203 945.042 551.505L1009.88 486.759 1096.95 486.759C1107.33 486.759 1115.77 478.339 1115.77 467.962 1115.77 457.576 1107.33 449.156 1096.95 449.156L1047.53 449.156 1076.13 420.602 1163.18 420.602C1173.56 420.602 1182 412.183 1182 401.805 1182 391.42 1173.56 383 1163.18 383L1068.36 383C1068.35 383 1068.35 383 1068.33 383Z" fill="#FFFFFF" fill-rule="evenodd"/><path d="M1461.33 383C1460.07 383 1458.82 383.137 1457.57 383.387 1457.57 383.387 1457.57 383.387 1457.56 383.387 1457.42 383.411 1457.29 383.483 1457.15 383.516 1456.11 383.749 1455.09 384.047 1454.1 384.458 1453.78 384.587 1453.5 384.789 1453.19 384.942 1452.4 385.32 1451.59 385.683 1450.84 386.191 1450.65 386.319 1450.49 386.497 1450.31 386.634 1449.51 387.206 1448.73 387.802 1448.03 388.511L1324.62 511.744 1272.16 459.341C1264.8 452.001 1252.87 452.001 1245.5 459.341 1238.16 466.68 1238.16 478.581 1245.5 485.929L1311.19 551.505C1314.88 555.211 1319.77 557.032 1324.62 557 1329.48 557.032 1334.33 555.203 1338.04 551.505L1402.88 486.759 1489.95 486.759C1500.33 486.759 1508.77 478.339 1508.77 467.962 1508.77 457.576 1500.33 449.156 1489.95 449.156L1440.53 449.156 1469.13 420.602 1556.18 420.602C1566.56 420.602 1575 412.183 1575 401.805 1575 391.42 1566.56 383 1556.18 383L1461.36 383C1461.35 383 1461.35 383 1461.33 383Z" fill="#FFFFFF" fill-rule="evenodd"/><path d="M1854.33 383C1853.07 383 1851.82 383.137 1850.57 383.387 1850.57 383.387 1850.57 383.387 1850.56 383.387 1850.42 383.411 1850.29 383.483 1850.15 383.516 1849.11 383.749 1848.09 384.047 1847.1 384.458 1846.78 384.587 1846.5 384.789 1846.19 384.942 1845.4 385.32 1844.59 385.683 1843.84 386.191 1843.65 386.319 1843.49 386.497 1843.31 386.634 1842.51 387.206 1841.73 387.802 1841.03 388.511L1717.62 511.744 1665.16 459.341C1657.8 452.001 1645.87 452.001 1638.5 459.341 1631.16 466.68 1631.16 478.581 1638.5 485.929L1704.19 551.505C1707.88 555.211 1712.77 557.032 1717.62 557 1722.48 557.032 1727.33 555.203 1731.04 551.505L1795.88 486.759 1882.95 486.759C1893.33 486.759 1901.77 478.339 1901.77 467.962 1901.77 457.576 1893.33 449.156 1882.95 449.156L1833.53 449.156 1862.13 420.602 1949.18 420.602C1959.56 420.602 1968 412.183 1968 401.805 1968 391.42 1959.56 383 1949.18 383L1854.36 383C1854.35 383 1854.35 383 1854.33 383Z" fill="#FFFFFF" fill-rule="evenodd"/><path d="M2247.67 383C2246.41 383 2245.17 383.137 2243.92 383.387 2243.92 383.387 2243.92 383.387 2243.91 383.387 2243.77 383.411 2243.64 383.483 2243.5 383.516 2242.46 383.749 2241.45 384.047 2240.46 384.458 2240.15 384.587 2239.87 384.789 2239.56 384.942 2238.76 385.32 2237.95 385.683 2237.21 386.191 2237.02 386.319 2236.87 386.497 2236.68 386.634 2235.89 387.206 2235.11 387.802 2234.41 388.511L2111.36 511.744 2059.06 459.341C2051.72 452.001 2039.83 452.001 2032.49 459.341 2025.17 466.68 2025.17 478.581 2032.49 485.929L2097.98 551.505C2101.66 555.211 2106.53 557.032 2111.36 557 2116.21 557.032 2121.05 555.203 2124.75 551.505L2189.4 486.759 2276.2 486.759C2286.56 486.759 2294.97 478.339 2294.97 467.962 2294.97 457.576 2286.56 449.156 2276.2 449.156L2226.93 449.156 2255.45 420.602 2342.23 420.602C2352.59 420.602 2361 412.183 2361 401.805 2361 391.42 2352.59 383 2342.23 383L2247.7 383C2247.69 383 2247.69 383 2247.67 383Z" fill="#FFFFFF" fill-rule="evenodd"/><path d="M2640.67 383C2639.41 383 2638.17 383.137 2636.92 383.387 2636.92 383.387 2636.92 383.387 2636.91 383.387 2636.77 383.411 2636.64 383.483 2636.5 383.516 2635.46 383.749 2634.45 384.047 2633.46 384.458 2633.15 384.587 2632.87 384.789 2632.56 384.942 2631.76 385.32 2630.95 385.683 2630.21 386.191 2630.02 386.319 2629.87 386.497 2629.68 386.634 2628.89 387.206 2628.11 387.802 2627.41 388.511L2504.36 511.744 2452.06 459.341C2444.72 452.001 2432.83 452.001 2425.49 459.341 2418.17 466.68 2418.17 478.581 2425.49 485.929L2490.98 551.505C2494.66 555.211 2499.53 557.032 2504.36 557 2509.21 557.032 2514.05 555.203 2517.75 551.505L2582.4 486.759 2669.2 486.759C2679.56 486.759 2687.97 478.339 2687.97 467.962 2687.97 457.576 2679.56 449.156 2669.2 449.156L2619.93 449.156 2648.45 420.602 2735.23 420.602C2745.59 420.602 2754 412.183 2754 401.805 2754 391.42 2745.59 383 2735.23 383L2640.7 383C2640.69 383 2640.69 383 2640.67 383Z" fill="#FFFFFF" fill-rule="evenodd"/><path d="M813.332 633C812.069 633 810.821 633.137 809.574 633.387 809.574 633.387 809.574 633.387 809.558 633.387 809.418 633.411 809.293 633.483 809.153 633.516 808.108 633.749 807.094 634.047 806.096 634.458 805.784 634.587 805.504 634.789 805.192 634.942 804.396 635.32 803.586 635.683 802.837 636.191 802.65 636.32 802.494 636.497 802.307 636.634 801.511 637.206 800.732 637.802 800.03 638.511L676.615 761.744 624.156 709.341C616.795 702.001 604.865 702.001 597.505 709.341 590.16 716.68 590.16 728.581 597.505 735.929L663.189 801.505C666.885 805.211 671.766 807.032 676.615 807 681.481 807.032 686.331 805.203 690.042 801.505L754.884 736.759 841.948 736.759C852.334 736.759 860.77 728.339 860.77 717.962 860.77 707.576 852.334 699.156 841.948 699.156L792.529 699.156 821.129 670.602 908.177 670.602C918.563 670.602 927 662.183 927 651.805 927 641.42 918.563 633 908.177 633L813.363 633C813.348 633 813.348 633 813.332 633Z" fill="#FFFFFF" fill-rule="evenodd"/><path d="M414.332 633C413.069 633 411.821 633.137 410.574 633.387 410.574 633.387 410.574 633.387 410.558 633.387 410.418 633.411 410.293 633.483 410.153 633.516 409.108 633.749 408.094 634.047 407.096 634.458 406.784 634.587 406.504 634.789 406.192 634.942 405.396 635.32 404.586 635.683 403.837 636.191 403.65 636.32 403.494 636.497 403.307 636.634 402.511 637.206 401.732 637.802 401.03 638.511L277.615 761.744 225.156 709.341C217.795 702.001 205.865 702.001 198.505 709.341 191.16 716.68 191.16 728.581 198.505 735.929L264.189 801.505C267.885 805.211 272.766 807.032 277.615 807 282.481 807.032 287.331 805.203 291.042 801.505L355.884 736.759 442.948 736.759C453.334 736.759 461.77 728.339 461.77 717.962 461.77 707.576 453.334 699.156 442.948 699.156L393.529 699.156 422.129 670.602 509.177 670.602C519.563 670.602 528 662.183 528 651.805 528 641.42 519.563 633 509.177 633L414.363 633C414.348 633 414.348 633 414.332 633Z" fill="#FFFFFF" fill-rule="evenodd"/><path d="M21.332 633C20.0689 633 18.8213 633.137 17.5738 633.387 17.5738 633.387 17.5738 633.387 17.5582 633.387 17.4178 633.411 17.2931 633.483 17.1527 633.516 16.1079 633.749 15.0943 634.047 14.0962 634.458 13.7843 634.587 13.5036 634.789 13.1917 634.942 12.3964 635.32 11.5855 635.683 10.837 636.191 10.6498 636.32 10.4939 636.497 10.3068 636.634 9.51144 637.206 8.73172 637.802 8.02997 638.511L-115.385 761.744-167.844 709.341C-175.205 702.001-187.135 702.001-194.495 709.341-201.84 716.68-201.84 728.581-194.495 735.929L-128.811 801.505C-125.115 805.211-120.234 807.032-115.385 807-110.519 807.032-105.669 805.203-101.958 801.505L-37.116 736.759 49.9479 736.759C60.3338 736.759 68.7704 728.339 68.7704 717.962 68.7704 707.576 60.3338 699.156 49.9479 699.156L0.529037 699.156 29.1293 670.602 116.177 670.602C126.563 670.602 135 662.183 135 651.805 135 641.42 126.563 633 116.177 633L21.3632 633C21.3476 633 21.3476 633 21.332 633Z" fill="#FFFFFF" fill-rule="evenodd"/><path d="M1206.33 633C1205.07 633 1203.82 633.137 1202.57 633.387 1202.57 633.387 1202.57 633.387 1202.56 633.387 1202.42 633.411 1202.29 633.483 1202.15 633.516 1201.11 633.749 1200.09 634.047 1199.1 634.458 1198.78 634.587 1198.5 634.789 1198.19 634.942 1197.4 635.32 1196.59 635.683 1195.84 636.191 1195.65 636.32 1195.49 636.497 1195.31 636.634 1194.51 637.206 1193.73 637.802 1193.03 638.511L1069.62 761.744 1017.16 709.341C1009.8 702.001 997.865 702.001 990.505 709.341 983.16 716.68 983.16 728.581 990.505 735.929L1056.19 801.505C1059.88 805.211 1064.77 807.032 1069.62 807 1074.48 807.032 1079.33 805.203 1083.04 801.505L1147.88 736.759 1234.95 736.759C1245.33 736.759 1253.77 728.339 1253.77 717.962 1253.77 707.576 1245.33 699.156 1234.95 699.156L1185.53 699.156 1214.13 670.602 1301.18 670.602C1311.56 670.602 1320 662.183 1320 651.805 1320 641.42 1311.56 633 1301.18 633L1206.36 633C1206.35 633 1206.35 633 1206.33 633Z" fill="#FFFFFF" fill-rule="evenodd"/><path d="M1599.33 633C1598.07 633 1596.82 633.137 1595.57 633.387 1595.57 633.387 1595.57 633.387 1595.56 633.387 1595.42 633.411 1595.29 633.483 1595.15 633.516 1594.11 633.749 1593.09 634.047 1592.1 634.458 1591.78 634.587 1591.5 634.789 1591.19 634.942 1590.4 635.32 1589.59 635.683 1588.84 636.191 1588.65 636.32 1588.49 636.497 1588.31 636.634 1587.51 637.206 1586.73 637.802 1586.03 638.511L1462.62 761.744 1410.16 709.341C1402.8 702.001 1390.87 702.001 1383.5 709.341 1376.16 716.68 1376.16 728.581 1383.5 735.929L1449.19 801.505C1452.88 805.211 1457.77 807.032 1462.62 807 1467.48 807.032 1472.33 805.203 1476.04 801.505L1540.88 736.759 1627.95 736.759C1638.33 736.759 1646.77 728.339 1646.77 717.962 1646.77 707.576 1638.33 699.156 1627.95 699.156L1578.53 699.156 1607.13 670.602 1694.18 670.602C1704.56 670.602 1713 662.183 1713 651.805 1713 641.42 1704.56 633 1694.18 633L1599.36 633C1599.35 633 1599.35 633 1599.33 633Z" fill="#FFFFFF" fill-rule="evenodd"/><path d="M1992.33 633C1991.07 633 1989.82 633.137 1988.57 633.387 1988.57 633.387 1988.57 633.387 1988.56 633.387 1988.42 633.411 1988.29 633.483 1988.15 633.516 1987.11 633.749 1986.09 634.047 1985.1 634.458 1984.78 634.587 1984.5 634.789 1984.19 634.942 1983.4 635.32 1982.59 635.683 1981.84 636.191 1981.65 636.32 1981.49 636.497 1981.31 636.634 1980.51 637.206 1979.73 637.802 1979.03 638.511L1855.62 761.744 1803.16 709.341C1795.8 702.001 1783.87 702.001 1776.5 709.341 1769.16 716.68 1769.16 728.581 1776.5 735.929L1842.19 801.505C1845.88 805.211 1850.77 807.032 1855.62 807 1860.48 807.032 1865.33 805.203 1869.04 801.505L1933.88 736.759 2020.95 736.759C2031.33 736.759 2039.77 728.339 2039.77 717.962 2039.77 707.576 2031.33 699.156 2020.95 699.156L1971.53 699.156 2000.13 670.602 2087.18 670.602C2097.56 670.602 2106 662.183 2106 651.805 2106 641.42 2097.56 633 2087.18 633L1992.36 633C1992.35 633 1992.35 633 1992.33 633Z" fill="#FFFFFF" fill-rule="evenodd"/><path d="M2385.67 633C2384.41 633 2383.17 633.137 2381.92 633.387 2381.92 633.387 2381.92 633.387 2381.91 633.387 2381.77 633.411 2381.64 633.483 2381.5 633.516 2380.46 633.749 2379.45 634.047 2378.46 634.458 2378.15 634.587 2377.87 634.789 2377.56 634.942 2376.76 635.32 2375.95 635.683 2375.21 636.191 2375.02 636.32 2374.87 636.497 2374.68 636.634 2373.89 637.206 2373.11 637.802 2372.41 638.511L2249.36 761.744 2197.06 709.341C2189.72 702.001 2177.83 702.001 2170.49 709.341 2163.17 716.68 2163.17 728.581 2170.49 735.929L2235.98 801.505C2239.66 805.211 2244.53 807.032 2249.36 807 2254.21 807.032 2259.05 805.203 2262.75 801.505L2327.4 736.759 2414.2 736.759C2424.56 736.759 2432.97 728.339 2432.97 717.962 2432.97 707.576 2424.56 699.156 2414.2 699.156L2364.93 699.156 2393.45 670.602 2480.23 670.602C2490.59 670.602 2499 662.183 2499 651.805 2499 641.42 2490.59 633 2480.23 633L2385.7 633C2385.69 633 2385.69 633 2385.67 633Z" fill="#FFFFFF" fill-rule="evenodd"/><path d="M2778.67 633C2777.41 633 2776.17 633.137 2774.92 633.387 2774.92 633.387 2774.92 633.387 2774.91 633.387 2774.77 633.411 2774.64 633.483 2774.5 633.516 2773.46 633.749 2772.45 634.047 2771.46 634.458 2771.15 634.587 2770.87 634.789 2770.56 634.942 2769.76 635.32 2768.95 635.683 2768.21 636.191 2768.02 636.32 2767.87 636.497 2767.68 636.634 2766.89 637.206 2766.11 637.802 2765.41 638.511L2642.36 761.744 2590.06 709.341C2582.72 702.001 2570.83 702.001 2563.49 709.341 2556.17 716.68 2556.17 728.581 2563.49 735.929L2628.98 801.505C2632.66 805.211 2637.53 807.032 2642.36 807 2647.21 807.032 2652.05 805.203 2655.75 801.505L2720.4 736.759 2807.2 736.759C2817.56 736.759 2825.97 728.339 2825.97 717.962 2825.97 707.576 2817.56 699.156 2807.2 699.156L2757.93 699.156 2786.45 670.602 2873.23 670.602C2883.59 670.602 2892 662.183 2892 651.805 2892 641.42 2883.59 633 2873.23 633L2778.7 633C2778.69 633 2778.69 633 2778.67 633Z" fill="#FFFFFF" fill-rule="evenodd"/><path d="M675.332 883C674.069 883 672.821 883.137 671.574 883.387 671.574 883.387 671.574 883.387 671.558 883.387 671.418 883.411 671.293 883.483 671.153 883.516 670.108 883.749 669.094 884.047 668.096 884.458 667.784 884.587 667.504 884.789 667.192 884.942 666.396 885.32 665.586 885.683 664.837 886.191 664.65 886.32 664.494 886.497 664.307 886.634 663.511 887.206 662.732 887.802 662.03 888.511L538.615 1011.74 486.156 959.341C478.795 952.001 466.865 952.001 459.505 959.341 452.16 966.68 452.16 978.581 459.505 985.929L525.189 1051.51C528.885 1055.21 533.766 1057.03 538.615 1057 543.481 1057.03 548.331 1055.2 552.042 1051.51L616.884 986.759 703.948 986.759C714.334 986.759 722.77 978.339 722.77 967.962 722.77 957.576 714.334 949.156 703.948 949.156L654.529 949.156 683.129 920.602 770.177 920.602C780.563 920.602 789 912.183 789 901.805 789 891.42 780.563 883 770.177 883L675.363 883C675.348 883 675.348 883 675.332 883Z" fill="#FFFFFF" fill-rule="evenodd"/><path d="M276.332 883C275.069 883 273.821 883.137 272.574 883.387 272.574 883.387 272.574 883.387 272.558 883.387 272.418 883.411 272.293 883.483 272.153 883.516 271.108 883.749 270.094 884.047 269.096 884.458 268.784 884.587 268.504 884.789 268.192 884.942 267.396 885.32 266.586 885.683 265.837 886.191 265.65 886.32 265.494 886.497 265.307 886.634 264.511 887.206 263.732 887.802 263.03 888.511L139.615 1011.74 87.1558 959.341C79.7952 952.001 67.8654 952.001 60.5048 959.341 53.1599 966.68 53.1599 978.581 60.5048 985.929L126.189 1051.51C129.885 1055.21 134.766 1057.03 139.615 1057 144.481 1057.03 149.331 1055.2 153.042 1051.51L217.884 986.759 304.948 986.759C315.334 986.759 323.77 978.339 323.77 967.962 323.77 957.576 315.334 949.156 304.948 949.156L255.529 949.156 284.129 920.602 371.177 920.602C381.563 920.602 390 912.183 390 901.805 390 891.42 381.563 883 371.177 883L276.363 883C276.348 883 276.348 883 276.332 883Z" fill="#FFFFFF" fill-rule="evenodd"/><path d="M1068.33 883C1067.07 883 1065.82 883.137 1064.57 883.387 1064.57 883.387 1064.57 883.387 1064.56 883.387 1064.42 883.411 1064.29 883.483 1064.15 883.516 1063.11 883.749 1062.09 884.047 1061.1 884.458 1060.78 884.587 1060.5 884.789 1060.19 884.942 1059.4 885.32 1058.59 885.683 1057.84 886.191 1057.65 886.32 1057.49 886.497 1057.31 886.634 1056.51 887.206 1055.73 887.802 1055.03 888.511L931.615 1011.74 879.156 959.341C871.795 952.001 859.865 952.001 852.505 959.341 845.16 966.68 845.16 978.581 852.505 985.929L918.189 1051.51C921.885 1055.21 926.766 1057.03 931.615 1057 936.481 1057.03 941.331 1055.2 945.042 1051.51L1009.88 986.759 1096.95 986.759C1107.33 986.759 1115.77 978.339 1115.77 967.962 1115.77 957.576 1107.33 949.156 1096.95 949.156L1047.53 949.156 1076.13 920.602 1163.18 920.602C1173.56 920.602 1182 912.183 1182 901.805 1182 891.42 1173.56 883 1163.18 883L1068.36 883C1068.35 883 1068.35 883 1068.33 883Z" fill="#FFFFFF" fill-rule="evenodd"/><path d="M1461.33 883C1460.07 883 1458.82 883.137 1457.57 883.387 1457.57 883.387 1457.57 883.387 1457.56 883.387 1457.42 883.411 1457.29 883.483 1457.15 883.516 1456.11 883.749 1455.09 884.047 1454.1 884.458 1453.78 884.587 1453.5 884.789 1453.19 884.942 1452.4 885.32 1451.59 885.683 1450.84 886.191 1450.65 886.32 1450.49 886.497 1450.31 886.634 1449.51 887.206 1448.73 887.802 1448.03 888.511L1324.62 1011.74 1272.16 959.341C1264.8 952.001 1252.87 952.001 1245.5 959.341 1238.16 966.68 1238.16 978.581 1245.5 985.929L1311.19 1051.51C1314.88 1055.21 1319.77 1057.03 1324.62 1057 1329.48 1057.03 1334.33 1055.2 1338.04 1051.51L1402.88 986.759 1489.95 986.759C1500.33 986.759 1508.77 978.339 1508.77 967.962 1508.77 957.576 1500.33 949.156 1489.95 949.156L1440.53 949.156 1469.13 920.602 1556.18 920.602C1566.56 920.602 1575 912.183 1575 901.805 1575 891.42 1566.56 883 1556.18 883L1461.36 883C1461.35 883 1461.35 883 1461.33 883Z" fill="#FFFFFF" fill-rule="evenodd"/><path d="M1854.33 883C1853.07 883 1851.82 883.137 1850.57 883.387 1850.57 883.387 1850.57 883.387 1850.56 883.387 1850.42 883.411 1850.29 883.483 1850.15 883.516 1849.11 883.749 1848.09 884.047 1847.1 884.458 1846.78 884.587 1846.5 884.789 1846.19 884.942 1845.4 885.32 1844.59 885.683 1843.84 886.191 1843.65 886.32 1843.49 886.497 1843.31 886.634 1842.51 887.206 1841.73 887.802 1841.03 888.511L1717.62 1011.74 1665.16 959.341C1657.8 952.001 1645.87 952.001 1638.5 959.341 1631.16 966.68 1631.16 978.581 1638.5 985.929L1704.19 1051.51C1707.88 1055.21 1712.77 1057.03 1717.62 1057 1722.48 1057.03 1727.33 1055.2 1731.04 1051.51L1795.88 986.759 1882.95 986.759C1893.33 986.759 1901.77 978.339 1901.77 967.962 1901.77 957.576 1893.33 949.156 1882.95 949.156L1833.53 949.156 1862.13 920.602 1949.18 920.602C1959.56 920.602 1968 912.183 1968 901.805 1968 891.42 1959.56 883 1949.18 883L1854.36 883C1854.35 883 1854.35 883 1854.33 883Z" fill="#FFFFFF" fill-rule="evenodd"/><path d="M2247.67 883C2246.41 883 2245.17 883.137 2243.92 883.387 2243.92 883.387 2243.92 883.387 2243.91 883.387 2243.77 883.411 2243.64 883.483 2243.5 883.516 2242.46 883.749 2241.45 884.047 2240.46 884.458 2240.15 884.587 2239.87 884.789 2239.56 884.942 2238.76 885.32 2237.95 885.683 2237.21 886.191 2237.02 886.32 2236.87 886.497 2236.68 886.634 2235.89 887.206 2235.11 887.802 2234.41 888.511L2111.36 1011.74 2059.06 959.341C2051.72 952.001 2039.83 952.001 2032.49 959.341 2025.17 966.68 2025.17 978.581 2032.49 985.929L2097.98 1051.51C2101.66 1055.21 2106.53 1057.03 2111.36 1057 2116.21 1057.03 2121.05 1055.2 2124.75 1051.51L2189.4 986.759 2276.2 986.759C2286.56 986.759 2294.97 978.339 2294.97 967.962 2294.97 957.576 2286.56 949.156 2276.2 949.156L2226.93 949.156 2255.45 920.602 2342.23 920.602C2352.59 920.602 2361 912.183 2361 901.805 2361 891.42 2352.59 883 2342.23 883L2247.7 883C2247.69 883 2247.69 883 2247.67 883Z" fill="#FFFFFF" fill-rule="evenodd"/><path d="M2640.67 883C2639.41 883 2638.17 883.137 2636.92 883.387 2636.92 883.387 2636.92 883.387 2636.91 883.387 2636.77 883.411 2636.64 883.483 2636.5 883.516 2635.46 883.749 2634.45 884.047 2633.46 884.458 2633.15 884.587 2632.87 884.789 2632.56 884.942 2631.76 885.32 2630.95 885.683 2630.21 886.191 2630.02 886.32 2629.87 886.497 2629.68 886.634 2628.89 887.206 2628.11 887.802 2627.41 888.511L2504.36 1011.74 2452.06 959.341C2444.72 952.001 2432.83 952.001 2425.49 959.341 2418.17 966.68 2418.17 978.581 2425.49 985.929L2490.98 1051.51C2494.66 1055.21 2499.53 1057.03 2504.36 1057 2509.21 1057.03 2514.05 1055.2 2517.75 1051.51L2582.4 986.759 2669.2 986.759C2679.56 986.759 2687.97 978.339 2687.97 967.962 2687.97 957.576 2679.56 949.156 2669.2 949.156L2619.93 949.156 2648.45 920.602 2735.23 920.602C2745.59 920.602 2754 912.183 2754 901.805 2754 891.42 2745.59 883 2735.23 883L2640.7 883C2640.69 883 2640.69 883 2640.67 883Z" fill="#FFFFFF" fill-rule="evenodd"/><path d="M813.332 1133C812.069 1133 810.821 1133.14 809.574 1133.39 809.574 1133.39 809.574 1133.39 809.558 1133.39 809.418 1133.41 809.293 1133.48 809.153 1133.52 808.108 1133.75 807.094 1134.05 806.096 1134.46 805.784 1134.59 805.504 1134.79 805.192 1134.94 804.396 1135.32 803.586 1135.68 802.837 1136.19 802.65 1136.32 802.494 1136.5 802.307 1136.63 801.511 1137.21 800.732 1137.8 800.03 1138.51L676.615 1261.74 624.156 1209.34C616.795 1202 604.865 1202 597.505 1209.34 590.16 1216.68 590.16 1228.58 597.505 1235.93L663.189 1301.51C666.885 1305.21 671.766 1307.03 676.615 1307 681.481 1307.03 686.331 1305.2 690.042 1301.51L754.884 1236.76 841.948 1236.76C852.334 1236.76 860.77 1228.34 860.77 1217.96 860.77 1207.58 852.334 1199.16 841.948 1199.16L792.529 1199.16 821.129 1170.6 908.177 1170.6C918.563 1170.6 927 1162.18 927 1151.81 927 1141.42 918.563 1133 908.177 1133L813.363 1133C813.348 1133 813.348 1133 813.332 1133Z" fill="#FFFFFF" fill-rule="evenodd"/><path d="M414.332 1133C413.069 1133 411.821 1133.14 410.574 1133.39 410.574 1133.39 410.574 1133.39 410.558 1133.39 410.418 1133.41 410.293 1133.48 410.153 1133.52 409.108 1133.75 408.094 1134.05 407.096 1134.46 406.784 1134.59 406.504 1134.79 406.192 1134.94 405.396 1135.32 404.586 1135.68 403.837 1136.19 403.65 1136.32 403.494 1136.5 403.307 1136.63 402.511 1137.21 401.732 1137.8 401.03 1138.51L277.615 1261.74 225.156 1209.34C217.795 1202 205.865 1202 198.505 1209.34 191.16 1216.68 191.16 1228.58 198.505 1235.93L264.189 1301.51C267.885 1305.21 272.766 1307.03 277.615 1307 282.481 1307.03 287.331 1305.2 291.042 1301.51L355.884 1236.76 442.948 1236.76C453.334 1236.76 461.77 1228.34 461.77 1217.96 461.77 1207.58 453.334 1199.16 442.948 1199.16L393.529 1199.16 422.129 1170.6 509.177 1170.6C519.563 1170.6 528 1162.18 528 1151.81 528 1141.42 519.563 1133 509.177 1133L414.363 1133C414.348 1133 414.348 1133 414.332 1133Z" fill="#FFFFFF" fill-rule="evenodd"/><path d="M21.332 1133C20.0689 1133 18.8213 1133.14 17.5738 1133.39 17.5738 1133.39 17.5738 1133.39 17.5582 1133.39 17.4178 1133.41 17.2931 1133.48 17.1527 1133.52 16.1079 1133.75 15.0943 1134.05 14.0962 1134.46 13.7843 1134.59 13.5036 1134.79 13.1917 1134.94 12.3964 1135.32 11.5855 1135.68 10.837 1136.19 10.6498 1136.32 10.4939 1136.5 10.3068 1136.63 9.51144 1137.21 8.73172 1137.8 8.02997 1138.51L-115.385 1261.74-167.844 1209.34C-175.205 1202-187.135 1202-194.495 1209.34-201.84 1216.68-201.84 1228.58-194.495 1235.93L-128.811 1301.51C-125.115 1305.21-120.234 1307.03-115.385 1307-110.519 1307.03-105.669 1305.2-101.958 1301.51L-37.116 1236.76 49.9479 1236.76C60.3338 1236.76 68.7704 1228.34 68.7704 1217.96 68.7704 1207.58 60.3338 1199.16 49.9479 1199.16L0.529037 1199.16 29.1293 1170.6 116.177 1170.6C126.563 1170.6 135 1162.18 135 1151.81 135 1141.42 126.563 1133 116.177 1133L21.3632 1133C21.3476 1133 21.3476 1133 21.332 1133Z" fill="#FFFFFF" fill-rule="evenodd"/><path d="M1206.33 1133C1205.07 1133 1203.82 1133.14 1202.57 1133.39 1202.57 1133.39 1202.57 1133.39 1202.56 1133.39 1202.42 1133.41 1202.29 1133.48 1202.15 1133.52 1201.11 1133.75 1200.09 1134.05 1199.1 1134.46 1198.78 1134.59 1198.5 1134.79 1198.19 1134.94 1197.4 1135.32 1196.59 1135.68 1195.84 1136.19 1195.65 1136.32 1195.49 1136.5 1195.31 1136.63 1194.51 1137.21 1193.73 1137.8 1193.03 1138.51L1069.62 1261.74 1017.16 1209.34C1009.8 1202 997.865 1202 990.505 1209.34 983.16 1216.68 983.16 1228.58 990.505 1235.93L1056.19 1301.51C1059.88 1305.21 1064.77 1307.03 1069.62 1307 1074.48 1307.03 1079.33 1305.2 1083.04 1301.51L1147.88 1236.76 1234.95 1236.76C1245.33 1236.76 1253.77 1228.34 1253.77 1217.96 1253.77 1207.58 1245.33 1199.16 1234.95 1199.16L1185.53 1199.16 1214.13 1170.6 1301.18 1170.6C1311.56 1170.6 1320 1162.18 1320 1151.81 1320 1141.42 1311.56 1133 1301.18 1133L1206.36 1133C1206.35 1133 1206.35 1133 1206.33 1133Z" fill="#FFFFFF" fill-rule="evenodd"/><path d="M1599.33 1133C1598.07 1133 1596.82 1133.14 1595.57 1133.39 1595.57 1133.39 1595.57 1133.39 1595.56 1133.39 1595.42 1133.41 1595.29 1133.48 1595.15 1133.52 1594.11 1133.75 1593.09 1134.05 1592.1 1134.46 1591.78 1134.59 1591.5 1134.79 1591.19 1134.94 1590.4 1135.32 1589.59 1135.68 1588.84 1136.19 1588.65 1136.32 1588.49 1136.5 1588.31 1136.63 1587.51 1137.21 1586.73 1137.8 1586.03 1138.51L1462.62 1261.74 1410.16 1209.34C1402.8 1202 1390.87 1202 1383.5 1209.34 1376.16 1216.68 1376.16 1228.58 1383.5 1235.93L1449.19 1301.51C1452.88 1305.21 1457.77 1307.03 1462.62 1307 1467.48 1307.03 1472.33 1305.2 1476.04 1301.51L1540.88 1236.76 1627.95 1236.76C1638.33 1236.76 1646.77 1228.34 1646.77 1217.96 1646.77 1207.58 1638.33 1199.16 1627.95 1199.16L1578.53 1199.16 1607.13 1170.6 1694.18 1170.6C1704.56 1170.6 1713 1162.18 1713 1151.81 1713 1141.42 1704.56 1133 1694.18 1133L1599.36 1133C1599.35 1133 1599.35 1133 1599.33 1133Z" fill="#FFFFFF" fill-rule="evenodd"/><path d="M1992.33 1133C1991.07 1133 1989.82 1133.14 1988.57 1133.39 1988.57 1133.39 1988.57 1133.39 1988.56 1133.39 1988.42 1133.41 1988.29 1133.48 1988.15 1133.52 1987.11 1133.75 1986.09 1134.05 1985.1 1134.46 1984.78 1134.59 1984.5 1134.79 1984.19 1134.94 1983.4 1135.32 1982.59 1135.68 1981.84 1136.19 1981.65 1136.32 1981.49 1136.5 1981.31 1136.63 1980.51 1137.21 1979.73 1137.8 1979.03 1138.51L1855.62 1261.74 1803.16 1209.34C1795.8 1202 1783.87 1202 1776.5 1209.34 1769.16 1216.68 1769.16 1228.58 1776.5 1235.93L1842.19 1301.51C1845.88 1305.21 1850.77 1307.03 1855.62 1307 1860.48 1307.03 1865.33 1305.2 1869.04 1301.51L1933.88 1236.76 2020.95 1236.76C2031.33 1236.76 2039.77 1228.34 2039.77 1217.96 2039.77 1207.58 2031.33 1199.16 2020.95 1199.16L1971.53 1199.16 2000.13 1170.6 2087.18 1170.6C2097.56 1170.6 2106 1162.18 2106 1151.81 2106 1141.42 2097.56 1133 2087.18 1133L1992.36 1133C1992.35 1133 1992.35 1133 1992.33 1133Z" fill="#FFFFFF" fill-rule="evenodd"/><path d="M2385.67 1133C2384.41 1133 2383.17 1133.14 2381.92 1133.39 2381.92 1133.39 2381.92 1133.39 2381.91 1133.39 2381.77 1133.41 2381.64 1133.48 2381.5 1133.52 2380.46 1133.75 2379.45 1134.05 2378.46 1134.46 2378.15 1134.59 2377.87 1134.79 2377.56 1134.94 2376.76 1135.32 2375.95 1135.68 2375.21 1136.19 2375.02 1136.32 2374.87 1136.5 2374.68 1136.63 2373.89 1137.21 2373.11 1137.8 2372.41 1138.51L2249.36 1261.74 2197.06 1209.34C2189.72 1202 2177.83 1202 2170.49 1209.34 2163.17 1216.68 2163.17 1228.58 2170.49 1235.93L2235.98 1301.51C2239.66 1305.21 2244.53 1307.03 2249.36 1307 2254.21 1307.03 2259.05 1305.2 2262.75 1301.51L2327.4 1236.76 2414.2 1236.76C2424.56 1236.76 2432.97 1228.34 2432.97 1217.96 2432.97 1207.58 2424.56 1199.16 2414.2 1199.16L2364.93 1199.16 2393.45 1170.6 2480.23 1170.6C2490.59 1170.6 2499 1162.18 2499 1151.81 2499 1141.42 2490.59 1133 2480.23 1133L2385.7 1133C2385.69 1133 2385.69 1133 2385.67 1133Z" fill="#FFFFFF" fill-rule="evenodd"/><path d="M2778.67 1133C2777.41 1133 2776.17 1133.14 2774.92 1133.39 2774.92 1133.39 2774.92 1133.39 2774.91 1133.39 2774.77 1133.41 2774.64 1133.48 2774.5 1133.52 2773.46 1133.75 2772.45 1134.05 2771.46 1134.46 2771.15 1134.59 2770.87 1134.79 2770.56 1134.94 2769.76 1135.32 2768.95 1135.68 2768.21 1136.19 2768.02 1136.32 2767.87 1136.5 2767.68 1136.63 2766.89 1137.21 2766.11 1137.8 2765.41 1138.51L2642.36 1261.74 2590.06 1209.34C2582.72 1202 2570.83 1202 2563.49 1209.34 2556.17 1216.68 2556.17 1228.58 2563.49 1235.93L2628.98 1301.51C2632.66 1305.21 2637.53 1307.03 2642.36 1307 2647.21 1307.03 2652.05 1305.2 2655.75 1301.51L2720.4 1236.76 2807.2 1236.76C2817.56 1236.76 2825.97 1228.34 2825.97 1217.96 2825.97 1207.58 2817.56 1199.16 2807.2 1199.16L2757.93 1199.16 2786.45 1170.6 2873.23 1170.6C2883.59 1170.6 2892 1162.18 2892 1151.81 2892 1141.42 2883.59 1133 2873.23 1133L2778.7 1133C2778.69 1133 2778.69 1133 2778.67 1133Z" fill="#FFFFFF" fill-rule="evenodd"/><path d="M675.332 1383C674.069 1383 672.821 1383.14 671.574 1383.39 671.574 1383.39 671.574 1383.39 671.558 1383.39 671.418 1383.41 671.293 1383.48 671.153 1383.52 670.108 1383.75 669.094 1384.05 668.096 1384.46 667.784 1384.59 667.504 1384.79 667.192 1384.94 666.396 1385.32 665.586 1385.68 664.837 1386.19 664.65 1386.32 664.494 1386.5 664.307 1386.63 663.511 1387.21 662.732 1387.8 662.03 1388.51L538.615 1511.74 486.156 1459.34C478.795 1452 466.865 1452 459.505 1459.34 452.16 1466.68 452.16 1478.58 459.505 1485.93L525.189 1551.51C528.885 1555.21 533.766 1557.03 538.615 1557 543.481 1557.03 548.331 1555.2 552.042 1551.51L616.884 1486.76 703.948 1486.76C714.334 1486.76 722.77 1478.34 722.77 1467.96 722.77 1457.58 714.334 1449.16 703.948 1449.16L654.529 1449.16 683.129 1420.6 770.177 1420.6C780.563 1420.6 789 1412.18 789 1401.81 789 1391.42 780.563 1383 770.177 1383L675.363 1383C675.348 1383 675.348 1383 675.332 1383Z" fill="#FFFFFF" fill-rule="evenodd"/><path d="M276.332 1383C275.069 1383 273.821 1383.14 272.574 1383.39 272.574 1383.39 272.574 1383.39 272.558 1383.39 272.418 1383.41 272.293 1383.48 272.153 1383.52 271.108 1383.75 270.094 1384.05 269.096 1384.46 268.784 1384.59 268.504 1384.79 268.192 1384.94 267.396 1385.32 266.586 1385.68 265.837 1386.19 265.65 1386.32 265.494 1386.5 265.307 1386.63 264.511 1387.21 263.732 1387.8 263.03 1388.51L139.615 1511.74 87.1558 1459.34C79.7952 1452 67.8654 1452 60.5048 1459.34 53.1599 1466.68 53.1599 1478.58 60.5048 1485.93L126.189 1551.51C129.885 1555.21 134.766 1557.03 139.615 1557 144.481 1557.03 149.331 1555.2 153.042 1551.51L217.884 1486.76 304.948 1486.76C315.334 1486.76 323.77 1478.34 323.77 1467.96 323.77 1457.58 315.334 1449.16 304.948 1449.16L255.529 1449.16 284.129 1420.6 371.177 1420.6C381.563 1420.6 390 1412.18 390 1401.81 390 1391.42 381.563 1383 371.177 1383L276.363 1383C276.348 1383 276.348 1383 276.332 1383Z" fill="#FFFFFF" fill-rule="evenodd"/><path d="M1068.33 1383C1067.07 1383 1065.82 1383.14 1064.57 1383.39 1064.57 1383.39 1064.57 1383.39 1064.56 1383.39 1064.42 1383.41 1064.29 1383.48 1064.15 1383.52 1063.11 1383.75 1062.09 1384.05 1061.1 1384.46 1060.78 1384.59 1060.5 1384.79 1060.19 1384.94 1059.4 1385.32 1058.59 1385.68 1057.84 1386.19 1057.65 1386.32 1057.49 1386.5 1057.31 1386.63 1056.51 1387.21 1055.73 1387.8 1055.03 1388.51L931.615 1511.74 879.156 1459.34C871.795 1452 859.865 1452 852.505 1459.34 845.16 1466.68 845.16 1478.58 852.505 1485.93L918.189 1551.51C921.885 1555.21 926.766 1557.03 931.615 1557 936.481 1557.03 941.331 1555.2 945.042 1551.51L1009.88 1486.76 1096.95 1486.76C1107.33 1486.76 1115.77 1478.34 1115.77 1467.96 1115.77 1457.58 1107.33 1449.16 1096.95 1449.16L1047.53 1449.16 1076.13 1420.6 1163.18 1420.6C1173.56 1420.6 1182 1412.18 1182 1401.81 1182 1391.42 1173.56 1383 1163.18 1383L1068.36 1383C1068.35 1383 1068.35 1383 1068.33 1383Z" fill="#FFFFFF" fill-rule="evenodd"/><path d="M1461.33 1383C1460.07 1383 1458.82 1383.14 1457.57 1383.39 1457.57 1383.39 1457.57 1383.39 1457.56 1383.39 1457.42 1383.41 1457.29 1383.48 1457.15 1383.52 1456.11 1383.75 1455.09 1384.05 1454.1 1384.46 1453.78 1384.59 1453.5 1384.79 1453.19 1384.94 1452.4 1385.32 1451.59 1385.68 1450.84 1386.19 1450.65 1386.32 1450.49 1386.5 1450.31 1386.63 1449.51 1387.21 1448.73 1387.8 1448.03 1388.51L1324.62 1511.74 1272.16 1459.34C1264.8 1452 1252.87 1452 1245.5 1459.34 1238.16 1466.68 1238.16 1478.58 1245.5 1485.93L1311.19 1551.51C1314.88 1555.21 1319.77 1557.03 1324.62 1557 1329.48 1557.03 1334.33 1555.2 1338.04 1551.51L1402.88 1486.76 1489.95 1486.76C1500.33 1486.76 1508.77 1478.34 1508.77 1467.96 1508.77 1457.58 1500.33 1449.16 1489.95 1449.16L1440.53 1449.16 1469.13 1420.6 1556.18 1420.6C1566.56 1420.6 1575 1412.18 1575 1401.81 1575 1391.42 1566.56 1383 1556.18 1383L1461.36 1383C1461.35 1383 1461.35 1383 1461.33 1383Z" fill="#FFFFFF" fill-rule="evenodd"/><path d="M1854.33 1383C1853.07 1383 1851.82 1383.14 1850.57 1383.39 1850.57 1383.39 1850.57 1383.39 1850.56 1383.39 1850.42 1383.41 1850.29 1383.48 1850.15 1383.52 1849.11 1383.75 1848.09 1384.05 1847.1 1384.46 1846.78 1384.59 1846.5 1384.79 1846.19 1384.94 1845.4 1385.32 1844.59 1385.68 1843.84 1386.19 1843.65 1386.32 1843.49 1386.5 1843.31 1386.63 1842.51 1387.21 1841.73 1387.8 1841.03 1388.51L1717.62 1511.74 1665.16 1459.34C1657.8 1452 1645.87 1452 1638.5 1459.34 1631.16 1466.68 1631.16 1478.58 1638.5 1485.93L1704.19 1551.51C1707.88 1555.21 1712.77 1557.03 1717.62 1557 1722.48 1557.03 1727.33 1555.2 1731.04 1551.51L1795.88 1486.76 1882.95 1486.76C1893.33 1486.76 1901.77 1478.34 1901.77 1467.96 1901.77 1457.58 1893.33 1449.16 1882.95 1449.16L1833.53 1449.16 1862.13 1420.6 1949.18 1420.6C1959.56 1420.6 1968 1412.18 1968 1401.81 1968 1391.42 1959.56 1383 1949.18 1383L1854.36 1383C1854.35 1383 1854.35 1383 1854.33 1383Z" fill="#FFFFFF" fill-rule="evenodd"/><path d="M2247.67 1383C2246.41 1383 2245.17 1383.14 2243.92 1383.39 2243.92 1383.39 2243.92 1383.39 2243.91 1383.39 2243.77 1383.41 2243.64 1383.48 2243.5 1383.52 2242.46 1383.75 2241.45 1384.05 2240.46 1384.46 2240.15 1384.59 2239.87 1384.79 2239.56 1384.94 2238.76 1385.32 2237.95 1385.68 2237.21 1386.19 2237.02 1386.32 2236.87 1386.5 2236.68 1386.63 2235.89 1387.21 2235.11 1387.8 2234.41 1388.51L2111.36 1511.74 2059.06 1459.34C2051.72 1452 2039.83 1452 2032.49 1459.34 2025.17 1466.68 2025.17 1478.58 2032.49 1485.93L2097.98 1551.51C2101.66 1555.21 2106.53 1557.03 2111.36 1557 2116.21 1557.03 2121.05 1555.2 2124.75 1551.51L2189.4 1486.76 2276.2 1486.76C2286.56 1486.76 2294.97 1478.34 2294.97 1467.96 2294.97 1457.58 2286.56 1449.16 2276.2 1449.16L2226.93 1449.16 2255.45 1420.6 2342.23 1420.6C2352.59 1420.6 2361 1412.18 2361 1401.81 2361 1391.42 2352.59 1383 2342.23 1383L2247.7 1383C2247.69 1383 2247.69 1383 2247.67 1383Z" fill="#FFFFFF" fill-rule="evenodd"/><path d="M2640.67 1383C2639.41 1383 2638.17 1383.14 2636.92 1383.39 2636.92 1383.39 2636.92 1383.39 2636.91 1383.39 2636.77 1383.41 2636.64 1383.48 2636.5 1383.52 2635.46 1383.75 2634.45 1384.05 2633.46 1384.46 2633.15 1384.59 2632.87 1384.79 2632.56 1384.94 2631.76 1385.32 2630.95 1385.68 2630.21 1386.19 2630.02 1386.32 2629.87 1386.5 2629.68 1386.63 2628.89 1387.21 2628.11 1387.8 2627.41 1388.51L2504.36 1511.74 2452.06 1459.34C2444.72 1452 2432.83 1452 2425.49 1459.34 2418.17 1466.68 2418.17 1478.58 2425.49 1485.93L2490.98 1551.51C2494.66 1555.21 2499.53 1557.03 2504.36 1557 2509.21 1557.03 2514.05 1555.2 2517.75 1551.51L2582.4 1486.76 2669.2 1486.76C2679.56 1486.76 2687.97 1478.34 2687.97 1467.96 2687.97 1457.58 2679.56 1449.16 2669.2 1449.16L2619.93 1449.16 2648.45 1420.6 2735.23 1420.6C2745.59 1420.6 2754 1412.18 2754 1401.81 2754 1391.42 2745.59 1383 2735.23 1383L2640.7 1383C2640.69 1383 2640.69 1383 2640.67 1383Z" fill="#FFFFFF" fill-rule="evenodd"/></g></svg>