<svg width="2560" height="1440" xmlns="http://www.w3.org/2000/svg" xmlns:xlink="http://www.w3.org/1999/xlink" overflow="hidden"><defs><clipPath id="clip0"><path d="M0 0 2560 0 2560 1440 0 1440Z" fill-rule="evenodd" clip-rule="evenodd"/></clipPath></defs><g clip-path="url(#clip0)"><rect x="0" y="0" width="2560" height="1440" fill="#333333"/><path d="M1521 668C1549.72 668 1573 691.281 1573 720L1573 720C1573 748.719 1549.72 772 1521 772L1262 772C1233.28 772 1210 748.719 1210 720L1210 720C1210 691.281 1233.28 668 1262 668Z" fill="#FFFFFF" fill-rule="evenodd" fill-opacity="0.8"/><path d="M1703.5 487C1731.94 487 1755 510.057 1755 538.5L1755 538.5C1755 566.943 1731.94 590 1703.5 590L1443.5 590C1415.06 590 1392 566.943 1392 538.5L1392 538.5C1392 510.057 1415.06 487 1443.5 487Z" fill="#FFFFFF" fill-rule="evenodd" fill-opacity="0.8"/><path d="M851.759 769.299C831.611 749.151 831.611 716.486 851.759 696.338L851.759 696.338C871.907 676.191 904.572 676.19 924.72 696.338L1104.68 876.298C1124.83 896.446 1124.83 929.112 1104.68 949.259L1104.68 949.259C1084.53 969.406 1051.87 969.406 1031.72 949.259Z" fill="#FFFFFF" fill-rule="evenodd" fill-opacity="0.8"/><path d="M1406.68 501.96C1426.83 481.813 1459.5 481.813 1479.64 501.961L1479.64 501.961C1499.79 522.108 1499.79 554.774 1479.64 574.922L1105.3 949.259C1085.16 969.407 1052.49 969.407 1032.34 949.259L1032.34 949.259C1012.2 929.111 1012.2 896.446 1032.34 876.298Z" fill="#FFFFFF" fill-rule="evenodd" fill-opacity="0.901961"/></g></svg>