<?xml version="1.0" encoding="UTF-8" standalone="no"?>
<svg
   xmlns:dc="http://purl.org/dc/elements/1.1/"
   xmlns:cc="http://creativecommons.org/ns#"
   xmlns:rdf="http://www.w3.org/1999/02/22-rdf-syntax-ns#"
   xmlns:svg="http://www.w3.org/2000/svg"
   xmlns="http://www.w3.org/2000/svg"
   xmlns:sodipodi="http://sodipodi.sourceforge.net/DTD/sodipodi-0.dtd"
   xmlns:inkscape="http://www.inkscape.org/namespaces/inkscape"
   width="2560"
   height="1440"
   overflow="hidden"
   version="1.1"
   id="svg103"
   sodipodi:docname="bg-dark.svg"
   inkscape:version="0.92.4 (5da689c313, 2019-01-14)">
  <metadata
     id="metadata107">
    <rdf:RDF>
      <cc:Work
         rdf:about="">
        <dc:format>image/svg+xml</dc:format>
        <dc:type
           rdf:resource="http://purl.org/dc/dcmitype/StillImage" />
      </cc:Work>
    </rdf:RDF>
  </metadata>
  <sodipodi:namedview
     pagecolor="#ffffff"
     bordercolor="#666666"
     borderopacity="1"
     objecttolerance="10"
     gridtolerance="10"
     guidetolerance="10"
     inkscape:pageopacity="0"
     inkscape:pageshadow="2"
     inkscape:window-width="1600"
     inkscape:window-height="837"
     id="namedview105"
     showgrid="false"
     inkscape:zoom="0.5"
     inkscape:cx="1280"
     inkscape:cy="720"
     inkscape:window-x="-8"
     inkscape:window-y="-8"
     inkscape:window-maximized="1"
     inkscape:current-layer="svg103" />
  <defs
     id="defs5">
    <clipPath
       id="clip0">
      <path
         d="M0 0 2560 0 2560 1440 0 1440Z"
         fill-rule="evenodd"
         clip-rule="evenodd"
         id="path2" />
    </clipPath>
  </defs>
  <rect
     id="rect7"
     height="1440"
     width="2560"
     y="0"
     x="0"
     style="fill:#151515;fill-opacity:1" />
  <path
     style="fill:#ffffff;fill-rule:evenodd"
     inkscape:connector-curvature="0"
     id="path9"
     d="m 696.93,-88 c -1.583,0 -3.165,0.3365 -4.633,1.0267 -2.594,1.3459 -4.437,3.2008 -8.091,6.8674 L 559.174,45.3292 505.572,-8.4632 c -3.703,-3.7184 -5.563,-5.5734 -8.156,-6.9192 -2.936,-1.3804 -6.329,-1.3804 -9.266,0 -2.593,1.3458 -4.42,3.2094 -8.074,6.87607 l -3.214,3.19217 c -3.653,3.67531 -5.497,5.530217 -6.834,8.10983 -1.371,2.95061 -1.371,6.35846 0,9.30043 1.337,2.5969 3.197,4.469 6.834,8.1271 l 62.036,62.2214 c 1.076,1.251 2.463,2.6314 4.29,4.4604 l 3.132,3.1491 c 3.702,3.7098 5.562,5.5647 8.156,6.9192 2.936,1.3718 6.313,1.3718 9.249,0 2.593,-1.3545 4.453,-3.2094 8.107,-6.8674 l 63.715,-63.9297 h 95.328 c 5.449,0 8.173,-0.0087 11.076,-0.9318 3.181,-1.1561 5.677,-3.6667 6.835,-6.8502 0.914,-2.9075 0.93,-5.651 0.93,-11.04321 V 2.71803 c 0,-5.46983 -0.016,-8.20475 -0.93,-11.1122 -1.158,-3.18353 -3.654,-5.70273 -6.835,-6.85883 -2.903,-0.9232 -5.627,-0.9232 -11.01,-0.9232 h -53.178 l 29.378,-29.4801 h 95.018 c 5.465,0 8.189,-0.0086 11.093,-0.9318 3.181,-1.156 5.676,-3.658 6.818,-6.8416 0.93,-2.9074 0.93,-5.651 0.93,-11.0431 v -4.6416 c 0,-5.4785 0,-8.2134 -0.93,-11.1209 -1.142,-3.1835 -3.637,-5.6941 -6.818,-6.8502 C 810.348,-88.0086 807.624,-88 802.257,-88 h -96.943 c -2.969,0 -5.089,0.0086 -6.916,0.1553 C 697.908,-87.9137 697.419,-88 696.93,-88 Z" />
  <path
     style="fill:#ffffff;fill-rule:evenodd"
     inkscape:connector-curvature="0"
     id="path11"
     d="m 945.07,98 c 1.583,0 3.165,-0.3365 4.633,-1.0267 2.594,-1.3459 4.437,-3.2008 8.091,-6.8674 l 125.036,-125.4351 53.6,53.7924 c 3.7,3.7184 5.56,5.5734 8.15,6.9192 2.94,1.3804 6.33,1.3804 9.27,0 2.59,-1.3458 4.42,-3.2094 8.07,-6.8761 l 3.22,-3.1921 c 3.65,-3.6753 5.49,-5.53026 6.83,-8.10987 1.37,-2.95061 1.37,-6.358459 0,-9.30044 -1.34,-2.59687 -3.19,-4.46903 -6.83,-8.12709 l -62.04,-62.2214 c -1.07,-1.251 -2.46,-2.6314 -4.29,-4.4604 l -3.13,-3.1491 c -3.7,-3.7098 -5.56,-5.5647 -8.16,-6.9192 -2.93,-1.3718 -6.31,-1.3718 -9.24,0 -2.6,1.3545 -4.46,3.2094 -8.11,6.8674 l -63.72,63.9297 h -95.325 c -5.449,0 -8.173,0.0087 -11.076,0.9318 -3.181,1.1561 -5.677,3.6667 -6.835,6.85023 -0.914,2.90746 -0.93,5.65101 -0.93,11.04318 v 4.63296 c 0,5.46983 0.016,8.20473 0.93,11.11223 1.158,3.1835 3.654,5.7027 6.835,6.8588 2.903,0.9232 5.627,0.9232 11.01,0.9232 h 53.178 l -29.378,29.4801 h -95.018 c -5.465,0 -8.189,0.0086 -11.093,0.9318 -3.181,1.156 -5.676,3.658 -6.818,6.8416 C 821,66.3371 821,69.0807 821,74.4728 v 4.6416 c 0,5.4785 0,8.2134 0.93,11.1209 1.142,3.1835 3.637,5.6941 6.818,6.8502 2.904,0.9231 5.628,0.9145 10.995,0.9145 h 96.943 c 2.969,0 5.089,-0.0086 6.916,-0.1553 0.49,0.069 0.979,0.1553 1.468,0.1553 z" />
  <path
     style="fill:#ffffff;fill-rule:evenodd"
     inkscape:connector-curvature="0"
     id="path13"
     d="m 1478.93,-88 c -1.58,0 -3.16,0.3365 -4.63,1.0267 -2.6,1.3459 -4.44,3.2008 -8.09,6.8674 l -125.04,125.4351 -53.6,-53.7924 c -3.7,-3.7184 -5.56,-5.5734 -8.15,-6.9192 -2.94,-1.3804 -6.33,-1.3804 -9.27,0 -2.59,1.3458 -4.42,3.2094 -8.07,6.87607 l -3.22,3.19217 c -3.65,3.67531 -5.49,5.530217 -6.83,8.10983 -1.37,2.95061 -1.37,6.35846 0,9.30043 1.34,2.5969 3.19,4.469 6.83,8.1271 l 62.04,62.2214 c 1.07,1.251 2.46,2.6314 4.29,4.4604 l 3.13,3.1491 c 3.7,3.7098 5.56,5.5647 8.16,6.9192 2.93,1.3718 6.31,1.3718 9.24,0 2.6,-1.3545 4.46,-3.2094 8.11,-6.8674 l 63.72,-63.9297 h 95.33 c 5.44,0 8.17,-0.0087 11.07,-0.9318 3.18,-1.1561 5.68,-3.6667 6.84,-6.8502 0.91,-2.9075 0.93,-5.651 0.93,-11.04321 V 2.71803 c 0,-5.46983 -0.02,-8.20475 -0.93,-11.1122 -1.16,-3.18353 -3.66,-5.70273 -6.84,-6.85883 -2.9,-0.9232 -5.63,-0.9232 -11.01,-0.9232 h -53.18 l 29.38,-29.4801 h 95.02 c 5.46,0 8.19,-0.0086 11.09,-0.9318 3.18,-1.156 5.68,-3.658 6.82,-6.8416 0.93,-2.9074 0.93,-5.651 0.93,-11.0431 v -4.6416 c 0,-5.4785 0,-8.2134 -0.93,-11.1209 -1.14,-3.1835 -3.64,-5.6941 -6.82,-6.8502 -2.9,-0.9231 -5.63,-0.9145 -10.99,-0.9145 h -96.95 c -2.96,0 -5.09,0.0086 -6.91,0.1553 -0.49,-0.069 -0.98,-0.1553 -1.47,-0.1553 z" />
  <path
     style="fill:#ffffff;fill-rule:evenodd"
     inkscape:connector-curvature="0"
     id="path15"
     d="m 1727.07,98 c 1.58,0 3.16,-0.3365 4.63,-1.0267 2.6,-1.3459 4.44,-3.2008 8.09,-6.8674 l 125.04,-125.4351 53.6,53.7924 c 3.7,3.7184 5.56,5.5734 8.15,6.9192 2.94,1.3804 6.33,1.3804 9.27,0 2.59,-1.3458 4.42,-3.2094 8.07,-6.8761 l 3.22,-3.1921 c 3.65,-3.6753 5.49,-5.53026 6.83,-8.10987 1.37,-2.95061 1.37,-6.358459 0,-9.30044 -1.34,-2.59687 -3.19,-4.46903 -6.83,-8.12709 l -62.04,-62.2214 c -1.07,-1.251 -2.46,-2.6314 -4.29,-4.4604 l -3.13,-3.1491 c -3.7,-3.7098 -5.56,-5.5647 -8.16,-6.9192 -2.93,-1.3718 -6.31,-1.3718 -9.24,0 -2.6,1.3545 -4.46,3.2094 -8.11,6.8674 l -63.72,63.9297 h -95.33 c -5.44,0 -8.17,0.0087 -11.07,0.9318 -3.18,1.1561 -5.68,3.6667 -6.84,6.85023 -0.91,2.90746 -0.93,5.65101 -0.93,11.04318 v 4.63296 c 0,5.46983 0.02,8.20473 0.93,11.11223 1.16,3.1835 3.66,5.7027 6.84,6.8588 2.9,0.9232 5.63,0.9232 11.01,0.9232 h 53.18 l -29.38,29.4801 h -95.02 c -5.46,0 -8.19,0.0086 -11.09,0.9318 -3.18,1.156 -5.68,3.658 -6.82,6.8416 -0.93,2.9074 -0.93,5.651 -0.93,11.0431 v 4.6416 c 0,5.4785 0,8.2134 0.93,11.1209 1.14,3.1835 3.64,5.6941 6.82,6.8502 2.9,0.9231 5.63,0.9145 10.99,0.9145 h 96.95 c 2.96,0 5.09,-0.0086 6.91,-0.1553 0.49,0.069 0.98,0.1553 1.47,0.1553 z" />
  <path
     style="fill:#ffffff;fill-rule:evenodd"
     inkscape:connector-curvature="0"
     id="path17"
     d="m 2260.58,-88 c -1.59,0 -3.18,0.3365 -4.65,1.0267 -2.6,1.3459 -4.45,3.2008 -8.11,6.8674 L 2122.43,45.3292 2068.68,-8.4632 c -3.72,-3.7184 -5.58,-5.5734 -8.18,-6.9192 -2.95,-1.3804 -6.35,-1.3804 -9.3,0 -2.6,1.3458 -4.43,3.2094 -8.09,6.87607 l -3.23,3.19217 c -3.66,3.67531 -5.51,5.530217 -6.85,8.10983 -1.37,2.95061 -1.37,6.35846 0,9.30043 1.34,2.5969 3.21,4.469 6.85,8.1271 l 62.22,62.2214 c 1.08,1.251 2.47,2.6314 4.3,4.4604 l 3.14,3.1491 c 3.71,3.7098 5.58,5.5647 8.18,6.9192 2.94,1.3718 6.33,1.3718 9.27,0 2.6,-1.3545 4.47,-3.2094 8.13,-6.8674 l 63.9,-63.9297 h 95.6 c 5.46,0 8.19,-0.0087 11.11,-0.9318 3.19,-1.1561 5.69,-3.6667 6.85,-6.8502 0.92,-2.9075 0.93,-5.651 0.93,-11.04321 V 2.71803 c 0,-5.46983 -0.01,-8.20475 -0.93,-11.1122 -1.16,-3.18353 -3.66,-5.70273 -6.85,-6.85883 -2.92,-0.9232 -5.65,-0.9232 -11.05,-0.9232 h -53.32 l 29.46,-29.4801 h 95.29 c 5.48,0 8.21,-0.0086 11.12,-0.9318 3.19,-1.156 5.69,-3.658 6.84,-6.8416 0.93,-2.9074 0.93,-5.651 0.93,-11.0431 v -4.6416 c 0,-5.4785 0,-8.2134 -0.93,-11.1209 -1.15,-3.1835 -3.65,-5.6941 -6.84,-6.8502 C 2374.32,-88.0086 2371.59,-88 2366.2,-88 h -97.21 c -2.98,0 -5.11,0.0086 -6.94,0.1553 -0.49,-0.069 -0.98,-0.1553 -1.47,-0.1553 z" />
  <path
     style="fill:#ffffff;fill-rule:evenodd"
     inkscape:connector-curvature="0"
     id="path19"
     d="m 2509.07,98 c 1.58,0 3.16,-0.3365 4.63,-1.0267 2.6,-1.3459 4.44,-3.2008 8.09,-6.8674 l 125.04,-125.4351 53.6,53.7924 c 3.7,3.7184 5.56,5.5734 8.15,6.9192 2.94,1.3804 6.33,1.3804 9.27,0 2.59,-1.3458 4.42,-3.2094 8.07,-6.8761 l 3.22,-3.1921 c 3.65,-3.6753 5.49,-5.53026 6.83,-8.10987 1.37,-2.95061 1.37,-6.358459 0,-9.30044 -1.34,-2.59687 -3.19,-4.46903 -6.83,-8.12709 l -62.04,-62.2214 c -1.07,-1.251 -2.46,-2.6314 -4.29,-4.4604 l -3.13,-3.1491 c -3.7,-3.7098 -5.56,-5.5647 -8.16,-6.9192 -2.93,-1.3718 -6.31,-1.3718 -9.24,0 -2.6,1.3545 -4.46,3.2094 -8.11,6.8674 l -63.72,63.9297 h -95.33 c -5.44,0 -8.17,0.0087 -11.07,0.9318 -3.18,1.1561 -5.68,3.6667 -6.84,6.85023 -0.91,2.90746 -0.93,5.65101 -0.93,11.04318 v 4.63296 c 0,5.46983 0.02,8.20473 0.93,11.11223 1.16,3.1835 3.66,5.7027 6.84,6.8588 2.9,0.9232 5.63,0.9232 11.01,0.9232 h 53.18 l -29.38,29.4801 h -95.02 c -5.46,0 -8.19,0.0086 -11.09,0.9318 -3.18,1.156 -5.68,3.658 -6.82,6.8416 -0.93,2.9074 -0.93,5.651 -0.93,11.0431 v 4.6416 c 0,5.4785 0,8.2134 0.93,11.1209 1.14,3.1835 3.64,5.6941 6.82,6.8502 2.9,0.9231 5.63,0.9145 10.99,0.9145 h 96.95 c 2.96,0 5.09,-0.0086 6.91,-0.1553 0.49,0.069 0.98,0.1553 1.47,0.1553 z" />
  <path
     style="fill:#ffffff;fill-rule:evenodd"
     inkscape:connector-curvature="0"
     id="path21"
     d="m 163.423,98 c 1.587,0 3.173,-0.3365 4.646,-1.0267 2.601,-1.3459 4.449,-3.2008 8.113,-6.8674 L 301.57,-35.3292 355.324,18.4632 c 3.714,3.7184 5.578,5.5734 8.18,6.9192 2.944,1.3804 6.347,1.3804 9.291,0 2.601,-1.3458 4.433,-3.2094 8.098,-6.8761 l 3.222,-3.1921 c 3.665,-3.6753 5.513,-5.53026 6.854,-8.10987 1.375,-2.95061 1.375,-6.358459 0,-9.30044 -1.341,-2.59687 -3.206,-4.46903 -6.854,-8.12709 l -62.211,-62.2214 c -1.08,-1.251 -2.47,-2.6314 -4.302,-4.4604 l -3.141,-3.1491 c -3.714,-3.7098 -5.579,-5.5647 -8.18,-6.9192 -2.944,-1.3718 -6.33,-1.3718 -9.275,0 -2.601,1.3545 -4.466,3.2094 -8.13,6.8674 l -63.896,63.9297 h -95.599 c -5.464,0 -8.196,0.0087 -11.108,0.9318 -3.19,1.1561 -5.692,3.6667 -6.854,6.85023 -0.916,2.90746 -0.932,5.65101 -0.932,11.04318 v 4.63296 c 0,5.46983 0.016,8.20473 0.932,11.11223 1.162,3.1835 3.664,5.7027 6.854,6.8588 2.912,0.9232 5.644,0.9232 11.042,0.9232 h 53.329 L 153.182,55.6563 H 57.8941 c -5.4801,0 -8.212,0.0086 -11.1238,0.9318 -3.1899,1.156 -5.6928,3.658 -6.8378,6.8416 C 39,66.3371 39,69.0807 39,74.4728 v 4.6416 c 0,5.4785 0,8.2134 0.9325,11.1209 1.145,3.1835 3.6479,5.6941 6.8378,6.8502 C 49.6821,98.0086 52.414,98 57.7959,98 h 97.2181 c 2.978,0 5.104,-0.0086 6.936,-0.1553 0.491,0.069 0.982,0.1553 1.473,0.1553 z" />
  <path
     style="fill:#ffffff;fill-rule:evenodd"
     inkscape:connector-curvature="0"
     id="path23"
     d="m 832.93,198 c -1.583,0 -3.165,0.336 -4.633,1.027 -2.594,1.346 -4.437,3.2 -8.091,6.867 L 695.174,331.329 641.572,277.537 c -3.703,-3.719 -5.563,-5.574 -8.156,-6.919 -2.936,-1.381 -6.329,-1.381 -9.266,0 -2.593,1.345 -4.42,3.209 -8.074,6.876 l -3.214,3.192 c -3.653,3.675 -5.497,5.53 -6.834,8.11 -1.371,2.95 -1.371,6.358 0,9.3 1.337,2.597 3.197,4.469 6.834,8.127 l 62.036,62.222 c 1.076,1.251 2.463,2.631 4.29,4.46 l 3.132,3.149 c 3.702,3.71 5.562,5.565 8.156,6.919 2.936,1.372 6.313,1.372 9.249,0 2.593,-1.354 4.453,-3.209 8.107,-6.867 l 63.715,-63.93 h 95.328 c 5.449,0 8.173,-0.008 11.076,-0.932 3.181,-1.156 5.677,-3.666 6.835,-6.85 0.914,-2.907 0.93,-5.651 0.93,-11.043 v -4.633 c 0,-5.47 -0.016,-8.205 -0.93,-11.112 -1.158,-3.184 -3.654,-5.703 -6.835,-6.859 -2.903,-0.923 -5.627,-0.923 -11.01,-0.923 h -53.178 l 29.378,-29.48 h 95.018 c 5.465,0 8.189,-0.009 11.093,-0.932 3.181,-1.156 5.676,-3.658 6.818,-6.842 0.93,-2.907 0.93,-5.651 0.93,-11.043 v -4.641 c 0,-5.479 0,-8.214 -0.93,-11.121 -1.142,-3.184 -3.637,-5.694 -6.818,-6.85 C 946.348,197.991 943.624,198 938.257,198 h -96.943 c -2.969,0 -5.089,0.009 -6.916,0.155 -0.49,-0.069 -0.979,-0.155 -1.468,-0.155 z" />
  <path
     style="fill:#ffffff;fill-rule:evenodd"
     inkscape:connector-curvature="0"
     id="path25"
     d="m 1081.07,384 c 1.58,0 3.16,-0.336 4.63,-1.027 2.6,-1.346 4.44,-3.2 8.09,-6.867 l 125.04,-125.435 53.6,53.792 c 3.7,3.719 5.56,5.574 8.15,6.919 2.94,1.381 6.33,1.381 9.27,0 2.59,-1.345 4.42,-3.209 8.07,-6.876 l 3.22,-3.192 c 3.65,-3.675 5.49,-5.53 6.83,-8.11 1.37,-2.95 1.37,-6.358 0,-9.3 -1.34,-2.597 -3.19,-4.469 -6.83,-8.127 l -62.04,-62.222 c -1.07,-1.251 -2.46,-2.631 -4.29,-4.46 l -3.13,-3.149 c -3.7,-3.71 -5.56,-5.565 -8.16,-6.919 -2.93,-1.372 -6.31,-1.372 -9.24,0 -2.6,1.354 -4.46,3.209 -8.11,6.867 l -63.72,63.93 h -95.33 c -5.44,0 -8.17,0.008 -11.07,0.932 -3.18,1.156 -5.68,3.666 -6.84,6.85 -0.91,2.907 -0.93,5.651 -0.93,11.043 v 4.633 c 0,5.47 0.02,8.205 0.93,11.112 1.16,3.184 3.66,5.703 6.84,6.859 2.9,0.923 5.63,0.923 11.01,0.923 h 53.18 l -29.38,29.48 h -95.019 c -5.465,0 -8.189,0.009 -11.093,0.932 -3.181,1.156 -5.676,3.658 -6.818,6.842 -0.93,2.907 -0.93,5.651 -0.93,11.043 v 4.641 c 0,5.479 0,8.214 0.93,11.121 1.142,3.184 3.637,5.694 6.818,6.85 2.904,0.924 5.628,0.915 10.995,0.915 h 96.947 c 2.96,0 5.09,-0.009 6.91,-0.155 0.49,0.069 0.98,0.155 1.47,0.155 z" />
  <path
     style="fill:#ffffff;fill-rule:evenodd"
     inkscape:connector-curvature="0"
     id="path27"
     d="m 1614.93,198 c -1.58,0 -3.16,0.336 -4.63,1.027 -2.6,1.346 -4.44,3.2 -8.09,6.867 l -125.04,125.435 -53.6,-53.792 c -3.7,-3.719 -5.56,-5.574 -8.15,-6.919 -2.94,-1.381 -6.33,-1.381 -9.27,0 -2.59,1.345 -4.42,3.209 -8.07,6.876 l -3.22,3.192 c -3.65,3.675 -5.49,5.53 -6.83,8.11 -1.37,2.95 -1.37,6.358 0,9.3 1.34,2.597 3.19,4.469 6.83,8.127 l 62.04,62.222 c 1.07,1.251 2.46,2.631 4.29,4.46 l 3.13,3.149 c 3.7,3.71 5.56,5.565 8.16,6.919 2.93,1.372 6.31,1.372 9.24,0 2.6,-1.354 4.46,-3.209 8.11,-6.867 l 63.72,-63.93 h 95.33 c 5.44,0 8.17,-0.008 11.07,-0.932 3.18,-1.156 5.68,-3.666 6.84,-6.85 0.91,-2.907 0.93,-5.651 0.93,-11.043 v -4.633 c 0,-5.47 -0.02,-8.205 -0.93,-11.112 -1.16,-3.184 -3.66,-5.703 -6.84,-6.859 -2.9,-0.923 -5.63,-0.923 -11.01,-0.923 h -53.18 l 29.38,-29.48 h 95.02 c 5.46,0 8.19,-0.009 11.09,-0.932 3.18,-1.156 5.68,-3.658 6.82,-6.842 0.93,-2.907 0.93,-5.651 0.93,-11.043 v -4.641 c 0,-5.479 0,-8.214 -0.93,-11.121 -1.14,-3.184 -3.64,-5.694 -6.82,-6.85 -2.9,-0.924 -5.63,-0.915 -10.99,-0.915 h -96.95 c -2.96,0 -5.09,0.009 -6.91,0.155 -0.49,-0.069 -0.98,-0.155 -1.47,-0.155 z" />
  <path
     style="fill:#ffffff;fill-rule:evenodd"
     inkscape:connector-curvature="0"
     id="path29"
     d="m 1863.07,384 c 1.58,0 3.16,-0.336 4.63,-1.027 2.6,-1.346 4.44,-3.2 8.09,-6.867 l 125.04,-125.435 53.6,53.792 c 3.7,3.719 5.56,5.574 8.15,6.919 2.94,1.381 6.33,1.381 9.27,0 2.59,-1.345 4.42,-3.209 8.07,-6.876 l 3.22,-3.192 c 3.65,-3.675 5.49,-5.53 6.83,-8.11 1.37,-2.95 1.37,-6.358 0,-9.3 -1.34,-2.597 -3.19,-4.469 -6.83,-8.127 l -62.04,-62.222 c -1.07,-1.251 -2.46,-2.631 -4.29,-4.46 l -3.13,-3.149 c -3.7,-3.71 -5.56,-5.565 -8.16,-6.919 -2.93,-1.372 -6.31,-1.372 -9.24,0 -2.6,1.354 -4.46,3.209 -8.11,6.867 l -63.72,63.93 h -95.33 c -5.44,0 -8.17,0.008 -11.07,0.932 -3.18,1.156 -5.68,3.666 -6.84,6.85 -0.91,2.907 -0.93,5.651 -0.93,11.043 v 4.633 c 0,5.47 0.02,8.205 0.93,11.112 1.16,3.184 3.66,5.703 6.84,6.859 2.9,0.923 5.63,0.923 11.01,0.923 h 53.18 l -29.38,29.48 h -95.02 c -5.46,0 -8.19,0.009 -11.09,0.932 -3.18,1.156 -5.68,3.658 -6.82,6.842 -0.93,2.907 -0.93,5.651 -0.93,11.043 v 4.641 c 0,5.479 0,8.214 0.93,11.121 1.14,3.184 3.64,5.694 6.82,6.85 2.9,0.924 5.63,0.915 10.99,0.915 h 96.95 c 2.96,0 5.09,-0.009 6.91,-0.155 0.49,0.069 0.98,0.155 1.47,0.155 z" />
  <path
     style="fill:#ffffff;fill-rule:evenodd"
     inkscape:connector-curvature="0"
     id="path31"
     d="m 2396.58,198 c -1.59,0 -3.18,0.336 -4.65,1.027 -2.6,1.346 -4.45,3.2 -8.11,6.867 l -125.39,125.435 -53.75,-53.792 c -3.72,-3.719 -5.58,-5.574 -8.18,-6.919 -2.95,-1.381 -6.35,-1.381 -9.3,0 -2.6,1.345 -4.43,3.209 -8.09,6.876 l -3.23,3.192 c -3.66,3.675 -5.51,5.53 -6.85,8.11 -1.37,2.95 -1.37,6.358 0,9.3 1.34,2.597 3.21,4.469 6.85,8.127 l 62.22,62.222 c 1.08,1.251 2.47,2.631 4.3,4.46 l 3.14,3.149 c 3.71,3.71 5.58,5.565 8.18,6.919 2.94,1.372 6.33,1.372 9.27,0 2.6,-1.354 4.47,-3.209 8.13,-6.867 l 63.9,-63.93 h 95.6 c 5.46,0 8.19,-0.008 11.11,-0.932 3.19,-1.156 5.69,-3.666 6.85,-6.85 0.92,-2.907 0.93,-5.651 0.93,-11.043 v -4.633 c 0,-5.47 -0.01,-8.205 -0.93,-11.112 -1.16,-3.184 -3.66,-5.703 -6.85,-6.859 -2.92,-0.923 -5.65,-0.923 -11.05,-0.923 h -53.32 l 29.46,-29.48 h 95.29 c 5.48,0 8.21,-0.009 11.12,-0.932 3.19,-1.156 5.69,-3.658 6.84,-6.842 0.93,-2.907 0.93,-5.651 0.93,-11.043 v -4.641 c 0,-5.479 0,-8.214 -0.93,-11.121 -1.15,-3.184 -3.65,-5.694 -6.84,-6.85 -2.91,-0.924 -5.64,-0.915 -11.03,-0.915 h -97.21 c -2.98,0 -5.11,0.009 -6.94,0.155 -0.49,-0.069 -0.98,-0.155 -1.47,-0.155 z" />
  <path
     style="fill:#ffffff;fill-rule:evenodd"
     inkscape:connector-curvature="0"
     id="path33"
     d="m 2645.07,384 c 1.58,0 3.16,-0.336 4.63,-1.027 2.6,-1.346 4.44,-3.2 8.09,-6.867 l 125.04,-125.435 53.6,53.792 c 3.7,3.719 5.56,5.574 8.15,6.919 2.94,1.381 6.33,1.381 9.27,0 2.59,-1.345 4.42,-3.209 8.07,-6.876 l 3.22,-3.192 c 3.65,-3.675 5.49,-5.53 6.83,-8.11 1.37,-2.95 1.37,-6.358 0,-9.3 -1.34,-2.597 -3.19,-4.469 -6.83,-8.127 l -62.04,-62.222 c -1.07,-1.251 -2.46,-2.631 -4.29,-4.46 l -3.13,-3.149 c -3.7,-3.71 -5.56,-5.565 -8.16,-6.919 -2.93,-1.372 -6.31,-1.372 -9.24,0 -2.6,1.354 -4.46,3.209 -8.11,6.867 l -63.72,63.93 h -95.33 c -5.44,0 -8.17,0.008 -11.07,0.932 -3.18,1.156 -5.68,3.666 -6.84,6.85 -0.91,2.907 -0.93,5.651 -0.93,11.043 v 4.633 c 0,5.47 0.02,8.205 0.93,11.112 1.16,3.184 3.66,5.703 6.84,6.859 2.9,0.923 5.63,0.923 11.01,0.923 h 53.18 l -29.38,29.48 h -95.02 c -5.46,0 -8.19,0.009 -11.09,0.932 -3.18,1.156 -5.68,3.658 -6.82,6.842 -0.93,2.907 -0.93,5.651 -0.93,11.043 v 4.641 c 0,5.479 0,8.214 0.93,11.121 1.14,3.184 3.64,5.694 6.82,6.85 2.9,0.924 5.63,0.915 10.99,0.915 h 96.95 c 2.96,0 5.09,-0.009 6.91,-0.155 0.49,0.069 0.98,0.155 1.47,0.155 z" />
  <path
     style="fill:#ffffff;fill-rule:evenodd"
     inkscape:connector-curvature="0"
     id="path35"
     d="m 50.9297,198 c -1.5822,0 -3.1645,0.336 -4.6326,1.027 -2.5936,1.346 -4.4369,3.2 -8.0908,6.867 L -86.8264,331.329 -140.428,277.537 c -3.703,-3.719 -5.563,-5.574 -8.156,-6.919 -2.936,-1.381 -6.329,-1.381 -9.266,0 -2.593,1.345 -4.42,3.209 -8.074,6.876 l -3.214,3.192 c -3.653,3.675 -5.497,5.53 -6.834,8.11 -1.371,2.95 -1.371,6.358 0,9.3 1.337,2.597 3.197,4.469 6.834,8.127 l 62.036,62.222 c 1.076,1.251 2.463,2.631 4.29,4.46 l 3.1316,3.149 c 3.7029,3.71 5.5625,5.565 8.1561,6.919 2.9362,1.372 6.3128,1.372 9.249,0 2.5936,-1.354 4.4532,-3.209 8.1071,-6.867 l 63.7153,-63.93 h 95.3282 c 5.4483,0 8.1724,-0.008 11.076,-0.932 3.1809,-1.156 5.6767,-3.666 6.8347,-6.85 0.914,-2.907 0.93,-5.651 0.93,-11.043 v -4.633 c 0,-5.47 -0.016,-8.205 -0.93,-11.112 -1.158,-3.184 -3.6538,-5.703 -6.8347,-6.859 -2.9036,-0.923 -5.6277,-0.923 -11.0107,-0.923 H 31.763 l 29.3781,-29.48 h 95.0179 c 5.465,0 8.189,-0.009 11.093,-0.932 3.181,-1.156 5.676,-3.658 6.818,-6.842 0.93,-2.907 0.93,-5.651 0.93,-11.043 v -4.641 c 0,-5.479 0,-8.214 -0.93,-11.121 -1.142,-3.184 -3.637,-5.694 -6.818,-6.85 C 164.348,197.991 161.624,198 156.257,198 H 59.3142 c -2.9688,0 -5.0894,0.009 -6.9164,0.155 C 51.9085,198.086 51.4191,198 50.9297,198 Z" />
  <path
     style="fill:#ffffff;fill-rule:evenodd"
     inkscape:connector-curvature="0"
     id="path37"
     d="m 299.423,384 c 1.587,0 3.173,-0.336 4.646,-1.027 2.601,-1.346 4.449,-3.2 8.113,-6.867 l 125.388,-125.435 53.754,53.792 c 3.714,3.719 5.578,5.574 8.18,6.919 2.944,1.381 6.347,1.381 9.291,0 2.601,-1.345 4.433,-3.209 8.098,-6.876 l 3.222,-3.192 c 3.664,-3.675 5.513,-5.53 6.854,-8.11 1.375,-2.95 1.375,-6.358 0,-9.3 -1.341,-2.597 -3.206,-4.469 -6.854,-8.127 l -62.211,-62.222 c -1.08,-1.251 -2.47,-2.631 -4.302,-4.46 l -3.141,-3.149 c -3.714,-3.71 -5.579,-5.565 -8.18,-6.919 -2.944,-1.372 -6.33,-1.372 -9.275,0 -2.601,1.354 -4.466,3.209 -8.13,6.867 l -63.896,63.93 h -95.599 c -5.464,0 -8.196,0.008 -11.108,0.932 -3.19,1.156 -5.692,3.666 -6.854,6.85 -0.916,2.907 -0.932,5.651 -0.932,11.043 v 4.633 c 0,5.47 0.016,8.205 0.932,11.112 1.162,3.184 3.664,5.703 6.854,6.859 2.912,0.923 5.644,0.923 11.042,0.923 h 53.329 l -29.462,29.48 h -95.288 c -5.48,0 -8.212,0.009 -11.124,0.932 -3.19,1.156 -5.692,3.658 -6.838,6.842 C 175,352.337 175,355.081 175,360.473 v 4.641 c 0,5.479 0,8.214 0.932,11.121 1.146,3.184 3.648,5.694 6.838,6.85 2.912,0.924 5.644,0.915 11.026,0.915 h 97.218 c 2.978,0 5.104,-0.009 6.937,-0.155 0.49,0.069 0.981,0.155 1.472,0.155 z" />
  <path
     style="fill:#ffffff;fill-rule:evenodd"
     inkscape:connector-curvature="0"
     id="path39"
     d="m 696.93,484 c -1.583,0 -3.165,0.336 -4.633,1.027 -2.594,1.346 -4.437,3.2 -8.091,6.867 L 559.174,617.329 505.572,563.537 c -3.703,-3.719 -5.563,-5.574 -8.156,-6.919 -2.936,-1.381 -6.329,-1.381 -9.266,0 -2.593,1.345 -4.42,3.209 -8.074,6.876 l -3.214,3.192 c -3.653,3.675 -5.497,5.53 -6.834,8.11 -1.371,2.95 -1.371,6.358 0,9.3 1.337,2.597 3.197,4.469 6.834,8.127 l 62.036,62.222 c 1.076,1.251 2.463,2.631 4.29,4.46 l 3.132,3.149 c 3.702,3.71 5.562,5.565 8.156,6.919 2.936,1.372 6.313,1.372 9.249,0 2.593,-1.354 4.453,-3.209 8.107,-6.867 l 63.715,-63.93 h 95.328 c 5.449,0 8.173,-0.008 11.076,-0.932 3.181,-1.156 5.677,-3.666 6.835,-6.85 0.914,-2.907 0.93,-5.651 0.93,-11.043 v -4.633 c 0,-5.47 -0.016,-8.205 -0.93,-11.112 -1.158,-3.184 -3.654,-5.703 -6.835,-6.859 -2.903,-0.923 -5.627,-0.923 -11.01,-0.923 h -53.178 l 29.378,-29.48 h 95.018 c 5.465,0 8.189,-0.009 11.093,-0.932 3.181,-1.156 5.676,-3.658 6.818,-6.842 0.93,-2.907 0.93,-5.651 0.93,-11.043 v -4.641 c 0,-5.479 0,-8.214 -0.93,-11.121 -1.142,-3.184 -3.637,-5.694 -6.818,-6.85 C 810.348,483.991 807.624,484 802.257,484 h -96.943 c -2.969,0 -5.089,0.009 -6.916,0.155 -0.49,-0.069 -0.979,-0.155 -1.468,-0.155 z" />
  <path
     style="fill:#ffffff;fill-rule:evenodd"
     inkscape:connector-curvature="0"
     id="path41"
     d="m 945.07,670 c 1.583,0 3.165,-0.336 4.633,-1.027 2.594,-1.346 4.437,-3.2 8.091,-6.867 l 125.036,-125.435 53.6,53.792 c 3.7,3.719 5.56,5.574 8.15,6.919 2.94,1.381 6.33,1.381 9.27,0 2.59,-1.345 4.42,-3.209 8.07,-6.876 l 3.22,-3.192 c 3.65,-3.675 5.49,-5.53 6.83,-8.11 1.37,-2.95 1.37,-6.358 0,-9.3 -1.34,-2.597 -3.19,-4.469 -6.83,-8.127 l -62.04,-62.222 c -1.07,-1.251 -2.46,-2.631 -4.29,-4.46 l -3.13,-3.149 c -3.7,-3.71 -5.56,-5.565 -8.16,-6.919 -2.93,-1.372 -6.31,-1.372 -9.24,0 -2.6,1.354 -4.46,3.209 -8.11,6.867 l -63.72,63.93 h -95.325 c -5.449,0 -8.173,0.008 -11.076,0.932 -3.181,1.156 -5.677,3.666 -6.835,6.85 -0.914,2.907 -0.93,5.651 -0.93,11.043 v 4.633 c 0,5.47 0.016,8.205 0.93,11.112 1.158,3.184 3.654,5.703 6.835,6.859 2.903,0.923 5.627,0.923 11.01,0.923 h 53.178 l -29.378,29.48 h -95.018 c -5.465,0 -8.189,0.009 -11.093,0.932 -3.181,1.156 -5.676,3.658 -6.818,6.842 -0.93,2.907 -0.93,5.651 -0.93,11.043 v 4.641 c 0,5.479 0,8.214 0.93,11.121 1.142,3.184 3.637,5.694 6.818,6.851 2.904,0.923 5.628,0.914 10.995,0.914 h 96.943 c 2.969,0 5.089,-0.009 6.916,-0.155 0.49,0.069 0.979,0.155 1.468,0.155 z" />
  <path
     style="fill:#ffffff;fill-rule:evenodd"
     inkscape:connector-curvature="0"
     id="path43"
     d="m 1478.93,484 c -1.58,0 -3.16,0.336 -4.63,1.027 -2.6,1.346 -4.44,3.2 -8.09,6.867 l -125.04,125.435 -53.6,-53.792 c -3.7,-3.719 -5.56,-5.574 -8.15,-6.919 -2.94,-1.381 -6.33,-1.381 -9.27,0 -2.59,1.345 -4.42,3.209 -8.07,6.876 l -3.22,3.192 c -3.65,3.675 -5.49,5.53 -6.83,8.11 -1.37,2.95 -1.37,6.358 0,9.3 1.34,2.597 3.19,4.469 6.83,8.127 l 62.04,62.222 c 1.07,1.251 2.46,2.631 4.29,4.46 l 3.13,3.149 c 3.7,3.71 5.56,5.565 8.16,6.919 2.93,1.372 6.31,1.372 9.24,0 2.6,-1.354 4.46,-3.209 8.11,-6.867 l 63.72,-63.93 h 95.33 c 5.44,0 8.17,-0.008 11.07,-0.932 3.18,-1.156 5.68,-3.666 6.84,-6.85 0.91,-2.907 0.93,-5.651 0.93,-11.043 v -4.633 c 0,-5.47 -0.02,-8.205 -0.93,-11.112 -1.16,-3.184 -3.66,-5.703 -6.84,-6.859 -2.9,-0.923 -5.63,-0.923 -11.01,-0.923 h -53.18 l 29.38,-29.48 h 95.02 c 5.46,0 8.19,-0.009 11.09,-0.932 3.18,-1.156 5.68,-3.658 6.82,-6.842 0.93,-2.907 0.93,-5.651 0.93,-11.043 v -4.641 c 0,-5.479 0,-8.214 -0.93,-11.121 -1.14,-3.184 -3.64,-5.694 -6.82,-6.85 -2.9,-0.924 -5.63,-0.915 -10.99,-0.915 h -96.95 c -2.96,0 -5.09,0.009 -6.91,0.155 -0.49,-0.069 -0.98,-0.155 -1.47,-0.155 z" />
  <path
     style="fill:#ffffff;fill-rule:evenodd"
     inkscape:connector-curvature="0"
     id="path45"
     d="m 1727.07,670 c 1.58,0 3.16,-0.336 4.63,-1.027 2.6,-1.346 4.44,-3.2 8.09,-6.867 l 125.04,-125.435 53.6,53.792 c 3.7,3.719 5.56,5.574 8.15,6.919 2.94,1.381 6.33,1.381 9.27,0 2.59,-1.345 4.42,-3.209 8.07,-6.876 l 3.22,-3.192 c 3.65,-3.675 5.49,-5.53 6.83,-8.11 1.37,-2.95 1.37,-6.358 0,-9.3 -1.34,-2.597 -3.19,-4.469 -6.83,-8.127 l -62.04,-62.222 c -1.07,-1.251 -2.46,-2.631 -4.29,-4.46 l -3.13,-3.149 c -3.7,-3.71 -5.56,-5.565 -8.16,-6.919 -2.93,-1.372 -6.31,-1.372 -9.24,0 -2.6,1.354 -4.46,3.209 -8.11,6.867 l -63.72,63.93 h -95.33 c -5.44,0 -8.17,0.008 -11.07,0.932 -3.18,1.156 -5.68,3.666 -6.84,6.85 -0.91,2.907 -0.93,5.651 -0.93,11.043 v 4.633 c 0,5.47 0.02,8.205 0.93,11.112 1.16,3.184 3.66,5.703 6.84,6.859 2.9,0.923 5.63,0.923 11.01,0.923 h 53.18 l -29.38,29.48 h -95.02 c -5.46,0 -8.19,0.009 -11.09,0.932 -3.18,1.156 -5.68,3.658 -6.82,6.842 -0.93,2.907 -0.93,5.651 -0.93,11.043 v 4.641 c 0,5.479 0,8.214 0.93,11.121 1.14,3.184 3.64,5.694 6.82,6.851 2.9,0.923 5.63,0.914 10.99,0.914 h 96.95 c 2.96,0 5.09,-0.009 6.91,-0.155 0.49,0.069 0.98,0.155 1.47,0.155 z" />
  <path
     style="fill:#ffffff;fill-rule:evenodd"
     inkscape:connector-curvature="0"
     id="path47"
     d="m 2260.58,484 c -1.59,0 -3.18,0.336 -4.65,1.027 -2.6,1.346 -4.45,3.2 -8.11,6.867 l -125.39,125.435 -53.75,-53.792 c -3.72,-3.719 -5.58,-5.574 -8.18,-6.919 -2.95,-1.381 -6.35,-1.381 -9.3,0 -2.6,1.345 -4.43,3.209 -8.09,6.876 l -3.23,3.192 c -3.66,3.675 -5.51,5.53 -6.85,8.11 -1.37,2.95 -1.37,6.358 0,9.3 1.34,2.597 3.21,4.469 6.85,8.127 l 62.22,62.222 c 1.08,1.251 2.47,2.631 4.3,4.46 l 3.14,3.149 c 3.71,3.71 5.58,5.565 8.18,6.919 2.94,1.372 6.33,1.372 9.27,0 2.6,-1.354 4.47,-3.209 8.13,-6.867 l 63.9,-63.93 h 95.6 c 5.46,0 8.19,-0.008 11.11,-0.932 3.19,-1.156 5.69,-3.666 6.85,-6.85 0.92,-2.907 0.93,-5.651 0.93,-11.043 v -4.633 c 0,-5.47 -0.01,-8.205 -0.93,-11.112 -1.16,-3.184 -3.66,-5.703 -6.85,-6.859 -2.92,-0.923 -5.65,-0.923 -11.05,-0.923 h -53.32 l 29.46,-29.48 h 95.29 c 5.48,0 8.21,-0.009 11.12,-0.932 3.19,-1.156 5.69,-3.658 6.84,-6.842 0.93,-2.907 0.93,-5.651 0.93,-11.043 v -4.641 c 0,-5.479 0,-8.214 -0.93,-11.121 -1.15,-3.184 -3.65,-5.694 -6.84,-6.85 -2.91,-0.924 -5.64,-0.915 -11.03,-0.915 h -97.21 c -2.98,0 -5.11,0.009 -6.94,0.155 -0.49,-0.069 -0.98,-0.155 -1.47,-0.155 z" />
  <path
     style="fill:#ffffff;fill-rule:evenodd"
     inkscape:connector-curvature="0"
     id="path49"
     d="m 2509.07,670 c 1.58,0 3.16,-0.336 4.63,-1.027 2.6,-1.346 4.44,-3.2 8.09,-6.867 l 125.04,-125.435 53.6,53.792 c 3.7,3.719 5.56,5.574 8.15,6.919 2.94,1.381 6.33,1.381 9.27,0 2.59,-1.345 4.42,-3.209 8.07,-6.876 l 3.22,-3.192 c 3.65,-3.675 5.49,-5.53 6.83,-8.11 1.37,-2.95 1.37,-6.358 0,-9.3 -1.34,-2.597 -3.19,-4.469 -6.83,-8.127 l -62.04,-62.222 c -1.07,-1.251 -2.46,-2.631 -4.29,-4.46 l -3.13,-3.149 c -3.7,-3.71 -5.56,-5.565 -8.16,-6.919 -2.93,-1.372 -6.31,-1.372 -9.24,0 -2.6,1.354 -4.46,3.209 -8.11,6.867 l -63.72,63.93 h -95.33 c -5.44,0 -8.17,0.008 -11.07,0.932 -3.18,1.156 -5.68,3.666 -6.84,6.85 -0.91,2.907 -0.93,5.651 -0.93,11.043 v 4.633 c 0,5.47 0.02,8.205 0.93,11.112 1.16,3.184 3.66,5.703 6.84,6.859 2.9,0.923 5.63,0.923 11.01,0.923 h 53.18 l -29.38,29.48 h -95.02 c -5.46,0 -8.19,0.009 -11.09,0.932 -3.18,1.156 -5.68,3.658 -6.82,6.842 -0.93,2.907 -0.93,5.651 -0.93,11.043 v 4.641 c 0,5.479 0,8.214 0.93,11.121 1.14,3.184 3.64,5.694 6.82,6.851 2.9,0.923 5.63,0.914 10.99,0.914 h 96.95 c 2.96,0 5.09,-0.009 6.91,-0.155 0.49,0.069 0.98,0.155 1.47,0.155 z" />
  <path
     style="fill:#ffffff;fill-rule:evenodd"
     inkscape:connector-curvature="0"
     id="path51"
     d="m -85.0703,484 c -1.5822,0 -3.1645,0.336 -4.6326,1.027 -2.5936,1.346 -4.4369,3.2 -8.0908,6.867 l -125.0323,125.435 -53.602,-53.792 c -3.703,-3.719 -5.563,-5.574 -8.156,-6.919 -2.936,-1.381 -6.329,-1.381 -9.266,0 -2.593,1.345 -4.42,3.209 -8.074,6.876 l -3.214,3.192 c -3.653,3.675 -5.497,5.53 -6.834,8.11 -1.371,2.95 -1.371,6.358 0,9.3 1.337,2.597 3.197,4.469 6.834,8.127 l 62.036,62.222 c 1.076,1.251 2.463,2.631 4.29,4.46 l 3.132,3.149 c 3.702,3.71 5.562,5.565 8.156,6.919 2.936,1.372 6.312,1.372 9.249,0 2.593,-1.354 4.453,-3.209 8.107,-6.867 l 63.715,-63.93 h 95.3283 c 5.4483,0 8.1724,-0.008 11.076,-0.932 3.1809,-1.156 5.6766,-3.666 6.8348,-6.85 0.9135,-2.907 0.9298,-5.651 0.9298,-11.043 v -4.633 c 0,-5.47 -0.0163,-8.205 -0.9298,-11.112 -1.1582,-3.184 -3.6539,-5.703 -6.8348,-6.859 -2.9036,-0.923 -5.6277,-0.923 -11.0107,-0.923 h -53.1776 l 29.3781,-29.48 h 95.0183 c 5.4646,0 8.1887,-0.009 11.0923,-0.932 3.1809,-1.156 5.6766,-3.658 6.8185,-6.842 C 39,515.663 39,512.919 39,507.527 v -4.641 c 0,-5.479 0,-8.214 -0.9298,-11.121 -1.1419,-3.184 -3.6376,-5.694 -6.8185,-6.85 C 28.3481,483.991 25.624,484 20.2573,484 h -96.9431 c -2.9688,0 -5.0894,0.009 -6.9164,0.155 -0.4893,-0.069 -0.9787,-0.155 -1.4681,-0.155 z" />
  <path
     style="fill:#ffffff;fill-rule:evenodd"
     inkscape:connector-curvature="0"
     id="path53"
     d="m 163.423,670 c 1.587,0 3.173,-0.336 4.646,-1.027 2.601,-1.346 4.449,-3.2 8.113,-6.867 l 125.388,-125.435 53.754,53.792 c 3.714,3.719 5.578,5.574 8.18,6.919 2.944,1.381 6.347,1.381 9.291,0 2.601,-1.345 4.433,-3.209 8.098,-6.876 l 3.222,-3.192 c 3.665,-3.675 5.513,-5.53 6.854,-8.11 1.375,-2.95 1.375,-6.358 0,-9.3 -1.341,-2.597 -3.206,-4.469 -6.854,-8.127 l -62.211,-62.222 c -1.08,-1.251 -2.47,-2.631 -4.302,-4.46 l -3.141,-3.149 c -3.714,-3.71 -5.579,-5.565 -8.18,-6.919 -2.944,-1.372 -6.33,-1.372 -9.275,0 -2.601,1.354 -4.466,3.209 -8.13,6.867 l -63.896,63.93 h -95.599 c -5.464,0 -8.196,0.008 -11.108,0.932 -3.19,1.156 -5.692,3.666 -6.854,6.85 -0.916,2.907 -0.932,5.651 -0.932,11.043 v 4.633 c 0,5.47 0.016,8.205 0.932,11.112 1.162,3.184 3.664,5.703 6.854,6.859 2.912,0.923 5.644,0.923 11.042,0.923 h 53.329 l -29.462,29.48 H 57.8941 c -5.4801,0 -8.212,0.009 -11.1238,0.932 -3.1899,1.156 -5.6928,3.658 -6.8378,6.842 C 39,638.337 39,641.081 39,646.473 v 4.641 c 0,5.479 0,8.214 0.9325,11.121 1.145,3.184 3.6479,5.694 6.8378,6.851 2.9118,0.923 5.6437,0.914 11.0256,0.914 h 97.2181 c 2.978,0 5.104,-0.009 6.936,-0.155 0.491,0.069 0.982,0.155 1.473,0.155 z" />
  <path
     style="fill:#ffffff;fill-rule:evenodd"
     inkscape:connector-curvature="0"
     id="path55"
     d="m 832.93,770 c -1.583,0 -3.165,0.336 -4.633,1.027 -2.594,1.346 -4.437,3.2 -8.091,6.867 L 695.174,903.329 641.572,849.537 c -3.703,-3.719 -5.563,-5.574 -8.156,-6.919 -2.936,-1.381 -6.329,-1.381 -9.266,0 -2.593,1.345 -4.42,3.209 -8.074,6.876 l -3.214,3.192 c -3.653,3.675 -5.497,5.53 -6.834,8.11 -1.371,2.95 -1.371,6.358 0,9.3 1.337,2.597 3.197,4.469 6.834,8.127 l 62.036,62.222 c 1.076,1.251 2.463,2.631 4.29,4.46 l 3.132,3.149 c 3.702,3.71 5.562,5.565 8.156,6.919 2.936,1.372 6.313,1.372 9.249,0 2.593,-1.354 4.453,-3.209 8.107,-6.867 l 63.715,-63.93 h 95.328 c 5.449,0 8.173,-0.008 11.076,-0.932 3.181,-1.156 5.677,-3.666 6.835,-6.85 0.914,-2.907 0.93,-5.651 0.93,-11.043 v -4.633 c 0,-5.47 -0.016,-8.205 -0.93,-11.112 -1.158,-3.184 -3.654,-5.703 -6.835,-6.859 -2.903,-0.923 -5.627,-0.923 -11.01,-0.923 h -53.178 l 29.378,-29.48 h 95.018 c 5.465,0 8.189,-0.009 11.093,-0.932 3.181,-1.156 5.676,-3.658 6.818,-6.842 0.93,-2.907 0.93,-5.651 0.93,-11.043 v -4.641 c 0,-5.479 0,-8.214 -0.93,-11.121 -1.142,-3.184 -3.637,-5.694 -6.818,-6.851 C 946.348,769.991 943.624,770 938.257,770 h -96.943 c -2.969,0 -5.089,0.009 -6.916,0.155 -0.49,-0.069 -0.979,-0.155 -1.468,-0.155 z" />
  <path
     style="fill:#ffffff;fill-rule:evenodd"
     inkscape:connector-curvature="0"
     id="path57"
     d="m 1081.07,956 c 1.58,0 3.16,-0.336 4.63,-1.027 2.6,-1.346 4.44,-3.2 8.09,-6.867 l 125.04,-125.435 53.6,53.792 c 3.7,3.719 5.56,5.574 8.15,6.919 2.94,1.381 6.33,1.381 9.27,0 2.59,-1.345 4.42,-3.209 8.07,-6.876 l 3.22,-3.192 c 3.65,-3.675 5.49,-5.53 6.83,-8.11 1.37,-2.95 1.37,-6.358 0,-9.3 -1.34,-2.597 -3.19,-4.469 -6.83,-8.127 l -62.04,-62.222 c -1.07,-1.251 -2.46,-2.631 -4.29,-4.46 l -3.13,-3.149 c -3.7,-3.71 -5.56,-5.565 -8.16,-6.919 -2.93,-1.372 -6.31,-1.372 -9.24,0 -2.6,1.354 -4.46,3.209 -8.11,6.867 l -63.72,63.93 h -95.33 c -5.44,0 -8.17,0.008 -11.07,0.932 -3.18,1.156 -5.68,3.666 -6.84,6.85 -0.91,2.907 -0.93,5.651 -0.93,11.043 v 4.633 c 0,5.47 0.02,8.205 0.93,11.112 1.16,3.184 3.66,5.703 6.84,6.859 2.9,0.923 5.63,0.923 11.01,0.923 h 53.18 l -29.38,29.48 h -95.019 c -5.465,0 -8.189,0.009 -11.093,0.932 -3.181,1.156 -5.676,3.658 -6.818,6.842 -0.93,2.907 -0.93,5.651 -0.93,11.043 v 4.641 c 0,5.479 0,8.214 0.93,11.121 1.142,3.184 3.637,5.694 6.818,6.851 2.904,0.923 5.628,0.914 10.995,0.914 h 96.947 c 2.96,0 5.09,-0.009 6.91,-0.155 0.49,0.069 0.98,0.155 1.47,0.155 z" />
  <path
     style="fill:#ffffff;fill-rule:evenodd"
     inkscape:connector-curvature="0"
     id="path59"
     d="m 1614.93,770 c -1.58,0 -3.16,0.336 -4.63,1.027 -2.6,1.346 -4.44,3.2 -8.09,6.867 l -125.04,125.435 -53.6,-53.792 c -3.7,-3.719 -5.56,-5.574 -8.15,-6.919 -2.94,-1.381 -6.33,-1.381 -9.27,0 -2.59,1.345 -4.42,3.209 -8.07,6.876 l -3.22,3.192 c -3.65,3.675 -5.49,5.53 -6.83,8.11 -1.37,2.95 -1.37,6.358 0,9.3 1.34,2.597 3.19,4.469 6.83,8.127 l 62.04,62.222 c 1.07,1.251 2.46,2.631 4.29,4.46 l 3.13,3.149 c 3.7,3.71 5.56,5.565 8.16,6.919 2.93,1.372 6.31,1.372 9.24,0 2.6,-1.354 4.46,-3.209 8.11,-6.867 l 63.72,-63.93 h 95.33 c 5.44,0 8.17,-0.008 11.07,-0.932 3.18,-1.156 5.68,-3.666 6.84,-6.85 0.91,-2.907 0.93,-5.651 0.93,-11.043 v -4.633 c 0,-5.47 -0.02,-8.205 -0.93,-11.112 -1.16,-3.184 -3.66,-5.703 -6.84,-6.859 -2.9,-0.923 -5.63,-0.923 -11.01,-0.923 h -53.18 l 29.38,-29.48 h 95.02 c 5.46,0 8.19,-0.009 11.09,-0.932 3.18,-1.156 5.68,-3.658 6.82,-6.842 0.93,-2.907 0.93,-5.651 0.93,-11.043 v -4.641 c 0,-5.479 0,-8.214 -0.93,-11.121 -1.14,-3.184 -3.64,-5.694 -6.82,-6.851 -2.9,-0.923 -5.63,-0.914 -10.99,-0.914 h -96.95 c -2.96,0 -5.09,0.009 -6.91,0.155 -0.49,-0.069 -0.98,-0.155 -1.47,-0.155 z" />
  <path
     style="fill:#ffffff;fill-rule:evenodd"
     inkscape:connector-curvature="0"
     id="path61"
     d="m 1863.07,956 c 1.58,0 3.16,-0.336 4.63,-1.027 2.6,-1.346 4.44,-3.2 8.09,-6.867 l 125.04,-125.435 53.6,53.792 c 3.7,3.719 5.56,5.574 8.15,6.919 2.94,1.381 6.33,1.381 9.27,0 2.59,-1.345 4.42,-3.209 8.07,-6.876 l 3.22,-3.192 c 3.65,-3.675 5.49,-5.53 6.83,-8.11 1.37,-2.95 1.37,-6.358 0,-9.3 -1.34,-2.597 -3.19,-4.469 -6.83,-8.127 l -62.04,-62.222 c -1.07,-1.251 -2.46,-2.631 -4.29,-4.46 l -3.13,-3.149 c -3.7,-3.71 -5.56,-5.565 -8.16,-6.919 -2.93,-1.372 -6.31,-1.372 -9.24,0 -2.6,1.354 -4.46,3.209 -8.11,6.867 l -63.72,63.93 h -95.33 c -5.44,0 -8.17,0.008 -11.07,0.932 -3.18,1.156 -5.68,3.666 -6.84,6.85 -0.91,2.907 -0.93,5.651 -0.93,11.043 v 4.633 c 0,5.47 0.02,8.205 0.93,11.112 1.16,3.184 3.66,5.703 6.84,6.859 2.9,0.923 5.63,0.923 11.01,0.923 h 53.18 l -29.38,29.48 h -95.02 c -5.46,0 -8.19,0.009 -11.09,0.932 -3.18,1.156 -5.68,3.658 -6.82,6.842 -0.93,2.907 -0.93,5.651 -0.93,11.043 v 4.641 c 0,5.479 0,8.214 0.93,11.121 1.14,3.184 3.64,5.694 6.82,6.851 2.9,0.923 5.63,0.914 10.99,0.914 h 96.95 c 2.96,0 5.09,-0.009 6.91,-0.155 0.49,0.069 0.98,0.155 1.47,0.155 z" />
  <path
     style="fill:#ffffff;fill-rule:evenodd"
     inkscape:connector-curvature="0"
     id="path63"
     d="m 2396.58,770 c -1.59,0 -3.18,0.336 -4.65,1.027 -2.6,1.346 -4.45,3.2 -8.11,6.867 l -125.39,125.435 -53.75,-53.792 c -3.72,-3.719 -5.58,-5.574 -8.18,-6.919 -2.95,-1.381 -6.35,-1.381 -9.3,0 -2.6,1.345 -4.43,3.209 -8.09,6.876 l -3.23,3.192 c -3.66,3.675 -5.51,5.53 -6.85,8.11 -1.37,2.95 -1.37,6.358 0,9.3 1.34,2.597 3.21,4.469 6.85,8.127 l 62.22,62.222 c 1.08,1.251 2.47,2.631 4.3,4.46 l 3.14,3.149 c 3.71,3.71 5.58,5.565 8.18,6.919 2.94,1.372 6.33,1.372 9.27,0 2.6,-1.354 4.47,-3.209 8.13,-6.867 l 63.9,-63.93 h 95.6 c 5.46,0 8.19,-0.008 11.11,-0.932 3.19,-1.156 5.69,-3.666 6.85,-6.85 0.92,-2.907 0.93,-5.651 0.93,-11.043 v -4.633 c 0,-5.47 -0.01,-8.205 -0.93,-11.112 -1.16,-3.184 -3.66,-5.703 -6.85,-6.859 -2.92,-0.923 -5.65,-0.923 -11.05,-0.923 h -53.32 l 29.46,-29.48 h 95.29 c 5.48,0 8.21,-0.009 11.12,-0.932 3.19,-1.156 5.69,-3.658 6.84,-6.842 0.93,-2.907 0.93,-5.651 0.93,-11.043 v -4.641 c 0,-5.479 0,-8.214 -0.93,-11.121 -1.15,-3.184 -3.65,-5.694 -6.84,-6.851 -2.91,-0.923 -5.64,-0.914 -11.03,-0.914 h -97.21 c -2.98,0 -5.11,0.009 -6.94,0.155 -0.49,-0.069 -0.98,-0.155 -1.47,-0.155 z" />
  <path
     style="fill:#ffffff;fill-rule:evenodd"
     inkscape:connector-curvature="0"
     id="path65"
     d="m 2645.07,956 c 1.58,0 3.16,-0.336 4.63,-1.027 2.6,-1.346 4.44,-3.2 8.09,-6.867 l 125.04,-125.435 53.6,53.792 c 3.7,3.719 5.56,5.574 8.15,6.919 2.94,1.381 6.33,1.381 9.27,0 2.59,-1.345 4.42,-3.209 8.07,-6.876 l 3.22,-3.192 c 3.65,-3.675 5.49,-5.53 6.83,-8.11 1.37,-2.95 1.37,-6.358 0,-9.3 -1.34,-2.597 -3.19,-4.469 -6.83,-8.127 l -62.04,-62.222 c -1.07,-1.251 -2.46,-2.631 -4.29,-4.46 l -3.13,-3.149 c -3.7,-3.71 -5.56,-5.565 -8.16,-6.919 -2.93,-1.372 -6.31,-1.372 -9.24,0 -2.6,1.354 -4.46,3.209 -8.11,6.867 l -63.72,63.93 h -95.33 c -5.44,0 -8.17,0.008 -11.07,0.932 -3.18,1.156 -5.68,3.666 -6.84,6.85 -0.91,2.907 -0.93,5.651 -0.93,11.043 v 4.633 c 0,5.47 0.02,8.205 0.93,11.112 1.16,3.184 3.66,5.703 6.84,6.859 2.9,0.923 5.63,0.923 11.01,0.923 h 53.18 l -29.38,29.48 h -95.02 c -5.46,0 -8.19,0.009 -11.09,0.932 -3.18,1.156 -5.68,3.658 -6.82,6.842 -0.93,2.907 -0.93,5.651 -0.93,11.043 v 4.641 c 0,5.479 0,8.214 0.93,11.121 1.14,3.184 3.64,5.694 6.82,6.851 2.9,0.923 5.63,0.914 10.99,0.914 h 96.95 c 2.96,0 5.09,-0.009 6.91,-0.155 0.49,0.069 0.98,0.155 1.47,0.155 z" />
  <path
     style="fill:#ffffff;fill-rule:evenodd"
     inkscape:connector-curvature="0"
     id="path67"
     d="m 50.9297,770 c -1.5822,0 -3.1645,0.336 -4.6326,1.027 -2.5936,1.346 -4.4369,3.2 -8.0908,6.867 L -86.8264,903.329 -140.428,849.537 c -3.703,-3.719 -5.563,-5.574 -8.156,-6.919 -2.936,-1.381 -6.329,-1.381 -9.266,0 -2.593,1.345 -4.42,3.209 -8.074,6.876 l -3.214,3.192 c -3.653,3.675 -5.497,5.53 -6.834,8.11 -1.371,2.95 -1.371,6.358 0,9.3 1.337,2.597 3.197,4.469 6.834,8.127 l 62.036,62.222 c 1.076,1.251 2.463,2.631 4.29,4.46 l 3.1316,3.149 c 3.7029,3.71 5.5625,5.565 8.1561,6.919 2.9362,1.372 6.3128,1.372 9.249,0 2.5936,-1.354 4.4532,-3.209 8.1071,-6.867 l 63.7153,-63.93 h 95.3282 c 5.4483,0 8.1724,-0.008 11.076,-0.932 3.1809,-1.156 5.6767,-3.666 6.8347,-6.85 0.914,-2.907 0.93,-5.651 0.93,-11.043 v -4.633 c 0,-5.47 -0.016,-8.205 -0.93,-11.112 -1.158,-3.184 -3.6538,-5.703 -6.8347,-6.859 -2.9036,-0.923 -5.6277,-0.923 -11.0107,-0.923 H 31.763 l 29.3781,-29.48 h 95.0179 c 5.465,0 8.189,-0.009 11.093,-0.932 3.181,-1.156 5.676,-3.658 6.818,-6.842 0.93,-2.907 0.93,-5.651 0.93,-11.043 v -4.641 c 0,-5.479 0,-8.214 -0.93,-11.121 -1.142,-3.184 -3.637,-5.694 -6.818,-6.851 C 164.348,769.991 161.624,770 156.257,770 H 59.3142 c -2.9688,0 -5.0894,0.009 -6.9164,0.155 C 51.9085,770.086 51.4191,770 50.9297,770 Z" />
  <path
     style="fill:#ffffff;fill-rule:evenodd"
     inkscape:connector-curvature="0"
     id="path69"
     d="m 299.423,956 c 1.587,0 3.173,-0.336 4.646,-1.027 2.601,-1.346 4.449,-3.2 8.113,-6.867 l 125.388,-125.435 53.754,53.792 c 3.714,3.719 5.578,5.574 8.18,6.919 2.944,1.381 6.347,1.381 9.291,0 2.601,-1.345 4.433,-3.209 8.098,-6.876 l 3.222,-3.192 c 3.664,-3.675 5.513,-5.53 6.854,-8.11 1.375,-2.95 1.375,-6.358 0,-9.3 -1.341,-2.597 -3.206,-4.469 -6.854,-8.127 l -62.211,-62.222 c -1.08,-1.251 -2.47,-2.631 -4.302,-4.46 l -3.141,-3.149 c -3.714,-3.71 -5.579,-5.565 -8.18,-6.919 -2.944,-1.372 -6.33,-1.372 -9.275,0 -2.601,1.354 -4.466,3.209 -8.13,6.867 l -63.896,63.93 h -95.599 c -5.464,0 -8.196,0.008 -11.108,0.932 -3.19,1.156 -5.692,3.666 -6.854,6.85 -0.916,2.907 -0.932,5.651 -0.932,11.043 v 4.633 c 0,5.47 0.016,8.205 0.932,11.112 1.162,3.184 3.664,5.703 6.854,6.859 2.912,0.923 5.644,0.923 11.042,0.923 h 53.329 l -29.462,29.48 h -95.288 c -5.48,0 -8.212,0.009 -11.124,0.932 -3.19,1.156 -5.692,3.658 -6.838,6.842 C 175,924.337 175,927.081 175,932.473 v 4.641 c 0,5.479 0,8.214 0.932,11.121 1.146,3.184 3.648,5.694 6.838,6.851 2.912,0.923 5.644,0.914 11.026,0.914 h 97.218 c 2.978,0 5.104,-0.009 6.937,-0.155 0.49,0.069 0.981,0.155 1.472,0.155 z" />
  <path
     style="fill:#ffffff;fill-rule:evenodd"
     inkscape:connector-curvature="0"
     id="path71"
     d="m 696.93,1056 c -1.583,0 -3.165,0.34 -4.633,1.03 -2.594,1.34 -4.437,3.2 -8.091,6.86 l -125.032,125.44 -53.602,-53.79 c -3.703,-3.72 -5.563,-5.58 -8.156,-6.92 -2.936,-1.38 -6.329,-1.38 -9.266,0 -2.593,1.34 -4.42,3.21 -8.074,6.87 l -3.214,3.2 c -3.653,3.67 -5.497,5.53 -6.834,8.11 -1.371,2.95 -1.371,6.35 0,9.3 1.337,2.59 3.197,4.47 6.834,8.12 l 62.036,62.22 c 1.076,1.26 2.463,2.64 4.29,4.47 l 3.132,3.14 c 3.702,3.71 5.562,5.57 8.156,6.92 2.936,1.38 6.313,1.38 9.249,0 2.593,-1.35 4.453,-3.21 8.107,-6.86 l 63.715,-63.93 h 95.328 c 5.449,0 8.173,-0.01 11.076,-0.94 3.181,-1.15 5.677,-3.66 6.835,-6.85 0.914,-2.9 0.93,-5.65 0.93,-11.04 v -4.63 c 0,-5.47 -0.016,-8.21 -0.93,-11.11 -1.158,-3.19 -3.654,-5.71 -6.835,-6.86 -2.903,-0.93 -5.627,-0.93 -11.01,-0.93 h -53.178 l 29.378,-29.48 h 95.018 c 5.465,0 8.189,0 11.093,-0.93 3.181,-1.15 5.676,-3.66 6.818,-6.84 0.93,-2.91 0.93,-5.65 0.93,-11.04 v -4.64 c 0,-5.48 0,-8.22 -0.93,-11.13 -1.142,-3.18 -3.637,-5.69 -6.818,-6.85 -2.904,-0.92 -5.628,-0.91 -10.995,-0.91 h -96.943 c -2.969,0 -5.089,0.01 -6.916,0.16 -0.49,-0.07 -0.979,-0.16 -1.468,-0.16 z" />
  <path
     style="fill:#ffffff;fill-rule:evenodd"
     inkscape:connector-curvature="0"
     id="path73"
     d="m 945.07,1242 c 1.583,0 3.165,-0.34 4.633,-1.03 2.594,-1.34 4.437,-3.2 8.091,-6.86 l 125.036,-125.44 53.6,53.79 c 3.7,3.72 5.56,5.58 8.15,6.92 2.94,1.38 6.33,1.38 9.27,0 2.59,-1.34 4.42,-3.21 8.07,-6.87 l 3.22,-3.2 c 3.65,-3.67 5.49,-5.53 6.83,-8.11 1.37,-2.95 1.37,-6.35 0,-9.3 -1.34,-2.59 -3.19,-4.47 -6.83,-8.12 l -62.04,-62.22 c -1.07,-1.26 -2.46,-2.64 -4.29,-4.47 l -3.13,-3.14 c -3.7,-3.71 -5.56,-5.57 -8.16,-6.92 -2.93,-1.38 -6.31,-1.38 -9.24,0 -2.6,1.35 -4.46,3.21 -8.11,6.86 l -63.72,63.93 h -95.325 c -5.449,0 -8.173,0.01 -11.076,0.94 -3.181,1.15 -5.677,3.66 -6.835,6.85 -0.914,2.9 -0.93,5.65 -0.93,11.04 v 4.63 c 0,5.47 0.016,8.21 0.93,11.11 1.158,3.19 3.654,5.71 6.835,6.86 2.903,0.93 5.627,0.93 11.01,0.93 h 53.178 l -29.378,29.48 h -95.018 c -5.465,0 -8.189,0 -11.093,0.93 -3.181,1.15 -5.676,3.66 -6.818,6.84 -0.93,2.91 -0.93,5.65 -0.93,11.04 v 4.64 c 0,5.48 0,8.22 0.93,11.13 1.142,3.18 3.637,5.69 6.818,6.85 2.904,0.92 5.628,0.91 10.995,0.91 h 96.943 c 2.969,0 5.089,-0.01 6.916,-0.16 0.49,0.07 0.979,0.16 1.468,0.16 z" />
  <path
     style="fill:#ffffff;fill-rule:evenodd"
     inkscape:connector-curvature="0"
     id="path75"
     d="m 1478.93,1056 c -1.58,0 -3.16,0.34 -4.63,1.03 -2.6,1.34 -4.44,3.2 -8.09,6.86 l -125.04,125.44 -53.6,-53.79 c -3.7,-3.72 -5.56,-5.58 -8.15,-6.92 -2.94,-1.38 -6.33,-1.38 -9.27,0 -2.59,1.34 -4.42,3.21 -8.07,6.87 l -3.22,3.2 c -3.65,3.67 -5.49,5.53 -6.83,8.11 -1.37,2.95 -1.37,6.35 0,9.3 1.34,2.59 3.19,4.47 6.83,8.12 l 62.04,62.22 c 1.07,1.26 2.46,2.64 4.29,4.47 l 3.13,3.14 c 3.7,3.71 5.56,5.57 8.16,6.92 2.93,1.38 6.31,1.38 9.24,0 2.6,-1.35 4.46,-3.21 8.11,-6.86 l 63.72,-63.93 h 95.33 c 5.44,0 8.17,-0.01 11.07,-0.94 3.18,-1.15 5.68,-3.66 6.84,-6.85 0.91,-2.9 0.93,-5.65 0.93,-11.04 v -4.63 c 0,-5.47 -0.02,-8.21 -0.93,-11.11 -1.16,-3.19 -3.66,-5.71 -6.84,-6.86 -2.9,-0.93 -5.63,-0.93 -11.01,-0.93 h -53.18 l 29.38,-29.48 h 95.02 c 5.46,0 8.19,0 11.09,-0.93 3.18,-1.15 5.68,-3.66 6.82,-6.84 0.93,-2.91 0.93,-5.65 0.93,-11.04 v -4.64 c 0,-5.48 0,-8.22 -0.93,-11.13 -1.14,-3.18 -3.64,-5.69 -6.82,-6.85 -2.9,-0.92 -5.63,-0.91 -10.99,-0.91 h -96.95 c -2.96,0 -5.09,0.01 -6.91,0.16 -0.49,-0.07 -0.98,-0.16 -1.47,-0.16 z" />
  <path
     style="fill:#ffffff;fill-rule:evenodd"
     inkscape:connector-curvature="0"
     id="path77"
     d="m 1727.07,1242 c 1.58,0 3.16,-0.34 4.63,-1.03 2.6,-1.34 4.44,-3.2 8.09,-6.86 l 125.04,-125.44 53.6,53.79 c 3.7,3.72 5.56,5.58 8.15,6.92 2.94,1.38 6.33,1.38 9.27,0 2.59,-1.34 4.42,-3.21 8.07,-6.87 l 3.22,-3.2 c 3.65,-3.67 5.49,-5.53 6.83,-8.11 1.37,-2.95 1.37,-6.35 0,-9.3 -1.34,-2.59 -3.19,-4.47 -6.83,-8.12 l -62.04,-62.22 c -1.07,-1.26 -2.46,-2.64 -4.29,-4.47 l -3.13,-3.14 c -3.7,-3.71 -5.56,-5.57 -8.16,-6.92 -2.93,-1.38 -6.31,-1.38 -9.24,0 -2.6,1.35 -4.46,3.21 -8.11,6.86 l -63.72,63.93 h -95.33 c -5.44,0 -8.17,0.01 -11.07,0.94 -3.18,1.15 -5.68,3.66 -6.84,6.85 -0.91,2.9 -0.93,5.65 -0.93,11.04 v 4.63 c 0,5.47 0.02,8.21 0.93,11.11 1.16,3.19 3.66,5.71 6.84,6.86 2.9,0.93 5.63,0.93 11.01,0.93 h 53.18 l -29.38,29.48 h -95.02 c -5.46,0 -8.19,0 -11.09,0.93 -3.18,1.15 -5.68,3.66 -6.82,6.84 -0.93,2.91 -0.93,5.65 -0.93,11.04 v 4.64 c 0,5.48 0,8.22 0.93,11.13 1.14,3.18 3.64,5.69 6.82,6.85 2.9,0.92 5.63,0.91 10.99,0.91 h 96.95 c 2.96,0 5.09,-0.01 6.91,-0.16 0.49,0.07 0.98,0.16 1.47,0.16 z" />
  <path
     style="fill:#ffffff;fill-rule:evenodd"
     inkscape:connector-curvature="0"
     id="path79"
     d="m 2260.58,1056 c -1.59,0 -3.18,0.34 -4.65,1.03 -2.6,1.34 -4.45,3.2 -8.11,6.86 l -125.39,125.44 -53.75,-53.79 c -3.72,-3.72 -5.58,-5.58 -8.18,-6.92 -2.95,-1.38 -6.35,-1.38 -9.3,0 -2.6,1.34 -4.43,3.21 -8.09,6.87 l -3.23,3.2 c -3.66,3.67 -5.51,5.53 -6.85,8.11 -1.37,2.95 -1.37,6.35 0,9.3 1.34,2.59 3.21,4.47 6.85,8.12 l 62.22,62.22 c 1.08,1.26 2.47,2.64 4.3,4.47 l 3.14,3.14 c 3.71,3.71 5.58,5.57 8.18,6.92 2.94,1.38 6.33,1.38 9.27,0 2.6,-1.35 4.47,-3.21 8.13,-6.86 l 63.9,-63.93 h 95.6 c 5.46,0 8.19,-0.01 11.11,-0.94 3.19,-1.15 5.69,-3.66 6.85,-6.85 0.92,-2.9 0.93,-5.65 0.93,-11.04 v -4.63 c 0,-5.47 -0.01,-8.21 -0.93,-11.11 -1.16,-3.19 -3.66,-5.71 -6.85,-6.86 -2.92,-0.93 -5.65,-0.93 -11.05,-0.93 h -53.32 l 29.46,-29.48 h 95.29 c 5.48,0 8.21,0 11.12,-0.93 3.19,-1.15 5.69,-3.66 6.84,-6.84 0.93,-2.91 0.93,-5.65 0.93,-11.04 v -4.64 c 0,-5.48 0,-8.22 -0.93,-11.13 -1.15,-3.18 -3.65,-5.69 -6.84,-6.85 -2.91,-0.92 -5.64,-0.91 -11.03,-0.91 h -97.21 c -2.98,0 -5.11,0.01 -6.94,0.16 -0.49,-0.07 -0.98,-0.16 -1.47,-0.16 z" />
  <path
     style="fill:#ffffff;fill-rule:evenodd"
     inkscape:connector-curvature="0"
     id="path81"
     d="m 2509.07,1242 c 1.58,0 3.16,-0.34 4.63,-1.03 2.6,-1.34 4.44,-3.2 8.09,-6.86 l 125.04,-125.44 53.6,53.79 c 3.7,3.72 5.56,5.58 8.15,6.92 2.94,1.38 6.33,1.38 9.27,0 2.59,-1.34 4.42,-3.21 8.07,-6.87 l 3.22,-3.2 c 3.65,-3.67 5.49,-5.53 6.83,-8.11 1.37,-2.95 1.37,-6.35 0,-9.3 -1.34,-2.59 -3.19,-4.47 -6.83,-8.12 l -62.04,-62.22 c -1.07,-1.26 -2.46,-2.64 -4.29,-4.47 l -3.13,-3.14 c -3.7,-3.71 -5.56,-5.57 -8.16,-6.92 -2.93,-1.38 -6.31,-1.38 -9.24,0 -2.6,1.35 -4.46,3.21 -8.11,6.86 l -63.72,63.93 h -95.33 c -5.44,0 -8.17,0.01 -11.07,0.94 -3.18,1.15 -5.68,3.66 -6.84,6.85 -0.91,2.9 -0.93,5.65 -0.93,11.04 v 4.63 c 0,5.47 0.02,8.21 0.93,11.11 1.16,3.19 3.66,5.71 6.84,6.86 2.9,0.93 5.63,0.93 11.01,0.93 h 53.18 l -29.38,29.48 h -95.02 c -5.46,0 -8.19,0 -11.09,0.93 -3.18,1.15 -5.68,3.66 -6.82,6.84 -0.93,2.91 -0.93,5.65 -0.93,11.04 v 4.64 c 0,5.48 0,8.22 0.93,11.13 1.14,3.18 3.64,5.69 6.82,6.85 2.9,0.92 5.63,0.91 10.99,0.91 h 96.95 c 2.96,0 5.09,-0.01 6.91,-0.16 0.49,0.07 0.98,0.16 1.47,0.16 z" />
  <path
     style="fill:#ffffff;fill-rule:evenodd"
     inkscape:connector-curvature="0"
     id="path83"
     d="m -85.0703,1056 c -1.5822,0 -3.1645,0.34 -4.6326,1.03 -2.5936,1.34 -4.4369,3.2 -8.0908,6.86 l -125.0323,125.44 -53.602,-53.79 c -3.703,-3.72 -5.563,-5.58 -8.156,-6.92 -2.936,-1.38 -6.329,-1.38 -9.266,0 -2.593,1.34 -4.42,3.21 -8.074,6.87 l -3.214,3.2 c -3.653,3.67 -5.497,5.53 -6.834,8.11 -1.371,2.95 -1.371,6.35 0,9.3 1.337,2.59 3.197,4.47 6.834,8.12 l 62.036,62.22 c 1.076,1.26 2.463,2.64 4.29,4.47 l 3.132,3.14 c 3.702,3.71 5.562,5.57 8.156,6.92 2.936,1.38 6.312,1.38 9.249,0 2.593,-1.35 4.453,-3.21 8.107,-6.86 l 63.715,-63.93 h 95.3283 c 5.4483,0 8.1724,-0.01 11.076,-0.94 3.1809,-1.15 5.6766,-3.66 6.8348,-6.85 0.9135,-2.9 0.9298,-5.65 0.9298,-11.04 v -4.63 c 0,-5.47 -0.0163,-8.21 -0.9298,-11.11 -1.1582,-3.19 -3.6539,-5.71 -6.8348,-6.86 -2.9036,-0.93 -5.6277,-0.93 -11.0107,-0.93 h -53.1776 l 29.3781,-29.48 h 95.0183 c 5.4646,0 8.1887,0 11.0923,-0.93 3.1809,-1.15 5.6766,-3.66 6.8185,-6.84 C 39,1087.66 39,1084.92 39,1079.53 v -4.64 c 0,-5.48 0,-8.22 -0.9298,-11.13 -1.1419,-3.18 -3.6376,-5.69 -6.8185,-6.85 -2.9036,-0.92 -5.6277,-0.91 -10.9944,-0.91 h -96.9431 c -2.9688,0 -5.0894,0.01 -6.9164,0.16 -0.4893,-0.07 -0.9787,-0.16 -1.4681,-0.16 z" />
  <path
     style="fill:#ffffff;fill-rule:evenodd"
     inkscape:connector-curvature="0"
     id="path85"
     d="m 163.423,1242 c 1.587,0 3.173,-0.34 4.646,-1.03 2.601,-1.34 4.449,-3.2 8.113,-6.86 l 125.388,-125.44 53.754,53.79 c 3.714,3.72 5.578,5.58 8.18,6.92 2.944,1.38 6.347,1.38 9.291,0 2.601,-1.34 4.433,-3.21 8.098,-6.87 l 3.222,-3.2 c 3.665,-3.67 5.513,-5.53 6.854,-8.11 1.375,-2.95 1.375,-6.35 0,-9.3 -1.341,-2.59 -3.206,-4.47 -6.854,-8.12 l -62.211,-62.22 c -1.08,-1.26 -2.47,-2.64 -4.302,-4.47 l -3.141,-3.14 c -3.714,-3.71 -5.579,-5.57 -8.18,-6.92 -2.944,-1.38 -6.33,-1.38 -9.275,0 -2.601,1.35 -4.466,3.21 -8.13,6.86 l -63.896,63.93 h -95.599 c -5.464,0 -8.196,0.01 -11.108,0.94 -3.19,1.15 -5.692,3.66 -6.854,6.85 -0.916,2.9 -0.932,5.65 -0.932,11.04 v 4.63 c 0,5.47 0.016,8.21 0.932,11.11 1.162,3.19 3.664,5.71 6.854,6.86 2.912,0.93 5.644,0.93 11.042,0.93 h 53.329 l -29.462,29.48 H 57.8941 c -5.4801,0 -8.212,0 -11.1238,0.93 -3.1899,1.15 -5.6928,3.66 -6.8378,6.84 C 39,1210.34 39,1213.08 39,1218.47 v 4.64 c 0,5.48 0,8.22 0.9325,11.13 1.145,3.18 3.6479,5.69 6.8378,6.85 2.9118,0.92 5.6437,0.91 11.0256,0.91 h 97.2181 c 2.978,0 5.104,-0.01 6.936,-0.16 0.491,0.07 0.982,0.16 1.473,0.16 z" />
  <path
     style="fill:#ffffff;fill-rule:evenodd"
     inkscape:connector-curvature="0"
     id="path87"
     d="m 832.93,1342 c -1.583,0 -3.165,0.34 -4.633,1.03 -2.594,1.34 -4.437,3.2 -8.091,6.86 l -125.032,125.44 -53.602,-53.79 c -3.703,-3.72 -5.563,-5.58 -8.156,-6.92 -2.936,-1.38 -6.329,-1.38 -9.266,0 -2.593,1.34 -4.42,3.21 -8.074,6.87 l -3.214,3.2 c -3.653,3.67 -5.497,5.53 -6.834,8.11 -1.371,2.95 -1.371,6.35 0,9.3 1.337,2.59 3.197,4.47 6.834,8.12 l 62.036,62.22 c 1.076,1.26 2.463,2.64 4.29,4.47 l 3.132,3.14 c 3.702,3.71 5.562,5.57 8.156,6.92 2.936,1.38 6.313,1.38 9.249,0 2.593,-1.35 4.453,-3.21 8.107,-6.86 l 63.715,-63.93 h 95.328 c 5.449,0 8.173,-0.01 11.076,-0.94 3.181,-1.15 5.677,-3.66 6.835,-6.85 0.914,-2.9 0.93,-5.65 0.93,-11.04 v -4.63 c 0,-5.47 -0.016,-8.21 -0.93,-11.11 -1.158,-3.19 -3.654,-5.71 -6.835,-6.86 -2.903,-0.93 -5.627,-0.93 -11.01,-0.93 h -53.178 l 29.378,-29.48 h 95.018 c 5.465,0 8.189,0 11.093,-0.93 3.181,-1.15 5.676,-3.66 6.818,-6.84 0.93,-2.91 0.93,-5.65 0.93,-11.04 v -4.64 c 0,-5.48 0,-8.22 -0.93,-11.13 -1.142,-3.18 -3.637,-5.69 -6.818,-6.85 -2.904,-0.92 -5.628,-0.91 -10.995,-0.91 h -96.943 c -2.969,0 -5.089,0.01 -6.916,0.16 -0.49,-0.07 -0.979,-0.16 -1.468,-0.16 z" />
  <path
     style="fill:#ffffff;fill-rule:evenodd"
     inkscape:connector-curvature="0"
     id="path89"
     d="m 1081.07,1528 c 1.58,0 3.16,-0.34 4.63,-1.03 2.6,-1.34 4.44,-3.2 8.09,-6.86 l 125.04,-125.44 53.6,53.79 c 3.7,3.72 5.56,5.58 8.15,6.92 2.94,1.38 6.33,1.38 9.27,0 2.59,-1.34 4.42,-3.21 8.07,-6.87 l 3.22,-3.2 c 3.65,-3.67 5.49,-5.53 6.83,-8.11 1.37,-2.95 1.37,-6.35 0,-9.3 -1.34,-2.59 -3.19,-4.47 -6.83,-8.12 l -62.04,-62.22 c -1.07,-1.26 -2.46,-2.64 -4.29,-4.47 l -3.13,-3.14 c -3.7,-3.71 -5.56,-5.57 -8.16,-6.92 -2.93,-1.38 -6.31,-1.38 -9.24,0 -2.6,1.35 -4.46,3.21 -8.11,6.86 l -63.72,63.93 h -95.33 c -5.44,0 -8.17,0.01 -11.07,0.94 -3.18,1.15 -5.68,3.66 -6.84,6.85 -0.91,2.9 -0.93,5.65 -0.93,11.04 v 4.63 c 0,5.47 0.02,8.21 0.93,11.11 1.16,3.19 3.66,5.71 6.84,6.86 2.9,0.93 5.63,0.93 11.01,0.93 h 53.18 l -29.38,29.48 h -95.019 c -5.465,0 -8.189,0 -11.093,0.93 -3.181,1.15 -5.676,3.66 -6.818,6.84 -0.93,2.91 -0.93,5.65 -0.93,11.04 v 4.64 c 0,5.48 0,8.22 0.93,11.13 1.142,3.18 3.637,5.69 6.818,6.85 2.904,0.92 5.628,0.91 10.995,0.91 h 96.947 c 2.96,0 5.09,-0.01 6.91,-0.16 0.49,0.07 0.98,0.16 1.47,0.16 z" />
  <path
     style="fill:#ffffff;fill-rule:evenodd"
     inkscape:connector-curvature="0"
     id="path91"
     d="m 1614.93,1342 c -1.58,0 -3.16,0.34 -4.63,1.03 -2.6,1.34 -4.44,3.2 -8.09,6.86 l -125.04,125.44 -53.6,-53.79 c -3.7,-3.72 -5.56,-5.58 -8.15,-6.92 -2.94,-1.38 -6.33,-1.38 -9.27,0 -2.59,1.34 -4.42,3.21 -8.07,6.87 l -3.22,3.2 c -3.65,3.67 -5.49,5.53 -6.83,8.11 -1.37,2.95 -1.37,6.35 0,9.3 1.34,2.59 3.19,4.47 6.83,8.12 l 62.04,62.22 c 1.07,1.26 2.46,2.64 4.29,4.47 l 3.13,3.14 c 3.7,3.71 5.56,5.57 8.16,6.92 2.93,1.38 6.31,1.38 9.24,0 2.6,-1.35 4.46,-3.21 8.11,-6.86 l 63.72,-63.93 h 95.33 c 5.44,0 8.17,-0.01 11.07,-0.94 3.18,-1.15 5.68,-3.66 6.84,-6.85 0.91,-2.9 0.93,-5.65 0.93,-11.04 v -4.63 c 0,-5.47 -0.02,-8.21 -0.93,-11.11 -1.16,-3.19 -3.66,-5.71 -6.84,-6.86 -2.9,-0.93 -5.63,-0.93 -11.01,-0.93 h -53.18 l 29.38,-29.48 h 95.02 c 5.46,0 8.19,0 11.09,-0.93 3.18,-1.15 5.68,-3.66 6.82,-6.84 0.93,-2.91 0.93,-5.65 0.93,-11.04 v -4.64 c 0,-5.48 0,-8.22 -0.93,-11.13 -1.14,-3.18 -3.64,-5.69 -6.82,-6.85 -2.9,-0.92 -5.63,-0.91 -10.99,-0.91 h -96.95 c -2.96,0 -5.09,0.01 -6.91,0.16 -0.49,-0.07 -0.98,-0.16 -1.47,-0.16 z" />
  <path
     style="fill:#ffffff;fill-rule:evenodd"
     inkscape:connector-curvature="0"
     id="path93"
     d="m 1863.07,1528 c 1.58,0 3.16,-0.34 4.63,-1.03 2.6,-1.34 4.44,-3.2 8.09,-6.86 l 125.04,-125.44 53.6,53.79 c 3.7,3.72 5.56,5.58 8.15,6.92 2.94,1.38 6.33,1.38 9.27,0 2.59,-1.34 4.42,-3.21 8.07,-6.87 l 3.22,-3.2 c 3.65,-3.67 5.49,-5.53 6.83,-8.11 1.37,-2.95 1.37,-6.35 0,-9.3 -1.34,-2.59 -3.19,-4.47 -6.83,-8.12 l -62.04,-62.22 c -1.07,-1.26 -2.46,-2.64 -4.29,-4.47 l -3.13,-3.14 c -3.7,-3.71 -5.56,-5.57 -8.16,-6.92 -2.93,-1.38 -6.31,-1.38 -9.24,0 -2.6,1.35 -4.46,3.21 -8.11,6.86 l -63.72,63.93 h -95.33 c -5.44,0 -8.17,0.01 -11.07,0.94 -3.18,1.15 -5.68,3.66 -6.84,6.85 -0.91,2.9 -0.93,5.65 -0.93,11.04 v 4.63 c 0,5.47 0.02,8.21 0.93,11.11 1.16,3.19 3.66,5.71 6.84,6.86 2.9,0.93 5.63,0.93 11.01,0.93 h 53.18 l -29.38,29.48 h -95.02 c -5.46,0 -8.19,0 -11.09,0.93 -3.18,1.15 -5.68,3.66 -6.82,6.84 -0.93,2.91 -0.93,5.65 -0.93,11.04 v 4.64 c 0,5.48 0,8.22 0.93,11.13 1.14,3.18 3.64,5.69 6.82,6.85 2.9,0.92 5.63,0.91 10.99,0.91 h 96.95 c 2.96,0 5.09,-0.01 6.91,-0.16 0.49,0.07 0.98,0.16 1.47,0.16 z" />
  <path
     style="fill:#ffffff;fill-rule:evenodd"
     inkscape:connector-curvature="0"
     id="path95"
     d="m 2396.58,1342 c -1.59,0 -3.18,0.34 -4.65,1.03 -2.6,1.34 -4.45,3.2 -8.11,6.86 l -125.39,125.44 -53.75,-53.79 c -3.72,-3.72 -5.58,-5.58 -8.18,-6.92 -2.95,-1.38 -6.35,-1.38 -9.3,0 -2.6,1.34 -4.43,3.21 -8.09,6.87 l -3.23,3.2 c -3.66,3.67 -5.51,5.53 -6.85,8.11 -1.37,2.95 -1.37,6.35 0,9.3 1.34,2.59 3.21,4.47 6.85,8.12 l 62.22,62.22 c 1.08,1.26 2.47,2.64 4.3,4.47 l 3.14,3.14 c 3.71,3.71 5.58,5.57 8.18,6.92 2.94,1.38 6.33,1.38 9.27,0 2.6,-1.35 4.47,-3.21 8.13,-6.86 l 63.9,-63.93 h 95.6 c 5.46,0 8.19,-0.01 11.11,-0.94 3.19,-1.15 5.69,-3.66 6.85,-6.85 0.92,-2.9 0.93,-5.65 0.93,-11.04 v -4.63 c 0,-5.47 -0.01,-8.21 -0.93,-11.11 -1.16,-3.19 -3.66,-5.71 -6.85,-6.86 -2.92,-0.93 -5.65,-0.93 -11.05,-0.93 h -53.32 l 29.46,-29.48 h 95.29 c 5.48,0 8.21,0 11.12,-0.93 3.19,-1.15 5.69,-3.66 6.84,-6.84 0.93,-2.91 0.93,-5.65 0.93,-11.04 v -4.64 c 0,-5.48 0,-8.22 -0.93,-11.13 -1.15,-3.18 -3.65,-5.69 -6.84,-6.85 -2.91,-0.92 -5.64,-0.91 -11.03,-0.91 h -97.21 c -2.98,0 -5.11,0.01 -6.94,0.16 -0.49,-0.07 -0.98,-0.16 -1.47,-0.16 z" />
  <path
     style="fill:#ffffff;fill-rule:evenodd"
     inkscape:connector-curvature="0"
     id="path97"
     d="m 50.9297,1342 c -1.5822,0 -3.1645,0.34 -4.6326,1.03 -2.5936,1.34 -4.4369,3.2 -8.0908,6.86 l -125.0327,125.44 -53.6016,-53.79 c -3.703,-3.72 -5.563,-5.58 -8.156,-6.92 -2.936,-1.38 -6.329,-1.38 -9.266,0 -2.593,1.34 -4.42,3.21 -8.074,6.87 l -3.214,3.2 c -3.653,3.67 -5.497,5.53 -6.834,8.11 -1.371,2.95 -1.371,6.35 0,9.3 1.337,2.59 3.197,4.47 6.834,8.12 l 62.036,62.22 c 1.076,1.26 2.463,2.64 4.29,4.47 l 3.1316,3.14 c 3.7029,3.71 5.5625,5.57 8.1561,6.92 2.9362,1.38 6.3128,1.38 9.249,0 2.5936,-1.35 4.4532,-3.21 8.1071,-6.86 l 63.7153,-63.93 h 95.3282 c 5.4483,0 8.1724,-0.01 11.076,-0.94 3.1809,-1.15 5.6767,-3.66 6.8347,-6.85 0.914,-2.9 0.93,-5.65 0.93,-11.04 v -4.63 c 0,-5.47 -0.016,-8.21 -0.93,-11.11 -1.158,-3.19 -3.6538,-5.71 -6.8347,-6.86 -2.9036,-0.93 -5.6277,-0.93 -11.0107,-0.93 H 31.763 l 29.3781,-29.48 h 95.0179 c 5.465,0 8.189,0 11.093,-0.93 3.181,-1.15 5.676,-3.66 6.818,-6.84 0.93,-2.91 0.93,-5.65 0.93,-11.04 v -4.64 c 0,-5.48 0,-8.22 -0.93,-11.13 -1.142,-3.18 -3.637,-5.69 -6.818,-6.85 -2.904,-0.92 -5.628,-0.91 -10.995,-0.91 H 59.3142 c -2.9688,0 -5.0894,0.01 -6.9164,0.16 -0.4893,-0.07 -0.9787,-0.16 -1.4681,-0.16 z" />
  <path
     style="fill:#ffffff;fill-rule:evenodd"
     inkscape:connector-curvature="0"
     id="path99"
     d="m 299.423,1528 c 1.587,0 3.173,-0.34 4.646,-1.03 2.601,-1.34 4.449,-3.2 8.113,-6.86 l 125.388,-125.44 53.754,53.79 c 3.714,3.72 5.578,5.58 8.18,6.92 2.944,1.38 6.347,1.38 9.291,0 2.601,-1.34 4.433,-3.21 8.098,-6.87 l 3.222,-3.2 c 3.664,-3.67 5.513,-5.53 6.854,-8.11 1.375,-2.95 1.375,-6.35 0,-9.3 -1.341,-2.59 -3.206,-4.47 -6.854,-8.12 l -62.211,-62.22 c -1.08,-1.26 -2.47,-2.64 -4.302,-4.47 l -3.141,-3.14 c -3.714,-3.71 -5.579,-5.57 -8.18,-6.92 -2.944,-1.38 -6.33,-1.38 -9.275,0 -2.601,1.35 -4.466,3.21 -8.13,6.86 l -63.896,63.93 h -95.599 c -5.464,0 -8.196,0.01 -11.108,0.94 -3.19,1.15 -5.692,3.66 -6.854,6.85 -0.916,2.9 -0.932,5.65 -0.932,11.04 v 4.63 c 0,5.47 0.016,8.21 0.932,11.11 1.162,3.19 3.664,5.71 6.854,6.86 2.912,0.93 5.644,0.93 11.042,0.93 h 53.329 l -29.462,29.48 h -95.288 c -5.48,0 -8.212,0 -11.124,0.93 -3.19,1.15 -5.692,3.66 -6.838,6.84 -0.932,2.91 -0.932,5.65 -0.932,11.04 v 4.64 c 0,5.48 0,8.22 0.932,11.13 1.146,3.18 3.648,5.69 6.838,6.85 2.912,0.92 5.644,0.91 11.026,0.91 h 97.218 c 2.978,0 5.104,-0.01 6.937,-0.16 0.49,0.07 0.981,0.16 1.472,0.16 z" />
</svg>
