<svg width="2560" height="1440" xmlns="http://www.w3.org/2000/svg" xmlns:xlink="http://www.w3.org/1999/xlink" overflow="hidden"><defs><clipPath id="clip0"><path d="M0 0 2560 0 2560 1440 0 1440Z" fill-rule="evenodd" clip-rule="evenodd"/></clipPath><linearGradient x1="0" y1="720" x2="2560" y2="720" gradientUnits="userSpaceOnUse" spreadMethod="reflect" id="fill1"><stop offset="0" stop-color="#6CF8BD"/><stop offset="0.0151515" stop-color="#6BF7BE"/><stop offset="0.030303" stop-color="#6BF7C0"/><stop offset="0.0454545" stop-color="#6BF7C2"/><stop offset="0.0606061" stop-color="#6BF7C3"/><stop offset="0.0757576" stop-color="#6BF7C5"/><stop offset="0.0909091" stop-color="#6BF7C7"/><stop offset="0.106061" stop-color="#6BF7C8"/><stop offset="0.121212" stop-color="#6AF6CA"/><stop offset="0.136364" stop-color="#6AF6CB"/><stop offset="0.151515" stop-color="#6AF6CD"/><stop offset="0.166667" stop-color="#69F6CE"/><stop offset="0.181818" stop-color="#69F5D0"/><stop offset="0.19697" stop-color="#68F5D1"/><stop offset="0.212121" stop-color="#68F4D3"/><stop offset="0.227273" stop-color="#67F4D4"/><stop offset="0.242424" stop-color="#67F4D6"/><stop offset="0.257576" stop-color="#66F3D7"/><stop offset="0.272727" stop-color="#66F3D8"/><stop offset="0.287879" stop-color="#65F2DA"/><stop offset="0.30303" stop-color="#64F2DB"/><stop offset="0.318182" stop-color="#64F1DC"/><stop offset="0.333333" stop-color="#63F0DE"/><stop offset="0.348485" stop-color="#62F0DF"/><stop offset="0.363636" stop-color="#61EFE0"/><stop offset="0.378788" stop-color="#61EFE1"/><stop offset="0.393939" stop-color="#60EEE2"/><stop offset="0.409091" stop-color="#5FEDE3"/><stop offset="0.424242" stop-color="#5EECE4"/><stop offset="0.439394" stop-color="#5DECE6"/><stop offset="0.454545" stop-color="#5CEBE7"/><stop offset="0.469697" stop-color="#5BEAE8"/><stop offset="0.484848" stop-color="#5AE9E9"/><stop offset="0.5" stop-color="#59E9EA"/><stop offset="0.515152" stop-color="#58E8EB"/><stop offset="0.530303" stop-color="#57E7EB"/><stop offset="0.545455" stop-color="#56E6EC"/><stop offset="0.560606" stop-color="#55E5ED"/><stop offset="0.575758" stop-color="#54E4EE"/><stop offset="0.590909" stop-color="#53E3EF"/><stop offset="0.606061" stop-color="#51E2F0"/><stop offset="0.621212" stop-color="#50E1F0"/><stop offset="0.636364" stop-color="#4FE0F1"/><stop offset="0.651515" stop-color="#4DDFF2"/><stop offset="0.666667" stop-color="#4CDEF3"/><stop offset="0.681818" stop-color="#4BDDF3"/><stop offset="0.69697" stop-color="#49DCF4"/><stop offset="0.712121" stop-color="#48DAF4"/><stop offset="0.727273" stop-color="#47D9F5"/><stop offset="0.742424" stop-color="#45D8F6"/><stop offset="0.757576" stop-color="#44D7F6"/><stop offset="0.772727" stop-color="#42D6F7"/><stop offset="0.787879" stop-color="#41D4F7"/><stop offset="0.80303" stop-color="#3FD3F8"/><stop offset="0.818182" stop-color="#3ED2F8"/><stop offset="0.833333" stop-color="#3CD0F8"/><stop offset="0.848485" stop-color="#3ACFF9"/><stop offset="0.863636" stop-color="#39CEF9"/><stop offset="0.878788" stop-color="#37CCF9"/><stop offset="0.893939" stop-color="#35CBFA"/><stop offset="0.909091" stop-color="#33CAFA"/><stop offset="0.924242" stop-color="#32C8FA"/><stop offset="0.939394" stop-color="#30C7FA"/><stop offset="0.954545" stop-color="#2EC5FA"/><stop offset="0.969697" stop-color="#2CC4FA"/><stop offset="0.984848" stop-color="#2AC2FA"/><stop offset="1" stop-color="#29C1FB"/></linearGradient></defs><g clip-path="url(#clip0)"><rect x="0" y="0" width="2560" height="1440" fill="url(#fill1)"/><path d="M696.93-88C695.347-88 693.765-87.6635 692.297-86.9733 689.703-85.6274 687.86-83.7725 684.206-80.1059L559.174 45.3292 505.572-8.4632C501.869-12.1816 500.009-14.0366 497.416-15.3824 494.48-16.7628 491.087-16.7628 488.15-15.3824 485.557-14.0366 483.73-12.173 480.076-8.50633L476.862-5.31416C473.209-1.63885 471.365 0.216057 470.028 2.79567 468.657 5.74628 468.657 9.15413 470.028 12.0961 471.365 14.693 473.225 16.5651 476.862 20.2232L538.898 82.4446C539.974 83.6956 541.361 85.076 543.188 86.905L546.32 90.0541C550.022 93.7639 551.882 95.6188 554.476 96.9733 557.412 98.3451 560.789 98.3451 563.725 96.9733 566.318 95.6188 568.178 93.7639 571.832 90.1059L635.547 26.1762 730.875 26.1762C736.324 26.1762 739.048 26.1675 741.951 25.2444 745.132 24.0883 747.628 21.5777 748.786 18.3942 749.7 15.4867 749.716 12.7432 749.716 7.35099L749.716 2.71803C749.716-2.7518 749.7-5.48672 748.786-8.39417 747.628-11.5777 745.132-14.0969 741.951-15.253 739.048-16.1762 736.324-16.1762 730.941-16.1762L677.763-16.1762 707.141-45.6563 802.159-45.6563C807.624-45.6563 810.348-45.6649 813.252-46.5881 816.433-47.7441 818.928-50.2461 820.07-53.4297 821-56.3371 821-59.0807 821-64.4728L821-69.1144C821-74.5929 821-77.3278 820.07-80.2353 818.928-83.4188 816.433-85.9294 813.252-87.0855 810.348-88.0086 807.624-88 802.257-88L705.314-88C702.345-88 700.225-87.9914 698.398-87.8447 697.908-87.9137 697.419-88 696.93-88Z" fill="#FFFFFF" fill-rule="evenodd"/><path d="M945.07 98C946.653 98 948.235 97.6635 949.703 96.9733 952.297 95.6274 954.14 93.7725 957.794 90.1059L1082.83-35.3292 1136.43 18.4632C1140.13 22.1816 1141.99 24.0366 1144.58 25.3824 1147.52 26.7628 1150.91 26.7628 1153.85 25.3824 1156.44 24.0366 1158.27 22.173 1161.92 18.5063L1165.14 15.3142C1168.79 11.6389 1170.63 9.78394 1171.97 7.20433 1173.34 4.25372 1173.34 0.845871 1171.97-2.09611 1170.63-4.69298 1168.78-6.56514 1165.14-10.2232L1103.1-72.4446C1102.03-73.6956 1100.64-75.076 1098.81-76.905L1095.68-80.0541C1091.98-83.7639 1090.12-85.6188 1087.52-86.9733 1084.59-88.3451 1081.21-88.3451 1078.28-86.9733 1075.68-85.6188 1073.82-83.7639 1070.17-80.1059L1006.45-16.1762 911.125-16.1762C905.676-16.1762 902.952-16.1675 900.049-15.2444 896.868-14.0883 894.372-11.5777 893.214-8.39417 892.3-5.48671 892.284-2.74316 892.284 2.64901L892.284 7.28197C892.284 12.7518 892.3 15.4867 893.214 18.3942 894.372 21.5777 896.868 24.0969 900.049 25.253 902.952 26.1762 905.676 26.1762 911.059 26.1762L964.237 26.1762 934.859 55.6563 839.841 55.6563C834.376 55.6563 831.652 55.6649 828.748 56.5881 825.567 57.7441 823.072 60.2461 821.93 63.4297 821 66.3371 821 69.0807 821 74.4728L821 79.1144C821 84.5929 821 87.3278 821.93 90.2353 823.072 93.4188 825.567 95.9294 828.748 97.0855 831.652 98.0086 834.376 98 839.743 98L936.686 98C939.655 98 941.775 97.9914 943.602 97.8447 944.092 97.9137 944.581 98 945.07 98Z" fill="#FFFFFF" fill-rule="evenodd"/><path d="M1478.93-88C1477.35-88 1475.77-87.6635 1474.3-86.9733 1471.7-85.6274 1469.86-83.7725 1466.21-80.1059L1341.17 45.3292 1287.57-8.4632C1283.87-12.1816 1282.01-14.0366 1279.42-15.3824 1276.48-16.7628 1273.09-16.7628 1270.15-15.3824 1267.56-14.0366 1265.73-12.173 1262.08-8.50633L1258.86-5.31416C1255.21-1.63885 1253.37 0.216057 1252.03 2.79567 1250.66 5.74628 1250.66 9.15413 1252.03 12.0961 1253.37 14.693 1255.22 16.5651 1258.86 20.2232L1320.9 82.4446C1321.97 83.6956 1323.36 85.076 1325.19 86.905L1328.32 90.0541C1332.02 93.7639 1333.88 95.6188 1336.48 96.9733 1339.41 98.3451 1342.79 98.3451 1345.72 96.9733 1348.32 95.6188 1350.18 93.7639 1353.83 90.1059L1417.55 26.1762 1512.88 26.1762C1518.32 26.1762 1521.05 26.1675 1523.95 25.2444 1527.13 24.0883 1529.63 21.5777 1530.79 18.3942 1531.7 15.4867 1531.72 12.7432 1531.72 7.35099L1531.72 2.71803C1531.72-2.7518 1531.7-5.48672 1530.79-8.39417 1529.63-11.5777 1527.13-14.0969 1523.95-15.253 1521.05-16.1762 1518.32-16.1762 1512.94-16.1762L1459.76-16.1762 1489.14-45.6563 1584.16-45.6563C1589.62-45.6563 1592.35-45.6649 1595.25-46.5881 1598.43-47.7441 1600.93-50.2461 1602.07-53.4297 1603-56.3371 1603-59.0807 1603-64.4728L1603-69.1144C1603-74.5929 1603-77.3278 1602.07-80.2353 1600.93-83.4188 1598.43-85.9294 1595.25-87.0855 1592.35-88.0086 1589.62-88 1584.26-88L1487.31-88C1484.35-88 1482.22-87.9914 1480.4-87.8447 1479.91-87.9137 1479.42-88 1478.93-88Z" fill="#FFFFFF" fill-rule="evenodd"/><path d="M1727.07 98C1728.65 98 1730.23 97.6635 1731.7 96.9733 1734.3 95.6274 1736.14 93.7725 1739.79 90.1059L1864.83-35.3292 1918.43 18.4632C1922.13 22.1816 1923.99 24.0366 1926.58 25.3824 1929.52 26.7628 1932.91 26.7628 1935.85 25.3824 1938.44 24.0366 1940.27 22.173 1943.92 18.5063L1947.14 15.3142C1950.79 11.6389 1952.63 9.78394 1953.97 7.20433 1955.34 4.25372 1955.34 0.845871 1953.97-2.09611 1952.63-4.69298 1950.78-6.56514 1947.14-10.2232L1885.1-72.4446C1884.03-73.6956 1882.64-75.076 1880.81-76.905L1877.68-80.0541C1873.98-83.7639 1872.12-85.6188 1869.52-86.9733 1866.59-88.3451 1863.21-88.3451 1860.28-86.9733 1857.68-85.6188 1855.82-83.7639 1852.17-80.1059L1788.45-16.1762 1693.12-16.1762C1687.68-16.1762 1684.95-16.1675 1682.05-15.2444 1678.87-14.0883 1676.37-11.5777 1675.21-8.39417 1674.3-5.48671 1674.28-2.74316 1674.28 2.64901L1674.28 7.28197C1674.28 12.7518 1674.3 15.4867 1675.21 18.3942 1676.37 21.5777 1678.87 24.0969 1682.05 25.253 1684.95 26.1762 1687.68 26.1762 1693.06 26.1762L1746.24 26.1762 1716.86 55.6563 1621.84 55.6563C1616.38 55.6563 1613.65 55.6649 1610.75 56.5881 1607.57 57.7441 1605.07 60.2461 1603.93 63.4297 1603 66.3371 1603 69.0807 1603 74.4728L1603 79.1144C1603 84.5929 1603 87.3278 1603.93 90.2353 1605.07 93.4188 1607.57 95.9294 1610.75 97.0855 1613.65 98.0086 1616.38 98 1621.74 98L1718.69 98C1721.65 98 1723.78 97.9914 1725.6 97.8447 1726.09 97.9137 1726.58 98 1727.07 98Z" fill="#FFFFFF" fill-rule="evenodd"/><path d="M2260.58-88C2258.99-88 2257.4-87.6635 2255.93-86.9733 2253.33-85.6274 2251.48-83.7725 2247.82-80.1059L2122.43 45.3292 2068.68-8.4632C2064.96-12.1816 2063.1-14.0366 2060.5-15.3824 2057.55-16.7628 2054.15-16.7628 2051.2-15.3824 2048.6-14.0366 2046.77-12.173 2043.11-8.50633L2039.88-5.31416C2036.22-1.63885 2034.37 0.216057 2033.03 2.79567 2031.66 5.74628 2031.66 9.15413 2033.03 12.0961 2034.37 14.693 2036.24 16.5651 2039.88 20.2232L2102.1 82.4446C2103.18 83.6956 2104.57 85.076 2106.4 86.905L2109.54 90.0541C2113.25 93.7639 2115.12 95.6188 2117.72 96.9733 2120.66 98.3451 2124.05 98.3451 2126.99 96.9733 2129.59 95.6188 2131.46 93.7639 2135.12 90.1059L2199.02 26.1762 2294.62 26.1762C2300.08 26.1762 2302.81 26.1675 2305.73 25.2444 2308.92 24.0883 2311.42 21.5777 2312.58 18.3942 2313.5 15.4867 2313.51 12.7432 2313.51 7.35099L2313.51 2.71803C2313.51-2.7518 2313.5-5.48672 2312.58-8.39417 2311.42-11.5777 2308.92-14.0969 2305.73-15.253 2302.81-16.1762 2300.08-16.1762 2294.68-16.1762L2241.36-16.1762 2270.82-45.6563 2366.11-45.6563C2371.59-45.6563 2374.32-45.6649 2377.23-46.5881 2380.42-47.7441 2382.92-50.2461 2384.07-53.4297 2385-56.3371 2385-59.0807 2385-64.4728L2385-69.1144C2385-74.5929 2385-77.3278 2384.07-80.2353 2382.92-83.4188 2380.42-85.9294 2377.23-87.0855 2374.32-88.0086 2371.59-88 2366.2-88L2268.99-88C2266.01-88 2263.88-87.9914 2262.05-87.8447 2261.56-87.9137 2261.07-88 2260.58-88Z" fill="#FFFFFF" fill-rule="evenodd"/><path d="M2509.07 98C2510.65 98 2512.23 97.6635 2513.7 96.9733 2516.3 95.6274 2518.14 93.7725 2521.79 90.1059L2646.83-35.3292 2700.43 18.4632C2704.13 22.1816 2705.99 24.0366 2708.58 25.3824 2711.52 26.7628 2714.91 26.7628 2717.85 25.3824 2720.44 24.0366 2722.27 22.173 2725.92 18.5063L2729.14 15.3142C2732.79 11.6389 2734.63 9.78394 2735.97 7.20433 2737.34 4.25372 2737.34 0.845871 2735.97-2.09611 2734.63-4.69298 2732.78-6.56514 2729.14-10.2232L2667.1-72.4446C2666.03-73.6956 2664.64-75.076 2662.81-76.905L2659.68-80.0541C2655.98-83.7639 2654.12-85.6188 2651.52-86.9733 2648.59-88.3451 2645.21-88.3451 2642.28-86.9733 2639.68-85.6188 2637.82-83.7639 2634.17-80.1059L2570.45-16.1762 2475.12-16.1762C2469.68-16.1762 2466.95-16.1675 2464.05-15.2444 2460.87-14.0883 2458.37-11.5777 2457.21-8.39417 2456.3-5.48671 2456.28-2.74316 2456.28 2.64901L2456.28 7.28197C2456.28 12.7518 2456.3 15.4867 2457.21 18.3942 2458.37 21.5777 2460.87 24.0969 2464.05 25.253 2466.95 26.1762 2469.68 26.1762 2475.06 26.1762L2528.24 26.1762 2498.86 55.6563 2403.84 55.6563C2398.38 55.6563 2395.65 55.6649 2392.75 56.5881 2389.57 57.7441 2387.07 60.2461 2385.93 63.4297 2385 66.3371 2385 69.0807 2385 74.4728L2385 79.1144C2385 84.5929 2385 87.3278 2385.93 90.2353 2387.07 93.4188 2389.57 95.9294 2392.75 97.0855 2395.65 98.0086 2398.38 98 2403.74 98L2500.69 98C2503.65 98 2505.78 97.9914 2507.6 97.8447 2508.09 97.9137 2508.58 98 2509.07 98Z" fill="#FFFFFF" fill-rule="evenodd"/><path d="M163.423 98C165.01 98 166.596 97.6635 168.069 96.9733 170.67 95.6274 172.518 93.7725 176.182 90.1059L301.57-35.3292 355.324 18.4632C359.038 22.1816 360.902 24.0366 363.504 25.3824 366.448 26.7628 369.851 26.7628 372.795 25.3824 375.396 24.0366 377.228 22.173 380.893 18.5063L384.115 15.3142C387.78 11.6389 389.628 9.78394 390.969 7.20433 392.344 4.25372 392.344 0.845871 390.969-2.09611 389.628-4.69298 387.763-6.56514 384.115-10.2232L321.904-72.4446C320.824-73.6956 319.434-75.076 317.602-76.905L314.461-80.0541C310.747-83.7639 308.882-85.6188 306.281-86.9733 303.337-88.3451 299.951-88.3451 297.006-86.9733 294.405-85.6188 292.54-83.7639 288.876-80.1059L224.98-16.1762 129.381-16.1762C123.917-16.1762 121.185-16.1675 118.273-15.2444 115.083-14.0883 112.581-11.5777 111.419-8.39417 110.503-5.48671 110.487-2.74316 110.487 2.64901L110.487 7.28197C110.487 12.7518 110.503 15.4867 111.419 18.3942 112.581 21.5777 115.083 24.0969 118.273 25.253 121.185 26.1762 123.917 26.1762 129.315 26.1762L182.644 26.1762 153.182 55.6563 57.8941 55.6563C52.414 55.6563 49.6821 55.6649 46.7703 56.5881 43.5804 57.7441 41.0775 60.2461 39.9325 63.4297 39 66.3371 39 69.0807 39 74.4728L39 79.1144C39 84.5929 39 87.3278 39.9325 90.2353 41.0775 93.4188 43.5804 95.9294 46.7703 97.0855 49.6821 98.0086 52.414 98 57.7959 98L155.014 98C157.992 98 160.118 97.9914 161.95 97.8447 162.441 97.9137 162.932 98 163.423 98Z" fill="#FFFFFF" fill-rule="evenodd"/><path d="M832.93 198C831.347 198 829.765 198.336 828.297 199.027 825.703 200.373 823.86 202.227 820.206 205.894L695.174 331.329 641.572 277.537C637.869 273.818 636.009 271.963 633.416 270.618 630.48 269.237 627.087 269.237 624.15 270.618 621.557 271.963 619.73 273.827 616.076 277.494L612.862 280.686C609.209 284.361 607.365 286.216 606.028 288.796 604.657 291.746 604.657 295.154 606.028 298.096 607.365 300.693 609.225 302.565 612.862 306.223L674.898 368.445C675.974 369.696 677.361 371.076 679.188 372.905L682.32 376.054C686.022 379.764 687.882 381.619 690.476 382.973 693.412 384.345 696.789 384.345 699.725 382.973 702.318 381.619 704.178 379.764 707.832 376.106L771.547 312.176 866.875 312.176C872.324 312.176 875.048 312.168 877.951 311.244 881.132 310.088 883.628 307.578 884.786 304.394 885.7 301.487 885.716 298.743 885.716 293.351L885.716 288.718C885.716 283.248 885.7 280.513 884.786 277.606 883.628 274.422 881.132 271.903 877.951 270.747 875.048 269.824 872.324 269.824 866.941 269.824L813.763 269.824 843.141 240.344 938.159 240.344C943.624 240.344 946.348 240.335 949.252 239.412 952.433 238.256 954.928 235.754 956.07 232.57 957 229.663 957 226.919 957 221.527L957 216.886C957 211.407 957 208.672 956.07 205.765 954.928 202.581 952.433 200.071 949.252 198.915 946.348 197.991 943.624 198 938.257 198L841.314 198C838.345 198 836.225 198.009 834.398 198.155 833.908 198.086 833.419 198 832.93 198Z" fill="#FFFFFF" fill-rule="evenodd"/><path d="M1081.07 384C1082.65 384 1084.23 383.664 1085.7 382.973 1088.3 381.627 1090.14 379.773 1093.79 376.106L1218.83 250.671 1272.43 304.463C1276.13 308.182 1277.99 310.037 1280.58 311.382 1283.52 312.763 1286.91 312.763 1289.85 311.382 1292.44 310.037 1294.27 308.173 1297.92 304.506L1301.14 301.314C1304.79 297.639 1306.63 295.784 1307.97 293.204 1309.34 290.254 1309.34 286.846 1307.97 283.904 1306.63 281.307 1304.78 279.435 1301.14 275.777L1239.1 213.555C1238.03 212.304 1236.64 210.924 1234.81 209.095L1231.68 205.946C1227.98 202.236 1226.12 200.381 1223.52 199.027 1220.59 197.655 1217.21 197.655 1214.28 199.027 1211.68 200.381 1209.82 202.236 1206.17 205.894L1142.45 269.824 1047.12 269.824C1041.68 269.824 1038.95 269.832 1036.05 270.756 1032.87 271.912 1030.37 274.422 1029.21 277.606 1028.3 280.513 1028.28 283.257 1028.28 288.649L1028.28 293.282C1028.28 298.752 1028.3 301.487 1029.21 304.394 1030.37 307.578 1032.87 310.097 1036.05 311.253 1038.95 312.176 1041.68 312.176 1047.06 312.176L1100.24 312.176 1070.86 341.656 975.841 341.656C970.376 341.656 967.652 341.665 964.748 342.588 961.567 343.744 959.072 346.246 957.93 349.43 957 352.337 957 355.081 957 360.473L957 365.114C957 370.593 957 373.328 957.93 376.235 959.072 379.419 961.567 381.929 964.748 383.085 967.652 384.009 970.376 384 975.743 384L1072.69 384C1075.65 384 1077.78 383.991 1079.6 383.845 1080.09 383.914 1080.58 384 1081.07 384Z" fill="#FFFFFF" fill-rule="evenodd"/><path d="M1614.93 198C1613.35 198 1611.77 198.336 1610.3 199.027 1607.7 200.373 1605.86 202.227 1602.21 205.894L1477.17 331.329 1423.57 277.537C1419.87 273.818 1418.01 271.963 1415.42 270.618 1412.48 269.237 1409.09 269.237 1406.15 270.618 1403.56 271.963 1401.73 273.827 1398.08 277.494L1394.86 280.686C1391.21 284.361 1389.37 286.216 1388.03 288.796 1386.66 291.746 1386.66 295.154 1388.03 298.096 1389.37 300.693 1391.22 302.565 1394.86 306.223L1456.9 368.445C1457.97 369.696 1459.36 371.076 1461.19 372.905L1464.32 376.054C1468.02 379.764 1469.88 381.619 1472.48 382.973 1475.41 384.345 1478.79 384.345 1481.72 382.973 1484.32 381.619 1486.18 379.764 1489.83 376.106L1553.55 312.176 1648.88 312.176C1654.32 312.176 1657.05 312.168 1659.95 311.244 1663.13 310.088 1665.63 307.578 1666.79 304.394 1667.7 301.487 1667.72 298.743 1667.72 293.351L1667.72 288.718C1667.72 283.248 1667.7 280.513 1666.79 277.606 1665.63 274.422 1663.13 271.903 1659.95 270.747 1657.05 269.824 1654.32 269.824 1648.94 269.824L1595.76 269.824 1625.14 240.344 1720.16 240.344C1725.62 240.344 1728.35 240.335 1731.25 239.412 1734.43 238.256 1736.93 235.754 1738.07 232.57 1739 229.663 1739 226.919 1739 221.527L1739 216.886C1739 211.407 1739 208.672 1738.07 205.765 1736.93 202.581 1734.43 200.071 1731.25 198.915 1728.35 197.991 1725.62 198 1720.26 198L1623.31 198C1620.35 198 1618.22 198.009 1616.4 198.155 1615.91 198.086 1615.42 198 1614.93 198Z" fill="#FFFFFF" fill-rule="evenodd"/><path d="M1863.07 384C1864.65 384 1866.23 383.664 1867.7 382.973 1870.3 381.627 1872.14 379.773 1875.79 376.106L2000.83 250.671 2054.43 304.463C2058.13 308.182 2059.99 310.037 2062.58 311.382 2065.52 312.763 2068.91 312.763 2071.85 311.382 2074.44 310.037 2076.27 308.173 2079.92 304.506L2083.14 301.314C2086.79 297.639 2088.63 295.784 2089.97 293.204 2091.34 290.254 2091.34 286.846 2089.97 283.904 2088.63 281.307 2086.78 279.435 2083.14 275.777L2021.1 213.555C2020.03 212.304 2018.64 210.924 2016.81 209.095L2013.68 205.946C2009.98 202.236 2008.12 200.381 2005.52 199.027 2002.59 197.655 1999.21 197.655 1996.28 199.027 1993.68 200.381 1991.82 202.236 1988.17 205.894L1924.45 269.824 1829.12 269.824C1823.68 269.824 1820.95 269.832 1818.05 270.756 1814.87 271.912 1812.37 274.422 1811.21 277.606 1810.3 280.513 1810.28 283.257 1810.28 288.649L1810.28 293.282C1810.28 298.752 1810.3 301.487 1811.21 304.394 1812.37 307.578 1814.87 310.097 1818.05 311.253 1820.95 312.176 1823.68 312.176 1829.06 312.176L1882.24 312.176 1852.86 341.656 1757.84 341.656C1752.38 341.656 1749.65 341.665 1746.75 342.588 1743.57 343.744 1741.07 346.246 1739.93 349.43 1739 352.337 1739 355.081 1739 360.473L1739 365.114C1739 370.593 1739 373.328 1739.93 376.235 1741.07 379.419 1743.57 381.929 1746.75 383.085 1749.65 384.009 1752.38 384 1757.74 384L1854.69 384C1857.65 384 1859.78 383.991 1861.6 383.845 1862.09 383.914 1862.58 384 1863.07 384Z" fill="#FFFFFF" fill-rule="evenodd"/><path d="M2396.58 198C2394.99 198 2393.4 198.336 2391.93 199.027 2389.33 200.373 2387.48 202.227 2383.82 205.894L2258.43 331.329 2204.68 277.537C2200.96 273.818 2199.1 271.963 2196.5 270.618 2193.55 269.237 2190.15 269.237 2187.2 270.618 2184.6 271.963 2182.77 273.827 2179.11 277.494L2175.88 280.686C2172.22 284.361 2170.37 286.216 2169.03 288.796 2167.66 291.746 2167.66 295.154 2169.03 298.096 2170.37 300.693 2172.24 302.565 2175.88 306.223L2238.1 368.445C2239.18 369.696 2240.57 371.076 2242.4 372.905L2245.54 376.054C2249.25 379.764 2251.12 381.619 2253.72 382.973 2256.66 384.345 2260.05 384.345 2262.99 382.973 2265.59 381.619 2267.46 379.764 2271.12 376.106L2335.02 312.176 2430.62 312.176C2436.08 312.176 2438.81 312.168 2441.73 311.244 2444.92 310.088 2447.42 307.578 2448.58 304.394 2449.5 301.487 2449.51 298.743 2449.51 293.351L2449.51 288.718C2449.51 283.248 2449.5 280.513 2448.58 277.606 2447.42 274.422 2444.92 271.903 2441.73 270.747 2438.81 269.824 2436.08 269.824 2430.68 269.824L2377.36 269.824 2406.82 240.344 2502.11 240.344C2507.59 240.344 2510.32 240.335 2513.23 239.412 2516.42 238.256 2518.92 235.754 2520.07 232.57 2521 229.663 2521 226.919 2521 221.527L2521 216.886C2521 211.407 2521 208.672 2520.07 205.765 2518.92 202.581 2516.42 200.071 2513.23 198.915 2510.32 197.991 2507.59 198 2502.2 198L2404.99 198C2402.01 198 2399.88 198.009 2398.05 198.155 2397.56 198.086 2397.07 198 2396.58 198Z" fill="#FFFFFF" fill-rule="evenodd"/><path d="M2645.07 384C2646.65 384 2648.23 383.664 2649.7 382.973 2652.3 381.627 2654.14 379.773 2657.79 376.106L2782.83 250.671 2836.43 304.463C2840.13 308.182 2841.99 310.037 2844.58 311.382 2847.52 312.763 2850.91 312.763 2853.85 311.382 2856.44 310.037 2858.27 308.173 2861.92 304.506L2865.14 301.314C2868.79 297.639 2870.63 295.784 2871.97 293.204 2873.34 290.254 2873.34 286.846 2871.97 283.904 2870.63 281.307 2868.78 279.435 2865.14 275.777L2803.1 213.555C2802.03 212.304 2800.64 210.924 2798.81 209.095L2795.68 205.946C2791.98 202.236 2790.12 200.381 2787.52 199.027 2784.59 197.655 2781.21 197.655 2778.28 199.027 2775.68 200.381 2773.82 202.236 2770.17 205.894L2706.45 269.824 2611.12 269.824C2605.68 269.824 2602.95 269.832 2600.05 270.756 2596.87 271.912 2594.37 274.422 2593.21 277.606 2592.3 280.513 2592.28 283.257 2592.28 288.649L2592.28 293.282C2592.28 298.752 2592.3 301.487 2593.21 304.394 2594.37 307.578 2596.87 310.097 2600.05 311.253 2602.95 312.176 2605.68 312.176 2611.06 312.176L2664.24 312.176 2634.86 341.656 2539.84 341.656C2534.38 341.656 2531.65 341.665 2528.75 342.588 2525.57 343.744 2523.07 346.246 2521.93 349.43 2521 352.337 2521 355.081 2521 360.473L2521 365.114C2521 370.593 2521 373.328 2521.93 376.235 2523.07 379.419 2525.57 381.929 2528.75 383.085 2531.65 384.009 2534.38 384 2539.74 384L2636.69 384C2639.65 384 2641.78 383.991 2643.6 383.845 2644.09 383.914 2644.58 384 2645.07 384Z" fill="#FFFFFF" fill-rule="evenodd"/><path d="M50.9297 198C49.3475 198 47.7652 198.336 46.2971 199.027 43.7035 200.373 41.8602 202.227 38.2063 205.894L-86.8264 331.329-140.428 277.537C-144.131 273.818-145.991 271.963-148.584 270.618-151.52 269.237-154.913 269.237-157.85 270.618-160.443 271.963-162.27 273.827-165.924 277.494L-169.138 280.686C-172.791 284.361-174.635 286.216-175.972 288.796-177.343 291.746-177.343 295.154-175.972 298.096-174.635 300.693-172.775 302.565-169.138 306.223L-107.102 368.445C-106.026 369.696-104.639 371.076-102.812 372.905L-99.6804 376.054C-95.9775 379.764-94.1179 381.619-91.5243 382.973-88.5881 384.345-85.2115 384.345-82.2753 382.973-79.6817 381.619-77.8221 379.764-74.1682 376.106L-10.4529 312.176 84.8753 312.176C90.3236 312.176 93.0477 312.168 95.9513 311.244 99.1322 310.088 101.628 307.578 102.786 304.394 103.7 301.487 103.716 298.743 103.716 293.351L103.716 288.718C103.716 283.248 103.7 280.513 102.786 277.606 101.628 274.422 99.1322 271.903 95.9513 270.747 93.0477 269.824 90.3236 269.824 84.9406 269.824L31.763 269.824 61.1411 240.344 156.159 240.344C161.624 240.344 164.348 240.335 167.252 239.412 170.433 238.256 172.928 235.754 174.07 232.57 175 229.663 175 226.919 175 221.527L175 216.886C175 211.407 175 208.672 174.07 205.765 172.928 202.581 170.433 200.071 167.252 198.915 164.348 197.991 161.624 198 156.257 198L59.3142 198C56.3454 198 54.2248 198.009 52.3978 198.155 51.9085 198.086 51.4191 198 50.9297 198Z" fill="#FFFFFF" fill-rule="evenodd"/><path d="M299.423 384C301.01 384 302.596 383.664 304.069 382.973 306.67 381.627 308.518 379.773 312.182 376.106L437.57 250.671 491.324 304.463C495.038 308.182 496.902 310.037 499.504 311.382 502.448 312.763 505.851 312.763 508.795 311.382 511.396 310.037 513.228 308.173 516.893 304.506L520.115 301.314C523.779 297.639 525.628 295.784 526.969 293.204 528.344 290.254 528.344 286.846 526.969 283.904 525.628 281.307 523.763 279.435 520.115 275.777L457.904 213.555C456.824 212.304 455.434 210.924 453.602 209.095L450.461 205.946C446.747 202.236 444.882 200.381 442.281 199.027 439.337 197.655 435.951 197.655 433.006 199.027 430.405 200.381 428.54 202.236 424.876 205.894L360.98 269.824 265.381 269.824C259.917 269.824 257.185 269.832 254.273 270.756 251.083 271.912 248.581 274.422 247.419 277.606 246.503 280.513 246.487 283.257 246.487 288.649L246.487 293.282C246.487 298.752 246.503 301.487 247.419 304.394 248.581 307.578 251.083 310.097 254.273 311.253 257.185 312.176 259.917 312.176 265.315 312.176L318.644 312.176 289.182 341.656 193.894 341.656C188.414 341.656 185.682 341.665 182.77 342.588 179.58 343.744 177.078 346.246 175.932 349.43 175 352.337 175 355.081 175 360.473L175 365.114C175 370.593 175 373.328 175.932 376.235 177.078 379.419 179.58 381.929 182.77 383.085 185.682 384.009 188.414 384 193.796 384L291.014 384C293.992 384 296.118 383.991 297.951 383.845 298.441 383.914 298.932 384 299.423 384Z" fill="#FFFFFF" fill-rule="evenodd"/><path d="M696.93 484C695.347 484 693.765 484.336 692.297 485.027 689.703 486.373 687.86 488.227 684.206 491.894L559.174 617.329 505.572 563.537C501.869 559.818 500.009 557.963 497.416 556.618 494.48 555.237 491.087 555.237 488.15 556.618 485.557 557.963 483.73 559.827 480.076 563.494L476.862 566.686C473.209 570.361 471.365 572.216 470.028 574.796 468.657 577.746 468.657 581.154 470.028 584.096 471.365 586.693 473.225 588.565 476.862 592.223L538.898 654.445C539.974 655.696 541.361 657.076 543.188 658.905L546.32 662.054C550.022 665.764 551.882 667.619 554.476 668.973 557.412 670.345 560.789 670.345 563.725 668.973 566.318 667.619 568.178 665.764 571.832 662.106L635.547 598.176 730.875 598.176C736.324 598.176 739.048 598.168 741.951 597.244 745.132 596.088 747.628 593.578 748.786 590.394 749.7 587.487 749.716 584.743 749.716 579.351L749.716 574.718C749.716 569.248 749.7 566.513 748.786 563.606 747.628 560.422 745.132 557.903 741.951 556.747 739.048 555.824 736.324 555.824 730.941 555.824L677.763 555.824 707.141 526.344 802.159 526.344C807.624 526.344 810.348 526.335 813.252 525.412 816.433 524.256 818.928 521.754 820.07 518.57 821 515.663 821 512.919 821 507.527L821 502.886C821 497.407 821 494.672 820.07 491.765 818.928 488.581 816.433 486.071 813.252 484.915 810.348 483.991 807.624 484 802.257 484L705.314 484C702.345 484 700.225 484.009 698.398 484.155 697.908 484.086 697.419 484 696.93 484Z" fill="#FFFFFF" fill-rule="evenodd"/><path d="M945.07 670C946.653 670 948.235 669.664 949.703 668.973 952.297 667.627 954.14 665.773 957.794 662.106L1082.83 536.671 1136.43 590.463C1140.13 594.182 1141.99 596.037 1144.58 597.382 1147.52 598.763 1150.91 598.763 1153.85 597.382 1156.44 596.037 1158.27 594.173 1161.92 590.506L1165.14 587.314C1168.79 583.639 1170.63 581.784 1171.97 579.204 1173.34 576.254 1173.34 572.846 1171.97 569.904 1170.63 567.307 1168.78 565.435 1165.14 561.777L1103.1 499.555C1102.03 498.304 1100.64 496.924 1098.81 495.095L1095.68 491.946C1091.98 488.236 1090.12 486.381 1087.52 485.027 1084.59 483.655 1081.21 483.655 1078.28 485.027 1075.68 486.381 1073.82 488.236 1070.17 491.894L1006.45 555.824 911.125 555.824C905.676 555.824 902.952 555.832 900.049 556.756 896.868 557.912 894.372 560.422 893.214 563.606 892.3 566.513 892.284 569.257 892.284 574.649L892.284 579.282C892.284 584.752 892.3 587.487 893.214 590.394 894.372 593.578 896.868 596.097 900.049 597.253 902.952 598.176 905.676 598.176 911.059 598.176L964.237 598.176 934.859 627.656 839.841 627.656C834.376 627.656 831.652 627.665 828.748 628.588 825.567 629.744 823.072 632.246 821.93 635.43 821 638.337 821 641.081 821 646.473L821 651.114C821 656.593 821 659.328 821.93 662.235 823.072 665.419 825.567 667.929 828.748 669.086 831.652 670.009 834.376 670 839.743 670L936.686 670C939.655 670 941.775 669.991 943.602 669.845 944.092 669.914 944.581 670 945.07 670Z" fill="#FFFFFF" fill-rule="evenodd"/><path d="M1478.93 484C1477.35 484 1475.77 484.336 1474.3 485.027 1471.7 486.373 1469.86 488.227 1466.21 491.894L1341.17 617.329 1287.57 563.537C1283.87 559.818 1282.01 557.963 1279.42 556.618 1276.48 555.237 1273.09 555.237 1270.15 556.618 1267.56 557.963 1265.73 559.827 1262.08 563.494L1258.86 566.686C1255.21 570.361 1253.37 572.216 1252.03 574.796 1250.66 577.746 1250.66 581.154 1252.03 584.096 1253.37 586.693 1255.22 588.565 1258.86 592.223L1320.9 654.445C1321.97 655.696 1323.36 657.076 1325.19 658.905L1328.32 662.054C1332.02 665.764 1333.88 667.619 1336.48 668.973 1339.41 670.345 1342.79 670.345 1345.72 668.973 1348.32 667.619 1350.18 665.764 1353.83 662.106L1417.55 598.176 1512.88 598.176C1518.32 598.176 1521.05 598.168 1523.95 597.244 1527.13 596.088 1529.63 593.578 1530.79 590.394 1531.7 587.487 1531.72 584.743 1531.72 579.351L1531.72 574.718C1531.72 569.248 1531.7 566.513 1530.79 563.606 1529.63 560.422 1527.13 557.903 1523.95 556.747 1521.05 555.824 1518.32 555.824 1512.94 555.824L1459.76 555.824 1489.14 526.344 1584.16 526.344C1589.62 526.344 1592.35 526.335 1595.25 525.412 1598.43 524.256 1600.93 521.754 1602.07 518.57 1603 515.663 1603 512.919 1603 507.527L1603 502.886C1603 497.407 1603 494.672 1602.07 491.765 1600.93 488.581 1598.43 486.071 1595.25 484.915 1592.35 483.991 1589.62 484 1584.26 484L1487.31 484C1484.35 484 1482.22 484.009 1480.4 484.155 1479.91 484.086 1479.42 484 1478.93 484Z" fill="#FFFFFF" fill-rule="evenodd"/><path d="M1727.07 670C1728.65 670 1730.23 669.664 1731.7 668.973 1734.3 667.627 1736.14 665.773 1739.79 662.106L1864.83 536.671 1918.43 590.463C1922.13 594.182 1923.99 596.037 1926.58 597.382 1929.52 598.763 1932.91 598.763 1935.85 597.382 1938.44 596.037 1940.27 594.173 1943.92 590.506L1947.14 587.314C1950.79 583.639 1952.63 581.784 1953.97 579.204 1955.34 576.254 1955.34 572.846 1953.97 569.904 1952.63 567.307 1950.78 565.435 1947.14 561.777L1885.1 499.555C1884.03 498.304 1882.64 496.924 1880.81 495.095L1877.68 491.946C1873.98 488.236 1872.12 486.381 1869.52 485.027 1866.59 483.655 1863.21 483.655 1860.28 485.027 1857.68 486.381 1855.82 488.236 1852.17 491.894L1788.45 555.824 1693.12 555.824C1687.68 555.824 1684.95 555.832 1682.05 556.756 1678.87 557.912 1676.37 560.422 1675.21 563.606 1674.3 566.513 1674.28 569.257 1674.28 574.649L1674.28 579.282C1674.28 584.752 1674.3 587.487 1675.21 590.394 1676.37 593.578 1678.87 596.097 1682.05 597.253 1684.95 598.176 1687.68 598.176 1693.06 598.176L1746.24 598.176 1716.86 627.656 1621.84 627.656C1616.38 627.656 1613.65 627.665 1610.75 628.588 1607.57 629.744 1605.07 632.246 1603.93 635.43 1603 638.337 1603 641.081 1603 646.473L1603 651.114C1603 656.593 1603 659.328 1603.93 662.235 1605.07 665.419 1607.57 667.929 1610.75 669.086 1613.65 670.009 1616.38 670 1621.74 670L1718.69 670C1721.65 670 1723.78 669.991 1725.6 669.845 1726.09 669.914 1726.58 670 1727.07 670Z" fill="#FFFFFF" fill-rule="evenodd"/><path d="M2260.58 484C2258.99 484 2257.4 484.336 2255.93 485.027 2253.33 486.373 2251.48 488.227 2247.82 491.894L2122.43 617.329 2068.68 563.537C2064.96 559.818 2063.1 557.963 2060.5 556.618 2057.55 555.237 2054.15 555.237 2051.2 556.618 2048.6 557.963 2046.77 559.827 2043.11 563.494L2039.88 566.686C2036.22 570.361 2034.37 572.216 2033.03 574.796 2031.66 577.746 2031.66 581.154 2033.03 584.096 2034.37 586.693 2036.24 588.565 2039.88 592.223L2102.1 654.445C2103.18 655.696 2104.57 657.076 2106.4 658.905L2109.54 662.054C2113.25 665.764 2115.12 667.619 2117.72 668.973 2120.66 670.345 2124.05 670.345 2126.99 668.973 2129.59 667.619 2131.46 665.764 2135.12 662.106L2199.02 598.176 2294.62 598.176C2300.08 598.176 2302.81 598.168 2305.73 597.244 2308.92 596.088 2311.42 593.578 2312.58 590.394 2313.5 587.487 2313.51 584.743 2313.51 579.351L2313.51 574.718C2313.51 569.248 2313.5 566.513 2312.58 563.606 2311.42 560.422 2308.92 557.903 2305.73 556.747 2302.81 555.824 2300.08 555.824 2294.68 555.824L2241.36 555.824 2270.82 526.344 2366.11 526.344C2371.59 526.344 2374.32 526.335 2377.23 525.412 2380.42 524.256 2382.92 521.754 2384.07 518.57 2385 515.663 2385 512.919 2385 507.527L2385 502.886C2385 497.407 2385 494.672 2384.07 491.765 2382.92 488.581 2380.42 486.071 2377.23 484.915 2374.32 483.991 2371.59 484 2366.2 484L2268.99 484C2266.01 484 2263.88 484.009 2262.05 484.155 2261.56 484.086 2261.07 484 2260.58 484Z" fill="#FFFFFF" fill-rule="evenodd"/><path d="M2509.07 670C2510.65 670 2512.23 669.664 2513.7 668.973 2516.3 667.627 2518.14 665.773 2521.79 662.106L2646.83 536.671 2700.43 590.463C2704.13 594.182 2705.99 596.037 2708.58 597.382 2711.52 598.763 2714.91 598.763 2717.85 597.382 2720.44 596.037 2722.27 594.173 2725.92 590.506L2729.14 587.314C2732.79 583.639 2734.63 581.784 2735.97 579.204 2737.34 576.254 2737.34 572.846 2735.97 569.904 2734.63 567.307 2732.78 565.435 2729.14 561.777L2667.1 499.555C2666.03 498.304 2664.64 496.924 2662.81 495.095L2659.68 491.946C2655.98 488.236 2654.12 486.381 2651.52 485.027 2648.59 483.655 2645.21 483.655 2642.28 485.027 2639.68 486.381 2637.82 488.236 2634.17 491.894L2570.45 555.824 2475.12 555.824C2469.68 555.824 2466.95 555.832 2464.05 556.756 2460.87 557.912 2458.37 560.422 2457.21 563.606 2456.3 566.513 2456.28 569.257 2456.28 574.649L2456.28 579.282C2456.28 584.752 2456.3 587.487 2457.21 590.394 2458.37 593.578 2460.87 596.097 2464.05 597.253 2466.95 598.176 2469.68 598.176 2475.06 598.176L2528.24 598.176 2498.86 627.656 2403.84 627.656C2398.38 627.656 2395.65 627.665 2392.75 628.588 2389.57 629.744 2387.07 632.246 2385.93 635.43 2385 638.337 2385 641.081 2385 646.473L2385 651.114C2385 656.593 2385 659.328 2385.93 662.235 2387.07 665.419 2389.57 667.929 2392.75 669.086 2395.65 670.009 2398.38 670 2403.74 670L2500.69 670C2503.65 670 2505.78 669.991 2507.6 669.845 2508.09 669.914 2508.58 670 2509.07 670Z" fill="#FFFFFF" fill-rule="evenodd"/><path d="M-85.0703 484C-86.6525 484-88.2348 484.336-89.7029 485.027-92.2965 486.373-94.1398 488.227-97.7937 491.894L-222.826 617.329-276.428 563.537C-280.131 559.818-281.991 557.963-284.584 556.618-287.52 555.237-290.913 555.237-293.85 556.618-296.443 557.963-298.27 559.827-301.924 563.494L-305.138 566.686C-308.791 570.361-310.635 572.216-311.972 574.796-313.343 577.746-313.343 581.154-311.972 584.096-310.635 586.693-308.775 588.565-305.138 592.223L-243.102 654.445C-242.026 655.696-240.639 657.076-238.812 658.905L-235.68 662.054C-231.978 665.764-230.118 667.619-227.524 668.973-224.588 670.345-221.212 670.345-218.275 668.973-215.682 667.619-213.822 665.764-210.168 662.106L-146.453 598.176-51.1247 598.176C-45.6764 598.176-42.9523 598.168-40.0487 597.244-36.8678 596.088-34.3721 593.578-33.2139 590.394-32.3004 587.487-32.2841 584.743-32.2841 579.351L-32.2841 574.718C-32.2841 569.248-32.3004 566.513-33.2139 563.606-34.3721 560.422-36.8678 557.903-40.0487 556.747-42.9523 555.824-45.6764 555.824-51.0594 555.824L-104.237 555.824-74.8589 526.344 20.1594 526.344C25.624 526.344 28.3481 526.335 31.2517 525.412 34.4326 524.256 36.9283 521.754 38.0702 518.57 39 515.663 39 512.919 39 507.527L39 502.886C39 497.407 39 494.672 38.0702 491.765 36.9283 488.581 34.4326 486.071 31.2517 484.915 28.3481 483.991 25.624 484 20.2573 484L-76.6858 484C-79.6546 484-81.7752 484.009-83.6022 484.155-84.0915 484.086-84.5809 484-85.0703 484Z" fill="#FFFFFF" fill-rule="evenodd"/><path d="M163.423 670C165.01 670 166.596 669.664 168.069 668.973 170.67 667.627 172.518 665.773 176.182 662.106L301.57 536.671 355.324 590.463C359.038 594.182 360.902 596.037 363.504 597.382 366.448 598.763 369.851 598.763 372.795 597.382 375.396 596.037 377.228 594.173 380.893 590.506L384.115 587.314C387.78 583.639 389.628 581.784 390.969 579.204 392.344 576.254 392.344 572.846 390.969 569.904 389.628 567.307 387.763 565.435 384.115 561.777L321.904 499.555C320.824 498.304 319.434 496.924 317.602 495.095L314.461 491.946C310.747 488.236 308.882 486.381 306.281 485.027 303.337 483.655 299.951 483.655 297.006 485.027 294.405 486.381 292.54 488.236 288.876 491.894L224.98 555.824 129.381 555.824C123.917 555.824 121.185 555.832 118.273 556.756 115.083 557.912 112.581 560.422 111.419 563.606 110.503 566.513 110.487 569.257 110.487 574.649L110.487 579.282C110.487 584.752 110.503 587.487 111.419 590.394 112.581 593.578 115.083 596.097 118.273 597.253 121.185 598.176 123.917 598.176 129.315 598.176L182.644 598.176 153.182 627.656 57.8941 627.656C52.414 627.656 49.6821 627.665 46.7703 628.588 43.5804 629.744 41.0775 632.246 39.9325 635.43 39 638.337 39 641.081 39 646.473L39 651.114C39 656.593 39 659.328 39.9325 662.235 41.0775 665.419 43.5804 667.929 46.7703 669.086 49.6821 670.009 52.414 670 57.7959 670L155.014 670C157.992 670 160.118 669.991 161.95 669.845 162.441 669.914 162.932 670 163.423 670Z" fill="#FFFFFF" fill-rule="evenodd"/><path d="M832.93 770C831.347 770 829.765 770.336 828.297 771.027 825.703 772.373 823.86 774.227 820.206 777.894L695.174 903.329 641.572 849.537C637.869 845.818 636.009 843.963 633.416 842.618 630.48 841.237 627.087 841.237 624.15 842.618 621.557 843.963 619.73 845.827 616.076 849.494L612.862 852.686C609.209 856.361 607.365 858.216 606.028 860.796 604.657 863.746 604.657 867.154 606.028 870.096 607.365 872.693 609.225 874.565 612.862 878.223L674.898 940.445C675.974 941.696 677.361 943.076 679.188 944.905L682.32 948.054C686.022 951.764 687.882 953.619 690.476 954.973 693.412 956.345 696.789 956.345 699.725 954.973 702.318 953.619 704.178 951.764 707.832 948.106L771.547 884.176 866.875 884.176C872.324 884.176 875.048 884.168 877.951 883.244 881.132 882.088 883.628 879.578 884.786 876.394 885.7 873.487 885.716 870.743 885.716 865.351L885.716 860.718C885.716 855.248 885.7 852.513 884.786 849.606 883.628 846.422 881.132 843.903 877.951 842.747 875.048 841.824 872.324 841.824 866.941 841.824L813.763 841.824 843.141 812.344 938.159 812.344C943.624 812.344 946.348 812.335 949.252 811.412 952.433 810.256 954.928 807.754 956.07 804.57 957 801.663 957 798.919 957 793.527L957 788.886C957 783.407 957 780.672 956.07 777.765 954.928 774.581 952.433 772.071 949.252 770.914 946.348 769.991 943.624 770 938.257 770L841.314 770C838.345 770 836.225 770.009 834.398 770.155 833.908 770.086 833.419 770 832.93 770Z" fill="#FFFFFF" fill-rule="evenodd"/><path d="M1081.07 956C1082.65 956 1084.23 955.664 1085.7 954.973 1088.3 953.627 1090.14 951.773 1093.79 948.106L1218.83 822.671 1272.43 876.463C1276.13 880.182 1277.99 882.037 1280.58 883.382 1283.52 884.763 1286.91 884.763 1289.85 883.382 1292.44 882.037 1294.27 880.173 1297.92 876.506L1301.14 873.314C1304.79 869.639 1306.63 867.784 1307.97 865.204 1309.34 862.254 1309.34 858.846 1307.97 855.904 1306.63 853.307 1304.78 851.435 1301.14 847.777L1239.1 785.555C1238.03 784.304 1236.64 782.924 1234.81 781.095L1231.68 777.946C1227.98 774.236 1226.12 772.381 1223.52 771.027 1220.59 769.655 1217.21 769.655 1214.28 771.027 1211.68 772.381 1209.82 774.236 1206.17 777.894L1142.45 841.824 1047.12 841.824C1041.68 841.824 1038.95 841.832 1036.05 842.756 1032.87 843.912 1030.37 846.422 1029.21 849.606 1028.3 852.513 1028.28 855.257 1028.28 860.649L1028.28 865.282C1028.28 870.752 1028.3 873.487 1029.21 876.394 1030.37 879.578 1032.87 882.097 1036.05 883.253 1038.95 884.176 1041.68 884.176 1047.06 884.176L1100.24 884.176 1070.86 913.656 975.841 913.656C970.376 913.656 967.652 913.665 964.748 914.588 961.567 915.744 959.072 918.246 957.93 921.43 957 924.337 957 927.081 957 932.473L957 937.114C957 942.593 957 945.328 957.93 948.235 959.072 951.419 961.567 953.929 964.748 955.086 967.652 956.009 970.376 956 975.743 956L1072.69 956C1075.65 956 1077.78 955.991 1079.6 955.845 1080.09 955.914 1080.58 956 1081.07 956Z" fill="#FFFFFF" fill-rule="evenodd"/><path d="M1614.93 770C1613.35 770 1611.77 770.336 1610.3 771.027 1607.7 772.373 1605.86 774.227 1602.21 777.894L1477.17 903.329 1423.57 849.537C1419.87 845.818 1418.01 843.963 1415.42 842.618 1412.48 841.237 1409.09 841.237 1406.15 842.618 1403.56 843.963 1401.73 845.827 1398.08 849.494L1394.86 852.686C1391.21 856.361 1389.37 858.216 1388.03 860.796 1386.66 863.746 1386.66 867.154 1388.03 870.096 1389.37 872.693 1391.22 874.565 1394.86 878.223L1456.9 940.445C1457.97 941.696 1459.36 943.076 1461.19 944.905L1464.32 948.054C1468.02 951.764 1469.88 953.619 1472.48 954.973 1475.41 956.345 1478.79 956.345 1481.72 954.973 1484.32 953.619 1486.18 951.764 1489.83 948.106L1553.55 884.176 1648.88 884.176C1654.32 884.176 1657.05 884.168 1659.95 883.244 1663.13 882.088 1665.63 879.578 1666.79 876.394 1667.7 873.487 1667.72 870.743 1667.72 865.351L1667.72 860.718C1667.72 855.248 1667.7 852.513 1666.79 849.606 1665.63 846.422 1663.13 843.903 1659.95 842.747 1657.05 841.824 1654.32 841.824 1648.94 841.824L1595.76 841.824 1625.14 812.344 1720.16 812.344C1725.62 812.344 1728.35 812.335 1731.25 811.412 1734.43 810.256 1736.93 807.754 1738.07 804.57 1739 801.663 1739 798.919 1739 793.527L1739 788.886C1739 783.407 1739 780.672 1738.07 777.765 1736.93 774.581 1734.43 772.071 1731.25 770.914 1728.35 769.991 1725.62 770 1720.26 770L1623.31 770C1620.35 770 1618.22 770.009 1616.4 770.155 1615.91 770.086 1615.42 770 1614.93 770Z" fill="#FFFFFF" fill-rule="evenodd"/><path d="M1863.07 956C1864.65 956 1866.23 955.664 1867.7 954.973 1870.3 953.627 1872.14 951.773 1875.79 948.106L2000.83 822.671 2054.43 876.463C2058.13 880.182 2059.99 882.037 2062.58 883.382 2065.52 884.763 2068.91 884.763 2071.85 883.382 2074.44 882.037 2076.27 880.173 2079.92 876.506L2083.14 873.314C2086.79 869.639 2088.63 867.784 2089.97 865.204 2091.34 862.254 2091.34 858.846 2089.97 855.904 2088.63 853.307 2086.78 851.435 2083.14 847.777L2021.1 785.555C2020.03 784.304 2018.64 782.924 2016.81 781.095L2013.68 777.946C2009.98 774.236 2008.12 772.381 2005.52 771.027 2002.59 769.655 1999.21 769.655 1996.28 771.027 1993.68 772.381 1991.82 774.236 1988.17 777.894L1924.45 841.824 1829.12 841.824C1823.68 841.824 1820.95 841.832 1818.05 842.756 1814.87 843.912 1812.37 846.422 1811.21 849.606 1810.3 852.513 1810.28 855.257 1810.28 860.649L1810.28 865.282C1810.28 870.752 1810.3 873.487 1811.21 876.394 1812.37 879.578 1814.87 882.097 1818.05 883.253 1820.95 884.176 1823.68 884.176 1829.06 884.176L1882.24 884.176 1852.86 913.656 1757.84 913.656C1752.38 913.656 1749.65 913.665 1746.75 914.588 1743.57 915.744 1741.07 918.246 1739.93 921.43 1739 924.337 1739 927.081 1739 932.473L1739 937.114C1739 942.593 1739 945.328 1739.93 948.235 1741.07 951.419 1743.57 953.929 1746.75 955.086 1749.65 956.009 1752.38 956 1757.74 956L1854.69 956C1857.65 956 1859.78 955.991 1861.6 955.845 1862.09 955.914 1862.58 956 1863.07 956Z" fill="#FFFFFF" fill-rule="evenodd"/><path d="M2396.58 770C2394.99 770 2393.4 770.336 2391.93 771.027 2389.33 772.373 2387.48 774.227 2383.82 777.894L2258.43 903.329 2204.68 849.537C2200.96 845.818 2199.1 843.963 2196.5 842.618 2193.55 841.237 2190.15 841.237 2187.2 842.618 2184.6 843.963 2182.77 845.827 2179.11 849.494L2175.88 852.686C2172.22 856.361 2170.37 858.216 2169.03 860.796 2167.66 863.746 2167.66 867.154 2169.03 870.096 2170.37 872.693 2172.24 874.565 2175.88 878.223L2238.1 940.445C2239.18 941.696 2240.57 943.076 2242.4 944.905L2245.54 948.054C2249.25 951.764 2251.12 953.619 2253.72 954.973 2256.66 956.345 2260.05 956.345 2262.99 954.973 2265.59 953.619 2267.46 951.764 2271.12 948.106L2335.02 884.176 2430.62 884.176C2436.08 884.176 2438.81 884.168 2441.73 883.244 2444.92 882.088 2447.42 879.578 2448.58 876.394 2449.5 873.487 2449.51 870.743 2449.51 865.351L2449.51 860.718C2449.51 855.248 2449.5 852.513 2448.58 849.606 2447.42 846.422 2444.92 843.903 2441.73 842.747 2438.81 841.824 2436.08 841.824 2430.68 841.824L2377.36 841.824 2406.82 812.344 2502.11 812.344C2507.59 812.344 2510.32 812.335 2513.23 811.412 2516.42 810.256 2518.92 807.754 2520.07 804.57 2521 801.663 2521 798.919 2521 793.527L2521 788.886C2521 783.407 2521 780.672 2520.07 777.765 2518.92 774.581 2516.42 772.071 2513.23 770.914 2510.32 769.991 2507.59 770 2502.2 770L2404.99 770C2402.01 770 2399.88 770.009 2398.05 770.155 2397.56 770.086 2397.07 770 2396.58 770Z" fill="#FFFFFF" fill-rule="evenodd"/><path d="M2645.07 956C2646.65 956 2648.23 955.664 2649.7 954.973 2652.3 953.627 2654.14 951.773 2657.79 948.106L2782.83 822.671 2836.43 876.463C2840.13 880.182 2841.99 882.037 2844.58 883.382 2847.52 884.763 2850.91 884.763 2853.85 883.382 2856.44 882.037 2858.27 880.173 2861.92 876.506L2865.14 873.314C2868.79 869.639 2870.63 867.784 2871.97 865.204 2873.34 862.254 2873.34 858.846 2871.97 855.904 2870.63 853.307 2868.78 851.435 2865.14 847.777L2803.1 785.555C2802.03 784.304 2800.64 782.924 2798.81 781.095L2795.68 777.946C2791.98 774.236 2790.12 772.381 2787.52 771.027 2784.59 769.655 2781.21 769.655 2778.28 771.027 2775.68 772.381 2773.82 774.236 2770.17 777.894L2706.45 841.824 2611.12 841.824C2605.68 841.824 2602.95 841.832 2600.05 842.756 2596.87 843.912 2594.37 846.422 2593.21 849.606 2592.3 852.513 2592.28 855.257 2592.28 860.649L2592.28 865.282C2592.28 870.752 2592.3 873.487 2593.21 876.394 2594.37 879.578 2596.87 882.097 2600.05 883.253 2602.95 884.176 2605.68 884.176 2611.06 884.176L2664.24 884.176 2634.86 913.656 2539.84 913.656C2534.38 913.656 2531.65 913.665 2528.75 914.588 2525.57 915.744 2523.07 918.246 2521.93 921.43 2521 924.337 2521 927.081 2521 932.473L2521 937.114C2521 942.593 2521 945.328 2521.93 948.235 2523.07 951.419 2525.57 953.929 2528.75 955.086 2531.65 956.009 2534.38 956 2539.74 956L2636.69 956C2639.65 956 2641.78 955.991 2643.6 955.845 2644.09 955.914 2644.58 956 2645.07 956Z" fill="#FFFFFF" fill-rule="evenodd"/><path d="M50.9297 770C49.3475 770 47.7652 770.336 46.2971 771.027 43.7035 772.373 41.8602 774.227 38.2063 777.894L-86.8264 903.329-140.428 849.537C-144.131 845.818-145.991 843.963-148.584 842.618-151.52 841.237-154.913 841.237-157.85 842.618-160.443 843.963-162.27 845.827-165.924 849.494L-169.138 852.686C-172.791 856.361-174.635 858.216-175.972 860.796-177.343 863.746-177.343 867.154-175.972 870.096-174.635 872.693-172.775 874.565-169.138 878.223L-107.102 940.445C-106.026 941.696-104.639 943.076-102.812 944.905L-99.6804 948.054C-95.9775 951.764-94.1179 953.619-91.5243 954.973-88.5881 956.345-85.2115 956.345-82.2753 954.973-79.6817 953.619-77.8221 951.764-74.1682 948.106L-10.4529 884.176 84.8753 884.176C90.3236 884.176 93.0477 884.168 95.9513 883.244 99.1322 882.088 101.628 879.578 102.786 876.394 103.7 873.487 103.716 870.743 103.716 865.351L103.716 860.718C103.716 855.248 103.7 852.513 102.786 849.606 101.628 846.422 99.1322 843.903 95.9513 842.747 93.0477 841.824 90.3236 841.824 84.9406 841.824L31.763 841.824 61.1411 812.344 156.159 812.344C161.624 812.344 164.348 812.335 167.252 811.412 170.433 810.256 172.928 807.754 174.07 804.57 175 801.663 175 798.919 175 793.527L175 788.886C175 783.407 175 780.672 174.07 777.765 172.928 774.581 170.433 772.071 167.252 770.914 164.348 769.991 161.624 770 156.257 770L59.3142 770C56.3454 770 54.2248 770.009 52.3978 770.155 51.9085 770.086 51.4191 770 50.9297 770Z" fill="#FFFFFF" fill-rule="evenodd"/><path d="M299.423 956C301.01 956 302.596 955.664 304.069 954.973 306.67 953.627 308.518 951.773 312.182 948.106L437.57 822.671 491.324 876.463C495.038 880.182 496.902 882.037 499.504 883.382 502.448 884.763 505.851 884.763 508.795 883.382 511.396 882.037 513.228 880.173 516.893 876.506L520.115 873.314C523.779 869.639 525.628 867.784 526.969 865.204 528.344 862.254 528.344 858.846 526.969 855.904 525.628 853.307 523.763 851.435 520.115 847.777L457.904 785.555C456.824 784.304 455.434 782.924 453.602 781.095L450.461 777.946C446.747 774.236 444.882 772.381 442.281 771.027 439.337 769.655 435.951 769.655 433.006 771.027 430.405 772.381 428.54 774.236 424.876 777.894L360.98 841.824 265.381 841.824C259.917 841.824 257.185 841.832 254.273 842.756 251.083 843.912 248.581 846.422 247.419 849.606 246.503 852.513 246.487 855.257 246.487 860.649L246.487 865.282C246.487 870.752 246.503 873.487 247.419 876.394 248.581 879.578 251.083 882.097 254.273 883.253 257.185 884.176 259.917 884.176 265.315 884.176L318.644 884.176 289.182 913.656 193.894 913.656C188.414 913.656 185.682 913.665 182.77 914.588 179.58 915.744 177.078 918.246 175.932 921.43 175 924.337 175 927.081 175 932.473L175 937.114C175 942.593 175 945.328 175.932 948.235 177.078 951.419 179.58 953.929 182.77 955.086 185.682 956.009 188.414 956 193.796 956L291.014 956C293.992 956 296.118 955.991 297.951 955.845 298.441 955.914 298.932 956 299.423 956Z" fill="#FFFFFF" fill-rule="evenodd"/><path d="M696.93 1056C695.347 1056 693.765 1056.34 692.297 1057.03 689.703 1058.37 687.86 1060.23 684.206 1063.89L559.174 1189.33 505.572 1135.54C501.869 1131.82 500.009 1129.96 497.416 1128.62 494.48 1127.24 491.087 1127.24 488.15 1128.62 485.557 1129.96 483.73 1131.83 480.076 1135.49L476.862 1138.69C473.209 1142.36 471.365 1144.22 470.028 1146.8 468.657 1149.75 468.657 1153.15 470.028 1156.1 471.365 1158.69 473.225 1160.57 476.862 1164.22L538.898 1226.44C539.974 1227.7 541.361 1229.08 543.188 1230.91L546.32 1234.05C550.022 1237.76 551.882 1239.62 554.476 1240.97 557.412 1242.35 560.789 1242.35 563.725 1240.97 566.318 1239.62 568.178 1237.76 571.832 1234.11L635.547 1170.18 730.875 1170.18C736.324 1170.18 739.048 1170.17 741.951 1169.24 745.132 1168.09 747.628 1165.58 748.786 1162.39 749.7 1159.49 749.716 1156.74 749.716 1151.35L749.716 1146.72C749.716 1141.25 749.7 1138.51 748.786 1135.61 747.628 1132.42 745.132 1129.9 741.951 1128.75 739.048 1127.82 736.324 1127.82 730.941 1127.82L677.763 1127.82 707.141 1098.34 802.159 1098.34C807.624 1098.34 810.348 1098.34 813.252 1097.41 816.433 1096.26 818.928 1093.75 820.07 1090.57 821 1087.66 821 1084.92 821 1079.53L821 1074.89C821 1069.41 821 1066.67 820.07 1063.76 818.928 1060.58 816.433 1058.07 813.252 1056.91 810.348 1055.99 807.624 1056 802.257 1056L705.314 1056C702.345 1056 700.225 1056.01 698.398 1056.16 697.908 1056.09 697.419 1056 696.93 1056Z" fill="#FFFFFF" fill-rule="evenodd"/><path d="M945.07 1242C946.653 1242 948.235 1241.66 949.703 1240.97 952.297 1239.63 954.14 1237.77 957.794 1234.11L1082.83 1108.67 1136.43 1162.46C1140.13 1166.18 1141.99 1168.04 1144.58 1169.38 1147.52 1170.76 1150.91 1170.76 1153.85 1169.38 1156.44 1168.04 1158.27 1166.17 1161.92 1162.51L1165.14 1159.31C1168.79 1155.64 1170.63 1153.78 1171.97 1151.2 1173.34 1148.25 1173.34 1144.85 1171.97 1141.9 1170.63 1139.31 1168.78 1137.43 1165.14 1133.78L1103.1 1071.56C1102.03 1070.3 1100.64 1068.92 1098.81 1067.09L1095.68 1063.95C1091.98 1060.24 1090.12 1058.38 1087.52 1057.03 1084.59 1055.65 1081.21 1055.65 1078.28 1057.03 1075.68 1058.38 1073.82 1060.24 1070.17 1063.89L1006.45 1127.82 911.125 1127.82C905.676 1127.82 902.952 1127.83 900.049 1128.76 896.868 1129.91 894.372 1132.42 893.214 1135.61 892.3 1138.51 892.284 1141.26 892.284 1146.65L892.284 1151.28C892.284 1156.75 892.3 1159.49 893.214 1162.39 894.372 1165.58 896.868 1168.1 900.049 1169.25 902.952 1170.18 905.676 1170.18 911.059 1170.18L964.237 1170.18 934.859 1199.66 839.841 1199.66C834.376 1199.66 831.652 1199.66 828.748 1200.59 825.567 1201.74 823.072 1204.25 821.93 1207.43 821 1210.34 821 1213.08 821 1218.47L821 1223.11C821 1228.59 821 1231.33 821.93 1234.24 823.072 1237.42 825.567 1239.93 828.748 1241.09 831.652 1242.01 834.376 1242 839.743 1242L936.686 1242C939.655 1242 941.775 1241.99 943.602 1241.84 944.092 1241.91 944.581 1242 945.07 1242Z" fill="#FFFFFF" fill-rule="evenodd"/><path d="M1478.93 1056C1477.35 1056 1475.77 1056.34 1474.3 1057.03 1471.7 1058.37 1469.86 1060.23 1466.21 1063.89L1341.17 1189.33 1287.57 1135.54C1283.87 1131.82 1282.01 1129.96 1279.42 1128.62 1276.48 1127.24 1273.09 1127.24 1270.15 1128.62 1267.56 1129.96 1265.73 1131.83 1262.08 1135.49L1258.86 1138.69C1255.21 1142.36 1253.37 1144.22 1252.03 1146.8 1250.66 1149.75 1250.66 1153.15 1252.03 1156.1 1253.37 1158.69 1255.22 1160.57 1258.86 1164.22L1320.9 1226.44C1321.97 1227.7 1323.36 1229.08 1325.19 1230.91L1328.32 1234.05C1332.02 1237.76 1333.88 1239.62 1336.48 1240.97 1339.41 1242.35 1342.79 1242.35 1345.72 1240.97 1348.32 1239.62 1350.18 1237.76 1353.83 1234.11L1417.55 1170.18 1512.88 1170.18C1518.32 1170.18 1521.05 1170.17 1523.95 1169.24 1527.13 1168.09 1529.63 1165.58 1530.79 1162.39 1531.7 1159.49 1531.72 1156.74 1531.72 1151.35L1531.72 1146.72C1531.72 1141.25 1531.7 1138.51 1530.79 1135.61 1529.63 1132.42 1527.13 1129.9 1523.95 1128.75 1521.05 1127.82 1518.32 1127.82 1512.94 1127.82L1459.76 1127.82 1489.14 1098.34 1584.16 1098.34C1589.62 1098.34 1592.35 1098.34 1595.25 1097.41 1598.43 1096.26 1600.93 1093.75 1602.07 1090.57 1603 1087.66 1603 1084.92 1603 1079.53L1603 1074.89C1603 1069.41 1603 1066.67 1602.07 1063.76 1600.93 1060.58 1598.43 1058.07 1595.25 1056.91 1592.35 1055.99 1589.62 1056 1584.26 1056L1487.31 1056C1484.35 1056 1482.22 1056.01 1480.4 1056.16 1479.91 1056.09 1479.42 1056 1478.93 1056Z" fill="#FFFFFF" fill-rule="evenodd"/><path d="M1727.07 1242C1728.65 1242 1730.23 1241.66 1731.7 1240.97 1734.3 1239.63 1736.14 1237.77 1739.79 1234.11L1864.83 1108.67 1918.43 1162.46C1922.13 1166.18 1923.99 1168.04 1926.58 1169.38 1929.52 1170.76 1932.91 1170.76 1935.85 1169.38 1938.44 1168.04 1940.27 1166.17 1943.92 1162.51L1947.14 1159.31C1950.79 1155.64 1952.63 1153.78 1953.97 1151.2 1955.34 1148.25 1955.34 1144.85 1953.97 1141.9 1952.63 1139.31 1950.78 1137.43 1947.14 1133.78L1885.1 1071.56C1884.03 1070.3 1882.64 1068.92 1880.81 1067.09L1877.68 1063.95C1873.98 1060.24 1872.12 1058.38 1869.52 1057.03 1866.59 1055.65 1863.21 1055.65 1860.28 1057.03 1857.68 1058.38 1855.82 1060.24 1852.17 1063.89L1788.45 1127.82 1693.12 1127.82C1687.68 1127.82 1684.95 1127.83 1682.05 1128.76 1678.87 1129.91 1676.37 1132.42 1675.21 1135.61 1674.3 1138.51 1674.28 1141.26 1674.28 1146.65L1674.28 1151.28C1674.28 1156.75 1674.3 1159.49 1675.21 1162.39 1676.37 1165.58 1678.87 1168.1 1682.05 1169.25 1684.95 1170.18 1687.68 1170.18 1693.06 1170.18L1746.24 1170.18 1716.86 1199.66 1621.84 1199.66C1616.38 1199.66 1613.65 1199.66 1610.75 1200.59 1607.57 1201.74 1605.07 1204.25 1603.93 1207.43 1603 1210.34 1603 1213.08 1603 1218.47L1603 1223.11C1603 1228.59 1603 1231.33 1603.93 1234.24 1605.07 1237.42 1607.57 1239.93 1610.75 1241.09 1613.65 1242.01 1616.38 1242 1621.74 1242L1718.69 1242C1721.65 1242 1723.78 1241.99 1725.6 1241.84 1726.09 1241.91 1726.58 1242 1727.07 1242Z" fill="#FFFFFF" fill-rule="evenodd"/><path d="M2260.58 1056C2258.99 1056 2257.4 1056.34 2255.93 1057.03 2253.33 1058.37 2251.48 1060.23 2247.82 1063.89L2122.43 1189.33 2068.68 1135.54C2064.96 1131.82 2063.1 1129.96 2060.5 1128.62 2057.55 1127.24 2054.15 1127.24 2051.2 1128.62 2048.6 1129.96 2046.77 1131.83 2043.11 1135.49L2039.88 1138.69C2036.22 1142.36 2034.37 1144.22 2033.03 1146.8 2031.66 1149.75 2031.66 1153.15 2033.03 1156.1 2034.37 1158.69 2036.24 1160.57 2039.88 1164.22L2102.1 1226.44C2103.18 1227.7 2104.57 1229.08 2106.4 1230.91L2109.54 1234.05C2113.25 1237.76 2115.12 1239.62 2117.72 1240.97 2120.66 1242.35 2124.05 1242.35 2126.99 1240.97 2129.59 1239.62 2131.46 1237.76 2135.12 1234.11L2199.02 1170.18 2294.62 1170.18C2300.08 1170.18 2302.81 1170.17 2305.73 1169.24 2308.92 1168.09 2311.42 1165.58 2312.58 1162.39 2313.5 1159.49 2313.51 1156.74 2313.51 1151.35L2313.51 1146.72C2313.51 1141.25 2313.5 1138.51 2312.58 1135.61 2311.42 1132.42 2308.92 1129.9 2305.73 1128.75 2302.81 1127.82 2300.08 1127.82 2294.68 1127.82L2241.36 1127.82 2270.82 1098.34 2366.11 1098.34C2371.59 1098.34 2374.32 1098.34 2377.23 1097.41 2380.42 1096.26 2382.92 1093.75 2384.07 1090.57 2385 1087.66 2385 1084.92 2385 1079.53L2385 1074.89C2385 1069.41 2385 1066.67 2384.07 1063.76 2382.92 1060.58 2380.42 1058.07 2377.23 1056.91 2374.32 1055.99 2371.59 1056 2366.2 1056L2268.99 1056C2266.01 1056 2263.88 1056.01 2262.05 1056.16 2261.56 1056.09 2261.07 1056 2260.58 1056Z" fill="#FFFFFF" fill-rule="evenodd"/><path d="M2509.07 1242C2510.65 1242 2512.23 1241.66 2513.7 1240.97 2516.3 1239.63 2518.14 1237.77 2521.79 1234.11L2646.83 1108.67 2700.43 1162.46C2704.13 1166.18 2705.99 1168.04 2708.58 1169.38 2711.52 1170.76 2714.91 1170.76 2717.85 1169.38 2720.44 1168.04 2722.27 1166.17 2725.92 1162.51L2729.14 1159.31C2732.79 1155.64 2734.63 1153.78 2735.97 1151.2 2737.34 1148.25 2737.34 1144.85 2735.97 1141.9 2734.63 1139.31 2732.78 1137.43 2729.14 1133.78L2667.1 1071.56C2666.03 1070.3 2664.64 1068.92 2662.81 1067.09L2659.68 1063.95C2655.98 1060.24 2654.12 1058.38 2651.52 1057.03 2648.59 1055.65 2645.21 1055.65 2642.28 1057.03 2639.68 1058.38 2637.82 1060.24 2634.17 1063.89L2570.45 1127.82 2475.12 1127.82C2469.68 1127.82 2466.95 1127.83 2464.05 1128.76 2460.87 1129.91 2458.37 1132.42 2457.21 1135.61 2456.3 1138.51 2456.28 1141.26 2456.28 1146.65L2456.28 1151.28C2456.28 1156.75 2456.3 1159.49 2457.21 1162.39 2458.37 1165.58 2460.87 1168.1 2464.05 1169.25 2466.95 1170.18 2469.68 1170.18 2475.06 1170.18L2528.24 1170.18 2498.86 1199.66 2403.84 1199.66C2398.38 1199.66 2395.65 1199.66 2392.75 1200.59 2389.57 1201.74 2387.07 1204.25 2385.93 1207.43 2385 1210.34 2385 1213.08 2385 1218.47L2385 1223.11C2385 1228.59 2385 1231.33 2385.93 1234.24 2387.07 1237.42 2389.57 1239.93 2392.75 1241.09 2395.65 1242.01 2398.38 1242 2403.74 1242L2500.69 1242C2503.65 1242 2505.78 1241.99 2507.6 1241.84 2508.09 1241.91 2508.58 1242 2509.07 1242Z" fill="#FFFFFF" fill-rule="evenodd"/><path d="M-85.0703 1056C-86.6525 1056-88.2348 1056.34-89.7029 1057.03-92.2965 1058.37-94.1398 1060.23-97.7937 1063.89L-222.826 1189.33-276.428 1135.54C-280.131 1131.82-281.991 1129.96-284.584 1128.62-287.52 1127.24-290.913 1127.24-293.85 1128.62-296.443 1129.96-298.27 1131.83-301.924 1135.49L-305.138 1138.69C-308.791 1142.36-310.635 1144.22-311.972 1146.8-313.343 1149.75-313.343 1153.15-311.972 1156.1-310.635 1158.69-308.775 1160.57-305.138 1164.22L-243.102 1226.44C-242.026 1227.7-240.639 1229.08-238.812 1230.91L-235.68 1234.05C-231.978 1237.76-230.118 1239.62-227.524 1240.97-224.588 1242.35-221.212 1242.35-218.275 1240.97-215.682 1239.62-213.822 1237.76-210.168 1234.11L-146.453 1170.18-51.1247 1170.18C-45.6764 1170.18-42.9523 1170.17-40.0487 1169.24-36.8678 1168.09-34.3721 1165.58-33.2139 1162.39-32.3004 1159.49-32.2841 1156.74-32.2841 1151.35L-32.2841 1146.72C-32.2841 1141.25-32.3004 1138.51-33.2139 1135.61-34.3721 1132.42-36.8678 1129.9-40.0487 1128.75-42.9523 1127.82-45.6764 1127.82-51.0594 1127.82L-104.237 1127.82-74.8589 1098.34 20.1594 1098.34C25.624 1098.34 28.3481 1098.34 31.2517 1097.41 34.4326 1096.26 36.9283 1093.75 38.0702 1090.57 39 1087.66 39 1084.92 39 1079.53L39 1074.89C39 1069.41 39 1066.67 38.0702 1063.76 36.9283 1060.58 34.4326 1058.07 31.2517 1056.91 28.3481 1055.99 25.624 1056 20.2573 1056L-76.6858 1056C-79.6546 1056-81.7752 1056.01-83.6022 1056.16-84.0915 1056.09-84.5809 1056-85.0703 1056Z" fill="#FFFFFF" fill-rule="evenodd"/><path d="M163.423 1242C165.01 1242 166.596 1241.66 168.069 1240.97 170.67 1239.63 172.518 1237.77 176.182 1234.11L301.57 1108.67 355.324 1162.46C359.038 1166.18 360.902 1168.04 363.504 1169.38 366.448 1170.76 369.851 1170.76 372.795 1169.38 375.396 1168.04 377.228 1166.17 380.893 1162.51L384.115 1159.31C387.78 1155.64 389.628 1153.78 390.969 1151.2 392.344 1148.25 392.344 1144.85 390.969 1141.9 389.628 1139.31 387.763 1137.43 384.115 1133.78L321.904 1071.56C320.824 1070.3 319.434 1068.92 317.602 1067.09L314.461 1063.95C310.747 1060.24 308.882 1058.38 306.281 1057.03 303.337 1055.65 299.951 1055.65 297.006 1057.03 294.405 1058.38 292.54 1060.24 288.876 1063.89L224.98 1127.82 129.381 1127.82C123.917 1127.82 121.185 1127.83 118.273 1128.76 115.083 1129.91 112.581 1132.42 111.419 1135.61 110.503 1138.51 110.487 1141.26 110.487 1146.65L110.487 1151.28C110.487 1156.75 110.503 1159.49 111.419 1162.39 112.581 1165.58 115.083 1168.1 118.273 1169.25 121.185 1170.18 123.917 1170.18 129.315 1170.18L182.644 1170.18 153.182 1199.66 57.8941 1199.66C52.414 1199.66 49.6821 1199.66 46.7703 1200.59 43.5804 1201.74 41.0775 1204.25 39.9325 1207.43 39 1210.34 39 1213.08 39 1218.47L39 1223.11C39 1228.59 39 1231.33 39.9325 1234.24 41.0775 1237.42 43.5804 1239.93 46.7703 1241.09 49.6821 1242.01 52.414 1242 57.7959 1242L155.014 1242C157.992 1242 160.118 1241.99 161.95 1241.84 162.441 1241.91 162.932 1242 163.423 1242Z" fill="#FFFFFF" fill-rule="evenodd"/><path d="M832.93 1342C831.347 1342 829.765 1342.34 828.297 1343.03 825.703 1344.37 823.86 1346.23 820.206 1349.89L695.174 1475.33 641.572 1421.54C637.869 1417.82 636.009 1415.96 633.416 1414.62 630.48 1413.24 627.087 1413.24 624.15 1414.62 621.557 1415.96 619.73 1417.83 616.076 1421.49L612.862 1424.69C609.209 1428.36 607.365 1430.22 606.028 1432.8 604.657 1435.75 604.657 1439.15 606.028 1442.1 607.365 1444.69 609.225 1446.57 612.862 1450.22L674.898 1512.44C675.974 1513.7 677.361 1515.08 679.188 1516.91L682.32 1520.05C686.022 1523.76 687.882 1525.62 690.476 1526.97 693.412 1528.35 696.789 1528.35 699.725 1526.97 702.318 1525.62 704.178 1523.76 707.832 1520.11L771.547 1456.18 866.875 1456.18C872.324 1456.18 875.048 1456.17 877.951 1455.24 881.132 1454.09 883.628 1451.58 884.786 1448.39 885.7 1445.49 885.716 1442.74 885.716 1437.35L885.716 1432.72C885.716 1427.25 885.7 1424.51 884.786 1421.61 883.628 1418.42 881.132 1415.9 877.951 1414.75 875.048 1413.82 872.324 1413.82 866.941 1413.82L813.763 1413.82 843.141 1384.34 938.159 1384.34C943.624 1384.34 946.348 1384.34 949.252 1383.41 952.433 1382.26 954.928 1379.75 956.07 1376.57 957 1373.66 957 1370.92 957 1365.53L957 1360.89C957 1355.41 957 1352.67 956.07 1349.76 954.928 1346.58 952.433 1344.07 949.252 1342.91 946.348 1341.99 943.624 1342 938.257 1342L841.314 1342C838.345 1342 836.225 1342.01 834.398 1342.16 833.908 1342.09 833.419 1342 832.93 1342Z" fill="#FFFFFF" fill-rule="evenodd"/><path d="M1081.07 1528C1082.65 1528 1084.23 1527.66 1085.7 1526.97 1088.3 1525.63 1090.14 1523.77 1093.79 1520.11L1218.83 1394.67 1272.43 1448.46C1276.13 1452.18 1277.99 1454.04 1280.58 1455.38 1283.52 1456.76 1286.91 1456.76 1289.85 1455.38 1292.44 1454.04 1294.27 1452.17 1297.92 1448.51L1301.14 1445.31C1304.79 1441.64 1306.63 1439.78 1307.97 1437.2 1309.34 1434.25 1309.34 1430.85 1307.97 1427.9 1306.63 1425.31 1304.78 1423.43 1301.14 1419.78L1239.1 1357.56C1238.03 1356.3 1236.64 1354.92 1234.81 1353.09L1231.68 1349.95C1227.98 1346.24 1226.12 1344.38 1223.52 1343.03 1220.59 1341.65 1217.21 1341.65 1214.28 1343.03 1211.68 1344.38 1209.82 1346.24 1206.17 1349.89L1142.45 1413.82 1047.12 1413.82C1041.68 1413.82 1038.95 1413.83 1036.05 1414.76 1032.87 1415.91 1030.37 1418.42 1029.21 1421.61 1028.3 1424.51 1028.28 1427.26 1028.28 1432.65L1028.28 1437.28C1028.28 1442.75 1028.3 1445.49 1029.21 1448.39 1030.37 1451.58 1032.87 1454.1 1036.05 1455.25 1038.95 1456.18 1041.68 1456.18 1047.06 1456.18L1100.24 1456.18 1070.86 1485.66 975.841 1485.66C970.376 1485.66 967.652 1485.66 964.748 1486.59 961.567 1487.74 959.072 1490.25 957.93 1493.43 957 1496.34 957 1499.08 957 1504.47L957 1509.11C957 1514.59 957 1517.33 957.93 1520.24 959.072 1523.42 961.567 1525.93 964.748 1527.09 967.652 1528.01 970.376 1528 975.743 1528L1072.69 1528C1075.65 1528 1077.78 1527.99 1079.6 1527.84 1080.09 1527.91 1080.58 1528 1081.07 1528Z" fill="#FFFFFF" fill-rule="evenodd"/><path d="M1614.93 1342C1613.35 1342 1611.77 1342.34 1610.3 1343.03 1607.7 1344.37 1605.86 1346.23 1602.21 1349.89L1477.17 1475.33 1423.57 1421.54C1419.87 1417.82 1418.01 1415.96 1415.42 1414.62 1412.48 1413.24 1409.09 1413.24 1406.15 1414.62 1403.56 1415.96 1401.73 1417.83 1398.08 1421.49L1394.86 1424.69C1391.21 1428.36 1389.37 1430.22 1388.03 1432.8 1386.66 1435.75 1386.66 1439.15 1388.03 1442.1 1389.37 1444.69 1391.22 1446.57 1394.86 1450.22L1456.9 1512.44C1457.97 1513.7 1459.36 1515.08 1461.19 1516.91L1464.32 1520.05C1468.02 1523.76 1469.88 1525.62 1472.48 1526.97 1475.41 1528.35 1478.79 1528.35 1481.72 1526.97 1484.32 1525.62 1486.18 1523.76 1489.83 1520.11L1553.55 1456.18 1648.88 1456.18C1654.32 1456.18 1657.05 1456.17 1659.95 1455.24 1663.13 1454.09 1665.63 1451.58 1666.79 1448.39 1667.7 1445.49 1667.72 1442.74 1667.72 1437.35L1667.72 1432.72C1667.72 1427.25 1667.7 1424.51 1666.79 1421.61 1665.63 1418.42 1663.13 1415.9 1659.95 1414.75 1657.05 1413.82 1654.32 1413.82 1648.94 1413.82L1595.76 1413.82 1625.14 1384.34 1720.16 1384.34C1725.62 1384.34 1728.35 1384.34 1731.25 1383.41 1734.43 1382.26 1736.93 1379.75 1738.07 1376.57 1739 1373.66 1739 1370.92 1739 1365.53L1739 1360.89C1739 1355.41 1739 1352.67 1738.07 1349.76 1736.93 1346.58 1734.43 1344.07 1731.25 1342.91 1728.35 1341.99 1725.62 1342 1720.26 1342L1623.31 1342C1620.35 1342 1618.22 1342.01 1616.4 1342.16 1615.91 1342.09 1615.42 1342 1614.93 1342Z" fill="#FFFFFF" fill-rule="evenodd"/><path d="M1863.07 1528C1864.65 1528 1866.23 1527.66 1867.7 1526.97 1870.3 1525.63 1872.14 1523.77 1875.79 1520.11L2000.83 1394.67 2054.43 1448.46C2058.13 1452.18 2059.99 1454.04 2062.58 1455.38 2065.52 1456.76 2068.91 1456.76 2071.85 1455.38 2074.44 1454.04 2076.27 1452.17 2079.92 1448.51L2083.14 1445.31C2086.79 1441.64 2088.63 1439.78 2089.97 1437.2 2091.34 1434.25 2091.34 1430.85 2089.97 1427.9 2088.63 1425.31 2086.78 1423.43 2083.14 1419.78L2021.1 1357.56C2020.03 1356.3 2018.64 1354.92 2016.81 1353.09L2013.68 1349.95C2009.98 1346.24 2008.12 1344.38 2005.52 1343.03 2002.59 1341.65 1999.21 1341.65 1996.28 1343.03 1993.68 1344.38 1991.82 1346.24 1988.17 1349.89L1924.45 1413.82 1829.12 1413.82C1823.68 1413.82 1820.95 1413.83 1818.05 1414.76 1814.87 1415.91 1812.37 1418.42 1811.21 1421.61 1810.3 1424.51 1810.28 1427.26 1810.28 1432.65L1810.28 1437.28C1810.28 1442.75 1810.3 1445.49 1811.21 1448.39 1812.37 1451.58 1814.87 1454.1 1818.05 1455.25 1820.95 1456.18 1823.68 1456.18 1829.06 1456.18L1882.24 1456.18 1852.86 1485.66 1757.84 1485.66C1752.38 1485.66 1749.65 1485.66 1746.75 1486.59 1743.57 1487.74 1741.07 1490.25 1739.93 1493.43 1739 1496.34 1739 1499.08 1739 1504.47L1739 1509.11C1739 1514.59 1739 1517.33 1739.93 1520.24 1741.07 1523.42 1743.57 1525.93 1746.75 1527.09 1749.65 1528.01 1752.38 1528 1757.74 1528L1854.69 1528C1857.65 1528 1859.78 1527.99 1861.6 1527.84 1862.09 1527.91 1862.58 1528 1863.07 1528Z" fill="#FFFFFF" fill-rule="evenodd"/><path d="M2396.58 1342C2394.99 1342 2393.4 1342.34 2391.93 1343.03 2389.33 1344.37 2387.48 1346.23 2383.82 1349.89L2258.43 1475.33 2204.68 1421.54C2200.96 1417.82 2199.1 1415.96 2196.5 1414.62 2193.55 1413.24 2190.15 1413.24 2187.2 1414.62 2184.6 1415.96 2182.77 1417.83 2179.11 1421.49L2175.88 1424.69C2172.22 1428.36 2170.37 1430.22 2169.03 1432.8 2167.66 1435.75 2167.66 1439.15 2169.03 1442.1 2170.37 1444.69 2172.24 1446.57 2175.88 1450.22L2238.1 1512.44C2239.18 1513.7 2240.57 1515.08 2242.4 1516.91L2245.54 1520.05C2249.25 1523.76 2251.12 1525.62 2253.72 1526.97 2256.66 1528.35 2260.05 1528.35 2262.99 1526.97 2265.59 1525.62 2267.46 1523.76 2271.12 1520.11L2335.02 1456.18 2430.62 1456.18C2436.08 1456.18 2438.81 1456.17 2441.73 1455.24 2444.92 1454.09 2447.42 1451.58 2448.58 1448.39 2449.5 1445.49 2449.51 1442.74 2449.51 1437.35L2449.51 1432.72C2449.51 1427.25 2449.5 1424.51 2448.58 1421.61 2447.42 1418.42 2444.92 1415.9 2441.73 1414.75 2438.81 1413.82 2436.08 1413.82 2430.68 1413.82L2377.36 1413.82 2406.82 1384.34 2502.11 1384.34C2507.59 1384.34 2510.32 1384.34 2513.23 1383.41 2516.42 1382.26 2518.92 1379.75 2520.07 1376.57 2521 1373.66 2521 1370.92 2521 1365.53L2521 1360.89C2521 1355.41 2521 1352.67 2520.07 1349.76 2518.92 1346.58 2516.42 1344.07 2513.23 1342.91 2510.32 1341.99 2507.59 1342 2502.2 1342L2404.99 1342C2402.01 1342 2399.88 1342.01 2398.05 1342.16 2397.56 1342.09 2397.07 1342 2396.58 1342Z" fill="#FFFFFF" fill-rule="evenodd"/><path d="M50.9297 1342C49.3475 1342 47.7652 1342.34 46.2971 1343.03 43.7035 1344.37 41.8602 1346.23 38.2063 1349.89L-86.8264 1475.33-140.428 1421.54C-144.131 1417.82-145.991 1415.96-148.584 1414.62-151.52 1413.24-154.913 1413.24-157.85 1414.62-160.443 1415.96-162.27 1417.83-165.924 1421.49L-169.138 1424.69C-172.791 1428.36-174.635 1430.22-175.972 1432.8-177.343 1435.75-177.343 1439.15-175.972 1442.1-174.635 1444.69-172.775 1446.57-169.138 1450.22L-107.102 1512.44C-106.026 1513.7-104.639 1515.08-102.812 1516.91L-99.6804 1520.05C-95.9775 1523.76-94.1179 1525.62-91.5243 1526.97-88.5881 1528.35-85.2115 1528.35-82.2753 1526.97-79.6817 1525.62-77.8221 1523.76-74.1682 1520.11L-10.4529 1456.18 84.8753 1456.18C90.3236 1456.18 93.0477 1456.17 95.9513 1455.24 99.1322 1454.09 101.628 1451.58 102.786 1448.39 103.7 1445.49 103.716 1442.74 103.716 1437.35L103.716 1432.72C103.716 1427.25 103.7 1424.51 102.786 1421.61 101.628 1418.42 99.1322 1415.9 95.9513 1414.75 93.0477 1413.82 90.3236 1413.82 84.9406 1413.82L31.763 1413.82 61.1411 1384.34 156.159 1384.34C161.624 1384.34 164.348 1384.34 167.252 1383.41 170.433 1382.26 172.928 1379.75 174.07 1376.57 175 1373.66 175 1370.92 175 1365.53L175 1360.89C175 1355.41 175 1352.67 174.07 1349.76 172.928 1346.58 170.433 1344.07 167.252 1342.91 164.348 1341.99 161.624 1342 156.257 1342L59.3142 1342C56.3454 1342 54.2248 1342.01 52.3978 1342.16 51.9085 1342.09 51.4191 1342 50.9297 1342Z" fill="#FFFFFF" fill-rule="evenodd"/><path d="M299.423 1528C301.01 1528 302.596 1527.66 304.069 1526.97 306.67 1525.63 308.518 1523.77 312.182 1520.11L437.57 1394.67 491.324 1448.46C495.038 1452.18 496.902 1454.04 499.504 1455.38 502.448 1456.76 505.851 1456.76 508.795 1455.38 511.396 1454.04 513.228 1452.17 516.893 1448.51L520.115 1445.31C523.779 1441.64 525.628 1439.78 526.969 1437.2 528.344 1434.25 528.344 1430.85 526.969 1427.9 525.628 1425.31 523.763 1423.43 520.115 1419.78L457.904 1357.56C456.824 1356.3 455.434 1354.92 453.602 1353.09L450.461 1349.95C446.747 1346.24 444.882 1344.38 442.281 1343.03 439.337 1341.65 435.951 1341.65 433.006 1343.03 430.405 1344.38 428.54 1346.24 424.876 1349.89L360.98 1413.82 265.381 1413.82C259.917 1413.82 257.185 1413.83 254.273 1414.76 251.083 1415.91 248.581 1418.42 247.419 1421.61 246.503 1424.51 246.487 1427.26 246.487 1432.65L246.487 1437.28C246.487 1442.75 246.503 1445.49 247.419 1448.39 248.581 1451.58 251.083 1454.1 254.273 1455.25 257.185 1456.18 259.917 1456.18 265.315 1456.18L318.644 1456.18 289.182 1485.66 193.894 1485.66C188.414 1485.66 185.682 1485.66 182.77 1486.59 179.58 1487.74 177.078 1490.25 175.932 1493.43 175 1496.34 175 1499.08 175 1504.47L175 1509.11C175 1514.59 175 1517.33 175.932 1520.24 177.078 1523.42 179.58 1525.93 182.77 1527.09 185.682 1528.01 188.414 1528 193.796 1528L291.014 1528C293.992 1528 296.118 1527.99 297.951 1527.84 298.441 1527.91 298.932 1528 299.423 1528Z" fill="#FFFFFF" fill-rule="evenodd"/></g></svg>