<?xml version="1.0" standalone="no"?>
<!DOCTYPE svg PUBLIC "-//W3C//DTD SVG 20010904//EN"
 "http://www.w3.org/TR/2001/REC-SVG-20010904/DTD/svg10.dtd">
<svg version="1.0" xmlns="http://www.w3.org/2000/svg"
 width="700.000000pt" height="700.000000pt" viewBox="0 0 700.000000 700.000000"
 preserveAspectRatio="xMidYMid meet">
<metadata>
Created by potrace 1.11, written by Peter Selinger 2001-2013
</metadata>
<g transform="translate(0.000000,700.000000) scale(0.100000,-0.100000)"
fill="#000000" stroke="none">
<path d="M6 6981 c-2 -3 -2 -526 -2 -1161 l1 -1155 1167 -3 1168 -2 0 -1165 0
-1165 -1168 0 -1168 0 1 -1157 c1 -637 3 -1160 4 -1163 0 -3 1051 -5 2333 -5
l2333 1 2 2259 c1 1243 3 2290 3 2328 l0 67 1160 0 1160 0 0 1163 0 1164
-3495 0 c-1923 0 -3497 -3 -3499 -6z"/>
</g>
</svg>
