<svg width="1365" height="1365" xmlns="http://www.w3.org/2000/svg" xmlns:xlink="http://www.w3.org/1999/xlink" overflow="hidden"><defs><clipPath id="clip0"><path d="M0 0 1365 0 1365 1365 0 1365Z" fill-rule="evenodd" clip-rule="evenodd"/></clipPath></defs><g clip-path="url(#clip0)"><rect x="0" y="0" width="1365" height="1365" fill="#FFFFFF"/><path d="M803.803 456C800.522 456 797.282 456.357 794.042 457.007 794.042 457.007 794.042 457.007 794.002 457.007 793.637 457.07 793.313 457.259 792.949 457.342 790.235 457.951 787.603 458.727 785.011 459.797 784.201 460.132 783.472 460.657 782.662 461.055 780.597 462.041 778.491 462.985 776.547 464.307 776.061 464.642 775.656 465.104 775.17 465.46 773.104 466.95 771.079 468.502 769.257 470.348L448.748 791.177 312.509 654.749C293.393 635.639 262.412 635.639 243.296 654.749 224.221 673.858 224.221 704.84 243.296 723.97L413.878 894.694C423.476 904.343 436.153 909.084 448.748 909 461.383 909.084 473.979 904.322 483.617 894.694L652.012 726.13 878.118 726.13C905.091 726.13 927.001 704.21 927.001 677.193 927.001 650.155 905.091 628.235 878.118 628.235L749.777 628.235 824.052 553.896 1050.12 553.896C1077.09 553.896 1099 531.975 1099 504.958 1099 477.92 1077.09 456 1050.12 456L803.884 456C803.843 456 803.843 456 803.803 456Z" fill="#5E72E4" fill-rule="evenodd"/></g></svg>