<svg width="1365" height="1365" xmlns="http://www.w3.org/2000/svg" xmlns:xlink="http://www.w3.org/1999/xlink" overflow="hidden"><defs><clipPath id="clip0"><path d="M0 0 1365 0 1365 1365 0 1365Z" fill-rule="evenodd" clip-rule="evenodd"/></clipPath></defs><g clip-path="url(#clip0)"><rect x="0" y="0" width="1365" height="1365" fill="#333333"/><path d="M855.245 393C851.191 393 847.188 393.44 843.185 394.242 843.185 394.242 843.185 394.242 843.135 394.242 842.684 394.32 842.284 394.553 841.833 394.657 838.481 395.407 835.228 396.365 832.025 397.685 831.024 398.099 830.124 398.746 829.123 399.238 826.571 400.455 823.969 401.62 821.567 403.25 820.966 403.664 820.466 404.234 819.865 404.674 817.313 406.512 814.811 408.427 812.559 410.705L416.527 806.607 248.186 638.255C224.567 614.674 186.285 614.674 162.665 638.255 139.095 661.836 139.095 700.067 162.665 723.674L373.441 934.347C385.301 946.254 400.964 952.104 416.527 952 432.14 952.104 447.703 946.228 459.613 934.347L667.688 726.34 947.072 726.34C980.399 726.34 1007.47 699.29 1007.47 665.951 1007.47 632.586 980.399 605.537 947.072 605.537L788.489 605.537 880.266 513.803 1159.6 513.803C1192.93 513.803 1220 486.753 1220 453.414 1220 420.049 1192.93 393 1159.6 393L855.345 393C855.295 393 855.295 393 855.245 393Z" fill="#FFFFFF" fill-rule="evenodd"/></g></svg>