<?xml version="1.0" standalone="no"?>
<!DOCTYPE svg PUBLIC "-//W3C//DTD SVG 20010904//EN"
 "http://www.w3.org/TR/2001/REC-SVG-20010904/DTD/svg10.dtd">
<svg version="1.0" xmlns="http://www.w3.org/2000/svg"
 width="1365.000000pt" height="1365.000000pt" viewBox="0 0 1365.000000 1365.000000"
 preserveAspectRatio="xMidYMid meet">
<metadata>
Created by potrace 1.11, written by Peter Selinger 2001-2013
</metadata>
<g transform="translate(0.000000,1365.000000) scale(0.100000,-0.100000)"
fill="#000000" stroke="none">
<path d="M779 8596 c-2 -2 -26 -6 -54 -9 -81 -10 -107 -17 -170 -47 -147 -71
-248 -212 -272 -382 -11 -73 -10 -2612 1 -2668 20 -106 34 -144 75 -207 104
-154 237 -218 481 -229 95 -4 296 -6 315 -3 6 1 14 1 19 0 12 -2 208 -3 221 0
6 1 14 1 19 0 11 -2 287 -2 301 0 6 1 14 1 18 0 11 -2 528 -2 542 0 6 1 14 1
19 0 12 -3 207 -3 221 0 6 1 14 1 19 0 12 -3 207 -3 221 0 6 1 14 1 18 0 11
-2 529 -2 542 0 6 1 14 1 19 0 11 -2 287 -2 301 0 6 1 14 1 19 0 12 -3 207 -3
221 0 6 1 14 1 19 0 12 -3 207 -3 221 0 6 1 14 1 19 0 12 -3 207 -3 221 0 6 1
14 1 19 0 13 -3 129 -3 141 -1 6 1 14 2 19 1 12 -3 207 -3 221 0 6 1 14 1 19
0 12 -3 207 -3 221 0 6 1 14 1 18 0 11 -2 449 -2 462 0 6 1 14 1 19 0 12 -3
207 -3 221 0 6 1 14 1 19 0 12 -3 207 -3 221 0 6 1 14 1 18 0 10 -2 769 -2
782 0 6 1 14 1 19 0 23 -5 218 -2 223 2 3 3 15 2 28 -3 13 -5 25 -7 27 -4 3 2
49 6 104 9 54 2 108 6 119 9 11 2 43 7 70 10 135 18 346 85 495 158 107 53
290 170 324 207 11 12 23 21 28 21 12 0 184 174 233 235 22 28 42 52 46 55 8
7 83 118 113 167 l25 41 438 0 c426 0 476 2 526 21 23 9 97 86 95 100 0 3 1 8
2 11 12 25 16 1361 5 1432 -10 58 -40 111 -78 134 -40 24 -115 45 -122 34 -3
-5 -18 -5 -33 -2 -15 4 -205 7 -422 6 -218 -1 -403 3 -412 8 -10 5 -18 15 -18
23 0 8 -4 15 -10 15 -5 0 -10 5 -10 10 0 26 -155 224 -250 319 -207 209 -427
347 -692 435 -101 34 -258 74 -288 74 -8 0 -42 5 -75 10 -41 7 -1075 11 -3271
11 -1766 1 -3213 -1 -3215 -3z m6421 -329 c14 -3 41 -9 60 -12 19 -4 51 -10
70 -15 19 -5 37 -9 40 -9 17 -1 169 -59 240 -93 294 -140 525 -367 675 -663
l51 -100 119 -2 c66 0 125 -2 130 -3 6 -1 15 -1 20 0 26 6 137 4 142 -3 2 -4
9 -4 15 -1 15 10 139 11 145 1 2 -4 9 -4 15 -1 14 9 262 9 276 0 6 -3 13 -2
16 3 4 5 19 7 34 5 15 -3 35 -6 45 -7 10 -1 28 -12 40 -25 l22 -24 0 -494 0
-493 -23 -23 -23 -23 -486 -5 -487 -5 -53 -105 c-30 -58 -58 -106 -63 -108 -6
-2 -10 -8 -10 -13 0 -11 -48 -86 -70 -110 -8 -8 -40 -44 -70 -80 -112 -131
-285 -263 -453 -343 -104 -50 -254 -103 -312 -111 -20 -2 -39 -6 -43 -8 -28
-17 -312 -34 -334 -21 -4 3 -8 1 -8 -3 0 -5 -12 -8 -27 -7 -35 3 -74 4 -142 4
-29 0 -58 3 -62 6 -5 3 -9 1 -9 -3 0 -5 -12 -8 -27 -7 -37 3 -75 4 -152 5 -34
0 -66 0 -70 1 -3 0 -10 -1 -16 -2 -21 -4 -147 0 -156 6 -5 3 -9 2 -9 -3 0 -8
-175 -7 -197 1 -7 3 -13 2 -13 -2 0 -5 -12 -7 -27 -6 -37 3 -75 4 -152 5 -34
0 -66 0 -70 1 -3 0 -10 -1 -16 -2 -21 -4 -147 0 -156 6 -5 3 -9 1 -9 -3 0 -5
-29 -6 -66 -3 -36 3 -70 3 -76 -1 -6 -4 -23 -3 -39 1 -15 5 -30 6 -33 3 -4 -5
-218 -6 -243 -2 -4 1 -12 1 -18 0 -5 -1 -48 -2 -95 -1 -47 1 -92 1 -100 1 -68
-1 -260 -1 -266 0 -5 1 -13 1 -19 0 -24 -5 -197 -1 -206 4 -5 4 -9 2 -9 -2 0
-5 -12 -8 -27 -7 -37 3 -75 4 -152 5 -34 0 -66 0 -70 1 -3 0 -10 0 -16 -1 -5
-1 -48 -2 -95 -1 -47 1 -91 1 -97 1 -119 -2 -190 -2 -198 -1 -5 1 -14 1 -20 0
-12 -2 -128 -2 -141 1 -5 1 -13 0 -19 -1 -12 -2 -128 -2 -141 1 -5 1 -13 0
-19 -1 -12 -2 -128 -2 -141 1 -5 1 -13 1 -19 0 -5 -1 -64 -1 -130 -1 -66 1
-127 1 -135 1 -68 -1 -260 -1 -266 0 -5 1 -13 1 -19 0 -24 -5 -197 -1 -206 4
-5 4 -9 2 -9 -2 0 -5 -12 -8 -27 -7 -37 3 -75 4 -152 5 -34 0 -66 0 -70 1 -3
0 -10 0 -16 -1 -5 -1 -48 -2 -95 -1 -47 1 -91 1 -97 1 -119 -2 -190 -2 -198
-1 -5 1 -14 1 -20 0 -12 -2 -128 -2 -141 1 -5 1 -13 0 -19 -1 -12 -2 -128 -2
-141 1 -5 1 -13 0 -19 -1 -12 -2 -128 -2 -141 1 -5 1 -13 1 -19 0 -5 -1 -64
-1 -130 -1 -66 1 -127 1 -135 1 -43 -1 -124 0 -197 3 -166 8 -275 98 -299 246
-13 81 -11 2334 3 2412 19 117 82 190 196 229 49 17 205 18 3212 15 1738 -1
3171 -5 3185 -9z"/>
<path d="M10797 6073 c-1 0 -31 -4 -67 -7 -125 -11 -233 -61 -322 -149 -44
-44 -116 -159 -119 -189 0 -4 -7 -27 -14 -51 -17 -58 -16 -174 2 -245 51 -198
229 -354 431 -377 36 -4 267 -8 287 -4 6 1 14 1 19 0 11 -2 287 -2 301 0 6 1
14 1 19 0 12 -3 207 -3 221 0 6 1 14 1 19 0 12 -3 207 -3 221 0 6 1 14 1 19 0
12 -3 207 -3 221 0 6 1 14 1 19 0 13 -3 129 -3 141 -1 6 1 14 2 19 1 12 -3
207 -3 221 0 6 1 14 1 19 0 12 -3 207 -3 221 0 6 1 15 0 20 -1 15 -3 172 0
230 5 52 4 141 30 163 47 6 6 12 7 12 4 0 -13 93 57 140 106 95 98 142 227
136 373 -6 136 -50 237 -146 334 -77 76 -188 134 -280 145 -27 4 -332 6 -572
5 -10 0 -119 0 -243 0 -124 0 -232 0 -240 0 -8 0 -116 0 -240 0 -124 0 -232 0
-240 0 -8 0 -117 0 -242 0 -126 0 -239 0 -253 1 -62 3 -122 5 -123 3z m2143
-341 c24 -13 53 -34 63 -45 78 -88 66 -240 -25 -309 -49 -37 -93 -48 -191 -46
-48 0 -90 -1 -92 -4 -2 -2 -30 -1 -60 2 -31 3 -58 3 -60 -1 -3 -3 -22 -3 -42
1 -21 3 -50 3 -64 -1 -15 -3 -33 -3 -40 2 -7 4 -17 5 -21 3 -4 -3 -45 -5 -91
-4 -45 1 -89 1 -97 1 -8 0 -40 0 -70 0 -72 0 -72 0 -95 -1 -28 -2 -119 -1
-157 1 -7 0 -44 0 -83 0 -38 0 -77 0 -85 0 -8 0 -24 0 -35 -1 -11 -1 -76 -1
-145 -1 -69 0 -132 1 -140 0 -8 0 -44 0 -80 0 -36 1 -72 1 -80 0 -8 0 -44 0
-80 0 -36 1 -72 1 -80 0 -15 0 -86 0 -220 1 -136 2 -172 12 -228 68 -61 61
-78 152 -42 230 29 63 90 112 155 124 11 2 497 4 1080 4 l1060 -1 45 -23z"/>
</g>
</svg>
