<svg width="2560" height="1440" xmlns="http://www.w3.org/2000/svg" xmlns:xlink="http://www.w3.org/1999/xlink" overflow="hidden"><defs><clipPath id="clip0"><path d="M0 0 2560 0 2560 1440 0 1440Z" fill-rule="evenodd" clip-rule="evenodd"/></clipPath></defs><g clip-path="url(#clip0)"><rect x="0" y="0" width="2560" height="1440" fill="#5E72E4"/><path d="M1419.8 494C1416.52 494 1413.28 494.356 1410.04 495.005 1410.04 495.005 1410.04 495.005 1410 495.005 1409.64 495.067 1409.31 495.256 1408.95 495.34 1406.24 495.946 1403.6 496.721 1401.01 497.788 1400.2 498.123 1399.47 498.646 1398.66 499.044 1396.6 500.028 1394.49 500.97 1392.55 502.288 1392.06 502.623 1391.66 503.084 1391.17 503.439 1389.1 504.925 1387.08 506.474 1385.26 508.316L1064.75 828.437 928.509 692.31C909.393 673.243 878.412 673.243 859.296 692.31 840.221 711.377 840.221 742.29 859.296 761.378L1029.88 931.726C1039.48 941.354 1052.15 946.084 1064.75 946 1077.38 946.084 1089.98 941.333 1099.62 931.726L1268.01 763.534 1494.12 763.534C1521.09 763.534 1543 741.662 1543 714.705 1543 687.726 1521.09 665.855 1494.12 665.855L1365.78 665.855 1440.05 591.679 1666.12 591.679C1693.09 591.679 1715 569.808 1715 542.85 1715 515.872 1693.09 494 1666.12 494L1419.88 494C1419.84 494 1419.84 494 1419.8 494Z" fill="#FFFFFF" fill-rule="evenodd"/></g></svg>