<?xml version="1.0" standalone="no"?>
<!DOCTYPE svg PUBLIC "-//W3C//DTD SVG 20010904//EN"
 "http://www.w3.org/TR/2001/REC-SVG-20010904/DTD/svg10.dtd">
<svg version="1.0" xmlns="http://www.w3.org/2000/svg"
 width="700.000000pt" height="700.000000pt" viewBox="0 0 700.000000 700.000000"
 preserveAspectRatio="xMidYMid meet">
<metadata>
Created by potrace 1.11, written by Peter Selinger 2001-2013
</metadata>
<g transform="translate(0.000000,700.000000) scale(0.100000,-0.100000)"
fill="#000000" stroke="none">
<path d="M3278 6995 c-2 -1 -42 -6 -89 -9 -47 -4 -94 -8 -105 -10 -10 -2 -45
-7 -78 -11 -67 -8 -105 -14 -126 -20 -8 -3 -32 -7 -54 -11 -148 -23 -380 -90
-598 -173 -219 -83 -540 -253 -709 -374 -31 -23 -67 -49 -79 -57 -13 -8 -59
-44 -104 -79 -648 -513 -1095 -1233 -1260 -2026 -36 -178 -46 -239 -63 -425
-15 -163 -8 -592 12 -711 2 -13 6 -46 9 -74 6 -54 11 -81 27 -161 5 -28 12
-61 14 -75 9 -46 13 -65 35 -149 21 -85 73 -257 89 -295 5 -11 29 -74 55 -141
55 -142 169 -372 246 -497 30 -48 60 -95 65 -105 38 -67 253 -348 320 -418
251 -263 372 -371 580 -520 124 -88 110 -79 260 -169 293 -175 697 -335 1010
-401 70 -15 288 -53 330 -58 244 -28 637 -29 863 0 287 35 701 145 909 240 28
13 54 24 57 24 10 0 237 112 311 153 173 97 376 237 529 364 176 147 411 389
526 542 14 18 35 45 46 59 18 23 144 209 181 267 34 54 119 211 162 301 183
377 304 813 339 1229 14 161 4 687 -13 715 -2 3 -6 30 -9 60 -3 30 -8 64 -10
75 -2 11 -11 61 -21 110 -20 106 -46 213 -75 310 -11 39 -25 84 -29 100 -13
48 -79 222 -128 335 -242 559 -693 1113 -1173 1441 -36 24 -67 46 -70 49 -9 9
-69 50 -74 50 -2 0 -46 26 -97 59 -52 32 -159 90 -239 129 -127 61 -183 86
-340 147 -158 62 -467 143 -655 171 -27 4 -57 9 -65 10 -8 2 -44 6 -80 9 -36
4 -76 9 -90 12 -27 5 -536 13 -542 8z m2592 -2090 c139 -32 240 -166 233 -312
-5 -123 -101 -245 -218 -278 -16 -5 -360 -9 -763 -10 l-733 -1 -232 -232 -232
-232 410 -1 c226 -1 425 -3 444 -5 86 -10 178 -84 222 -179 51 -111 27 -245
-58 -332 -44 -44 -98 -76 -150 -87 -18 -4 -357 -7 -755 -7 l-723 0 -545 -544
c-364 -362 -559 -550 -587 -564 -89 -44 -199 -44 -286 1 -24 12 -266 246 -612
591 -544 544 -573 575 -594 632 -97 255 162 503 406 389 50 -23 118 -87 495
-463 241 -240 441 -437 446 -439 5 -1 467 455 1027 1014 1062 1061 1044 1045
1146 1062 56 10 1616 7 1659 -3z"/>
</g>
</svg>
