<?xml version="1.0" standalone="no"?>
<!DOCTYPE svg PUBLIC "-//W3C//DTD SVG 20010904//EN"
 "http://www.w3.org/TR/2001/REC-SVG-20010904/DTD/svg10.dtd">
<svg version="1.0" xmlns="http://www.w3.org/2000/svg"
 width="1365.000000pt" height="1365.000000pt" viewBox="0 0 1365.000000 1365.000000"
 preserveAspectRatio="xMidYMid meet">
<metadata>
Created by potrace 1.11, written by Peter Selinger 2001-2013
</metadata>
<g transform="translate(0.000000,1365.000000) scale(0.100000,-0.100000)"
fill="#000000" stroke="none">
<path d="M8654 10250 c-47 -10 -152 -71 -203 -116 -25 -21 -646 -639 -1380
-1371 -735 -733 -1336 -1333 -1336 -1333 0 0 -469 -468 -1042 -1040 -573 -572
-1046 -1040 -1050 -1040 -4 0 -107 99 -227 220 -845 845 -1919 1912 -1957
1943 -25 20 -51 37 -57 37 -6 0 -12 5 -14 10 -2 6 -35 21 -75 35 -100 35 -204
31 -294 -12 -35 -17 -74 -39 -86 -49 -12 -11 -35 -29 -50 -41 -30 -23 -369
-359 -438 -434 -84 -90 -129 -176 -140 -263 -3 -26 -6 -50 -6 -54 -1 -4 -1 -9
0 -12 1 -3 4 -24 7 -48 8 -80 51 -162 134 -256 89 -100 2873 -2874 2930 -2920
36 -29 76 -57 90 -63 22 -11 36 -15 90 -31 31 -9 154 -9 189 0 67 18 113 44
196 113 33 27 617 605 1297 1284 680 679 1244 1238 1252 1243 9 5 16 5 16 1 0
-4 14 -8 30 -8 17 0 30 4 30 8 0 5 5 5 12 1 6 -4 41 -6 77 -5 83 2 60 2 239
-1 83 -2 152 0 152 4 0 4 7 5 16 1 23 -8 304 -9 304 -1 0 4 7 5 16 1 24 -9
374 -9 374 1 0 4 8 5 18 1 25 -10 162 -12 162 -2 0 5 5 5 11 2 14 -9 119 -12
119 -3 0 4 6 5 14 2 24 -9 156 -10 156 0 0 4 8 5 18 1 25 -10 162 -12 162 -2
0 5 5 5 11 2 14 -9 119 -12 119 -3 0 4 6 5 14 2 24 -9 156 -10 156 0 0 4 8 5
18 1 25 -10 162 -12 162 -2 0 5 5 5 11 2 14 -9 119 -12 119 -3 0 4 6 5 14 2
24 -9 156 -10 156 0 0 4 8 5 18 1 25 -10 162 -12 162 -2 0 5 5 5 11 2 14 -9
119 -12 119 -3 0 4 6 5 14 2 24 -9 156 -10 156 0 0 4 8 5 18 1 25 -10 162 -12
162 -2 0 5 5 5 11 2 13 -9 113 -10 126 -2 6 4 13 4 17 0 6 -6 61 -6 169 0 27
1 51 -1 54 -6 2 -4 10 -4 16 0 6 4 27 8 47 10 224 22 371 161 407 385 9 55 9
697 0 763 -18 135 -49 199 -139 287 -21 21 -38 35 -38 30 0 -4 -4 -2 -8 3 -26
36 -201 89 -258 79 -13 -2 -24 0 -24 6 0 6 -4 9 -8 6 -8 -5 -45 -6 -144 -6
-27 0 -55 0 -63 0 -8 0 -130 0 -270 0 -140 0 -261 -1 -267 -1 -7 0 -29 2 -48
4 -19 2 -52 0 -72 -3 -21 -4 -38 -5 -38 -1 0 3 -35 5 -77 3 -43 -1 -82 -3 -88
-3 -5 0 -26 2 -45 4 -19 2 -52 0 -72 -3 -21 -4 -38 -5 -38 -1 0 5 -177 6 -197
1 -5 -2 -12 -1 -18 0 -25 6 -62 5 -83 -2 -13 -4 -21 -5 -19 0 6 8 -127 6 -149
-2 -8 -3 -14 -2 -14 2 0 7 -43 8 -76 1 -5 -1 -13 0 -19 1 -24 4 -253 2 -262
-3 -5 -3 -14 -2 -21 2 -7 4 -30 6 -52 4 -32 -2 -40 0 -40 14 0 9 2 14 5 11 3
-3 247 235 541 528 l535 534 1882 1 c1035 1 1898 2 1917 4 49 5 80 11 115 25
17 6 32 12 35 12 22 1 166 98 147 98 -3 0 7 14 22 31 16 17 34 43 41 57 7 15
16 34 20 42 4 9 10 29 14 45 3 17 9 41 13 55 10 38 13 739 3 790 -5 25 -11 61
-15 80 -16 85 -119 220 -193 253 -15 6 -29 14 -32 17 -3 3 -39 16 -80 28 l-75
21 -2130 0 c-1171 -1 -2144 -5 -2161 -9z"/>
</g>
</svg>
