<?xml version="1.0" standalone="no"?>
<!DOCTYPE svg PUBLIC "-//W3C//DTD SVG 20010904//EN"
 "http://www.w3.org/TR/2001/REC-SVG-20010904/DTD/svg10.dtd">
<svg version="1.0" xmlns="http://www.w3.org/2000/svg"
 width="700.000000pt" height="700.000000pt" viewBox="0 0 700.000000 700.000000"
 preserveAspectRatio="xMidYMid meet">
<metadata>
Created by potrace 1.11, written by Peter Selinger 2001-2013
</metadata>
<g transform="translate(0.000000,700.000000) scale(0.100000,-0.100000)"
fill="#000000" stroke="none">
<path d="M4386 5105 c-28 -6 -68 -19 -90 -30 -25 -12 -449 -429 -1203 -1183
l-1165 -1165 -166 167 c-92 92 -174 171 -182 176 -8 5 -11 10 -6 10 6 0 1 6
-9 14 -11 8 -24 12 -29 9 -5 -4 -6 -2 -3 4 8 13 -167 186 -178 176 -4 -4 -5
-3 -2 3 8 13 -62 86 -75 78 -5 -3 -7 -1 -6 4 2 5 -14 27 -35 50 -20 23 -37 39
-37 36 0 -3 -17 15 -37 40 -21 25 -46 48 -56 51 -9 4 -15 10 -12 15 5 8 -24
25 -38 21 -5 -1 -6 2 -3 7 6 10 -114 129 -158 158 -92 59 -231 67 -329 19 -63
-31 -150 -112 -142 -133 2 -7 1 -10 -4 -7 -9 5 -27 -34 -22 -44 2 -2 -2 -7 -7
-10 -15 -9 -31 -108 -20 -119 6 -6 6 -12 0 -16 -32 -19 70 -243 105 -231 7 2
12 0 10 -4 -3 -13 93 -112 104 -106 5 4 6 0 3 -8 -3 -8 6 -21 22 -32 14 -9 39
-31 54 -49 15 -17 103 -105 195 -196 92 -91 181 -180 199 -199 35 -39 55 -59
82 -83 10 -9 24 -23 31 -30 7 -7 18 -18 25 -25 7 -6 127 -126 267 -267 301
-304 311 -311 461 -311 144 0 163 12 410 259 113 113 392 392 620 621 l415
415 255 0 c140 0 523 1 850 2 l595 3 57 29 c87 44 165 135 184 213 11 45 16
163 8 181 -4 9 -8 22 -9 27 -14 59 -132 204 -155 190 -6 -3 -10 -2 -10 3 0 13
-48 32 -88 35 -17 1 -32 4 -32 7 0 3 -21 6 -46 8 -34 2 -43 -1 -38 -10 6 -10
4 -10 -7 -2 -20 15 -259 16 -259 1 0 -8 -3 -9 -8 -2 -10 16 -202 16 -202 2 0
-9 -2 -9 -8 -1 -4 6 -16 11 -27 11 -11 0 -23 -5 -27 -11 -6 -8 -8 -8 -8 0 0
16 -90 17 -90 2 0 -9 -3 -10 -8 -2 -4 6 -16 11 -27 11 -11 0 -23 -5 -27 -11
-5 -8 -8 -7 -8 2 0 6 -8 12 -18 12 -10 0 -24 -6 -31 -12 -11 -10 -13 -10 -7 0
5 8 0 12 -13 12 -12 0 -21 -6 -21 -12 0 -10 -2 -10 -8 -1 -4 6 -20 10 -35 9
-15 -2 -27 0 -27 3 0 3 117 123 260 266 l260 260 833 1 c664 0 840 3 872 14
79 26 161 83 148 103 -3 6 -1 7 4 4 15 -9 59 52 80 110 15 45 22 152 11 198
-11 49 -52 121 -91 160 -49 50 -114 88 -134 81 -8 -3 -11 -1 -8 4 3 6 0 10 -7
11 -7 0 -24 3 -38 5 -54 11 -1833 9 -1884 -1z"/>
</g>
</svg>
