<?xml version="1.0" encoding="UTF-8" standalone="no"?>
<svg
   xmlns:dc="http://purl.org/dc/elements/1.1/"
   xmlns:cc="http://creativecommons.org/ns#"
   xmlns:rdf="http://www.w3.org/1999/02/22-rdf-syntax-ns#"
   xmlns:svg="http://www.w3.org/2000/svg"
   xmlns="http://www.w3.org/2000/svg"
   xmlns:sodipodi="http://sodipodi.sourceforge.net/DTD/sodipodi-0.dtd"
   xmlns:inkscape="http://www.inkscape.org/namespaces/inkscape"
   width="1365"
   height="1365"
   overflow="hidden"
   version="1.1"
   id="svg13"
   sodipodi:docname="Slide1.SVG"
   inkscape:version="0.92.4 (5da689c313, 2019-01-14)">
  <metadata
     id="metadata17">
    <rdf:RDF>
      <cc:Work
         rdf:about="">
        <dc:format>image/svg+xml</dc:format>
        <dc:type
           rdf:resource="http://purl.org/dc/dcmitype/StillImage" />
      </cc:Work>
    </rdf:RDF>
  </metadata>
  <sodipodi:namedview
     pagecolor="#ffffff"
     bordercolor="#666666"
     borderopacity="1"
     objecttolerance="10"
     gridtolerance="10"
     guidetolerance="10"
     inkscape:pageopacity="0"
     inkscape:pageshadow="2"
     inkscape:window-width="1600"
     inkscape:window-height="837"
     id="namedview15"
     showgrid="false"
     inkscape:zoom="0.17289377"
     inkscape:cx="682.5"
     inkscape:cy="682.5"
     inkscape:window-x="-8"
     inkscape:window-y="-8"
     inkscape:window-maximized="1"
     inkscape:current-layer="svg13" />
  <defs
     id="defs5">
    <clipPath
       id="clip0">
      <path
         d="M0 0 1365 0 1365 1365 0 1365Z"
         fill-rule="evenodd"
         clip-rule="evenodd"
         id="path2" />
    </clipPath>
  </defs>
  <path
     style="fill:#ffffff;fill-rule:evenodd"
     inkscape:connector-curvature="0"
     id="path9"
     d="m 682.465,0 c -174.656,0 -349.313,66.6096 -482.56,199.895 -266.5631,266.571 -266.5631,698.639 0,965.205 266.494,266.51 698.627,266.51 965.125,0 266.56,-266.566 266.56,-698.634 0,-965.205 C 1031.78,66.6096 857.122,0 682.465,0 Z m 148.23,406.816 c 0,0 0,0 0.069,0 h 300.066 c 32.88,0 59.58,26.644 59.58,59.584 0,32.874 -26.7,59.518 -59.58,59.518 H 855.319 l -90.45,90.536 h 156.345 c 32.878,0 59.583,26.71 59.583,59.584 0,32.874 -26.705,59.584 -59.583,59.584 H 645.703 L 440.526,940.753 c -11.722,11.731 -27.121,17.498 -42.519,17.431 -15.33,0.067 -30.798,-5.7 -42.52,-17.431 L 147.674,732.971 c -23.236,-23.264 -23.236,-60.976 0,-84.24 23.306,-23.263 61.04,-23.263 84.346,0 L 398.007,814.758 788.591,424.247 c 2.22,-2.254 4.717,-4.109 7.214,-5.965 0.555,-0.398 1.04,-0.994 1.665,-1.392 2.358,-1.591 4.924,-2.717 7.422,-3.977 0.971,-0.464 1.872,-1.06 2.913,-1.458 3.121,-1.325 6.381,-2.253 9.641,-3.049 0.416,-0.066 0.833,-0.265 1.318,-0.397 0,0 0,0 0.07,0 3.884,-0.796 7.838,-1.193 11.861,-1.193 z" />
</svg>
