<?xml version="1.0" encoding="UTF-8" standalone="no"?>
<svg
   xmlns:dc="http://purl.org/dc/elements/1.1/"
   xmlns:cc="http://creativecommons.org/ns#"
   xmlns:rdf="http://www.w3.org/1999/02/22-rdf-syntax-ns#"
   xmlns:svg="http://www.w3.org/2000/svg"
   xmlns="http://www.w3.org/2000/svg"
   xmlns:sodipodi="http://sodipodi.sourceforge.net/DTD/sodipodi-0.dtd"
   xmlns:inkscape="http://www.inkscape.org/namespaces/inkscape"
   width="1075"
   height="559"
   overflow="hidden"
   version="1.1"
   id="svg13"
   sodipodi:docname="s6.SVG"
   inkscape:version="0.92.4 (5da689c313, 2019-01-14)">
  <metadata
     id="metadata17">
    <rdf:RDF>
      <cc:Work
         rdf:about="">
        <dc:format>image/svg+xml</dc:format>
        <dc:type
           rdf:resource="http://purl.org/dc/dcmitype/StillImage" />
      </cc:Work>
    </rdf:RDF>
  </metadata>
  <sodipodi:namedview
     pagecolor="#ffffff"
     bordercolor="#666666"
     borderopacity="1"
     objecttolerance="10"
     gridtolerance="10"
     guidetolerance="10"
     inkscape:pageopacity="0"
     inkscape:pageshadow="2"
     inkscape:window-width="1600"
     inkscape:window-height="837"
     id="namedview15"
     showgrid="false"
     inkscape:zoom="0.26418605"
     inkscape:cx="537.5"
     inkscape:cy="279.5"
     inkscape:window-x="-8"
     inkscape:window-y="-8"
     inkscape:window-maximized="1"
     inkscape:current-layer="svg13" />
  <defs
     id="defs5">
    <clipPath
       id="clip0">
      <path
         d="M0 0 1075 0 1075 559 0 559Z"
         fill-rule="evenodd"
         clip-rule="evenodd"
         id="path2" />
    </clipPath>
  </defs>
  <path
     style="fill:#ffffff;fill-rule:evenodd;stroke-width:1.00007999"
     inkscape:connector-curvature="0"
     id="path9"
     d="m 697.71338,20 c -3.7586,0 -7.4722,0.408548 -11.18479,1.15355 0,0 0,0 -0.046,0 -0.41807,0.07209 -0.78913,0.28838 -1.20719,0.38451 -3.1095,0.69694 -6.12598,1.58613 -9.09646,2.81177 -0.92815,0.38452 -1.76328,0.98532 -2.69143,1.44194 -2.36738,1.12951 -4.78076,2.21096 -7.00812,3.72499 -0.55709,0.38452 -1.02116,0.91324 -1.57825,1.32174 -2.36738,1.7063 -4.68775,3.4847 -6.77609,5.5995 L 290.82729,404.011 134.69981,247.705 c -21.906,-21.893 -57.410585,-21.893 -79.316689,0 -21.859637,21.894 -21.859637,57.389 0,79.307 L 250.86689,522.61 c 10.99976,11.055 25.52609,16.486 39.9604,16.39 14.48031,0.096 28.91362,-5.359 39.95939,-16.39 L 523.76455,329.487 H 782.878 c 30.90995,0 56.01896,-25.114 56.01896,-56.067 0,-30.978 -25.10901,-56.091 -56.01896,-56.091 H 635.80147 l 85.11762,-85.171 h 259.06744 c 30.90997,0 56.01797,-25.1133 56.01797,-56.0668 C 1036.0045,45.1137 1010.8965,20 979.98653,20 H 697.80639 c -0.046,0 -0.046,0 -0.093,0 z" />
</svg>
